<?xml version="1.0"?>
<svg xmlns="http://www.w3.org/2000/svg" height="512px" viewBox="-48 -21 681 681.33466" width="512px"><g><path d="m521.242188 496.71875c-30.347657-10.96875-70.167969-19.449219-116.179688-24.789062 4.449219-4.503907 8.835938-9.066407 13.144531-13.695313 41.1875-44.273437 68.613281-87.5625 83.84375-132.332031 32.714844-96.164063.574219-215.285156-74.753906-277.078125-38.316406-31.429688-87.09375-48.7421878-137.34375-48.7421878-.003906 0 0 0 0 0-50.246094 0-99.027344 17.3124998-137.34375 48.7421878-35.671875 29.265625-63.140625 72.273437-77.347656 121.101562-14.035157 48.257813-14.355469 99.265625-.910157 143.640625 17.992188 59.367188 56.628907 111.652344 102.074219 158.386719-45.851562 5.335937-85.542969 13.785156-115.828125 24.722656-41.316406 14.917969-62.261718 33.605469-62.261718 55.535157 0 26.78125 30.738281 48.484374 91.355468 64.519531 53.894532 14.253906 125.335938 22.105469 201.171875 22.105469 75.832031 0 147.273438-7.851563 201.167969-22.105469 60.617188-16.035157 91.355469-37.738281 91.355469-64.519531 0-21.910157-20.90625-40.578126-62.144531-55.492188zm-421.828126-319.765625c12.800782-44.003906 37.359376-82.601563 69.152344-108.679687 33.832032-27.757813 76.9375-43.039063 121.386719-43.039063s87.558594 15.289063 121.390625 43.039063c32.894531 26.984374 57.734375 67.605468 69.9375 114.386718 12.015625 46.046875 10.933594 94.046875-3.046875 135.140625-31.511719 92.640625-114.414063 161.722657-188.28125 222.601563-78.273437-64.597656-163.367187-141.195313-191.527344-234.125-12.050781-39.773438-11.703125-85.699219.988281-129.324219zm386.183594 415.457031c-51.855468 13.71875-121.011718 21.273438-194.734375 21.273438-73.726562 0-142.882812-7.554688-194.738281-21.273438-57.339844-15.164062-72.636719-32.402344-72.636719-40.195312 0-16.707032 56.007813-46.292969 176.125-57.390625 25.035157 23.761719 51.328125 46.03125 76.84375 67.050781 10.359375 8.535156 16.460938 8.671875 26.996094-.003906 24.855469-20.484375 51.933594-42.816406 78.027344-67.101563 120.550781 11.054688 176.753906 40.722657 176.753906 57.445313 0 7.792968-15.296875 25.035156-72.636719 40.195312zm0 0" data-original="#000000" class="active-path" data-old_color="#000000" fill="#B52182"/><path d="m358.1875 362.496094c14.609375-6.882813 3.917969-29.648438-10.714844-22.757813-17.875 8.414063-37.984375 13.054688-56.628906 13.054688-71.15625 0-129.046875-57.894531-129.046875-129.050781 0-71.160157 57.890625-129.042969 129.046875-129.042969s129.046875 57.886719 129.046875 129.042969c0 17.542968-3.453125 34.542968-10.261719 50.53125-6.332031 14.855468 16.800782 24.738281 23.136719 9.859374 8.148437-19.125 12.277344-39.441406 12.277344-60.390624 0-85.023438-69.171875-154.199219-154.199219-154.199219s-154.199219 69.175781-154.199219 154.199219c0 85.03125 69.171875 154.199218 154.199219 154.199218 22.273438 0 46.1875-5.484375 67.34375-15.445312zm0 0" data-original="#000000" class="active-path" data-old_color="#000000" fill="#B52182"/><path d="m394.09375 307.933594c-6.839844 0-12.574219 5.742187-12.574219 12.578125 0 6.832031 5.742188 12.574219 12.574219 12.574219 6.640625 0 12.257812-5.410157 12.550781-12.023438.3125-7.042969-5.496093-13.128906-12.550781-13.128906zm0 0" data-original="#000000" class="active-path" data-old_color="#000000" fill="#B52182"/><path d="m371.363281 157.703125c-15.289062-11.777344-37.308593-8.921875-49.09375 6.367187l-53.480469 69.417969-14.09375-10.804687c-7.421874-5.691406-16.613281-8.148438-25.878906-6.921875-9.269531 1.222656-17.511718 5.984375-23.199218 13.40625-11.742188 15.316406-8.835938 37.332031 6.480468 49.074219l41.808594 32.054687c15.136719 11.609375 37.402344 8.675781 49.03125-6.414063l74.796875-97.085937c11.777344-15.292969 8.921875-37.3125-6.371094-49.09375-15.289062-11.777344 15.292969 11.78125 0 0zm-13.550781 33.746094-74.796875 97.082031c-3.300781 4.285156-9.570313 5.054688-13.800781 1.804688l-41.8125-32.054688c-10.03125-7.691406 1.828125-23.425781 11.988281-15.636719l24.054687 18.441407c5.5 4.222656 13.382813 3.1875 17.609376-2.304688l61.140624-79.359375c3.316407-4.304687 9.515626-5.109375 13.820313-1.796875 4.304687 3.320312 5.109375 9.519531 1.796875 13.824219zm0 0" data-original="#000000" class="active-path" data-old_color="#000000" fill="#B52182"/></g> </svg>
