<?xml version="1.0"?>
<svg xmlns="http://www.w3.org/2000/svg" id="_x33_0" enable-background="new 0 0 64 64" height="512px" viewBox="0 0 64 64" width="512px"><g><g><path d="m14.633 43.219.367.367.368-.367c.223-.223.471-.409.731-.574-.059-.546-.099-1.095-.099-1.645 0-1.07.117-2.066.303-3h-3.841c-.299.948-.462 1.955-.462 3 0 .346.022.692.057 1.036.972.085 1.878.485 2.576 1.183z" data-original="#000000" class="active-path" data-old_color="#000000" fill="#B52182"/><path d="m26 41c0-1.08-.137-2.077-.351-3h-7.296c-.215.924-.353 1.921-.353 3 0 .342.013.685.039 1.026.091-.005.178-.026.27-.026 1.394 0 2.688.692 3.461 1.853l.098.147h3.778c.216-.924.354-1.921.354-3z" data-original="#000000" class="active-path" data-old_color="#000000" fill="#B52182"/><path d="m19.351 31.368c-2.553.703-4.696 2.391-5.998 4.632h3.48c.672-1.955 1.643-3.505 2.518-4.632z" data-original="#000000" class="active-path" data-old_color="#000000" fill="#B52182"/><path d="m24.649 50.632c2.553-.703 4.696-2.391 5.998-4.632h-3.48c-.672 1.955-1.643 3.505-2.518 4.632z" data-original="#000000" class="active-path" data-old_color="#000000" fill="#B52182"/><path d="m25.014 46h-2.215c.125.481.201.976.201 1.481 0 1.04-.285 2.043-.788 2.923.789-.848 1.967-2.345 2.802-4.404z" data-original="#000000" class="active-path" data-old_color="#000000" fill="#B52182"/><path d="m33.798 8.242-13.636-5.113-2.805 2.103 6.746 10.12z" data-original="#000000" class="active-path" data-old_color="#000000" fill="#B52182"/><path d="m25.02 36c-.914-2.262-2.242-3.839-3.018-4.63-.774.793-2.101 2.373-3.016 4.63z" data-original="#000000" class="active-path" data-old_color="#000000" fill="#B52182"/><path d="m52.727 9.698c1.213-1.618 1.723-3.637 1.455-5.623l-2.833-.708c-.333-.083-.673-.132-1.011-.187.329 1.694.288 3.442-.134 5.13l-.039.154 2.537 1.269z" data-original="#000000" class="active-path" data-old_color="#000000" fill="#B52182"/><path d="m6 23h7.672l8.183-6h-15.855c-1.654 0-3 1.346-3 3s1.346 3 3 3z" data-original="#000000" class="active-path" data-old_color="#000000" fill="#B52182"/><path d="m20.106 44.962c-.721-1.083-2.405-1.249-3.324-.329l-1.782 1.781-1.782-1.781c-.408-.408-.95-.633-1.527-.633-.724 0-1.396.359-1.797.962l-.24.36c-.428.642-.654 1.389-.654 2.159 0 1.255.609 2.439 1.631 3.169l4.369 3.121 4.37-3.121c1.021-.729 1.63-1.914 1.63-3.169 0-.771-.226-1.518-.654-2.159z" data-original="#000000" class="active-path" data-old_color="#000000" fill="#B52182"/><path d="m40 28.509v5.188l7.227 10.841 3.729-2.983-1.792-19.71z" data-original="#000000" class="active-path" data-old_color="#000000" fill="#B52182"/><circle cx="42" cy="17" r="2" data-original="#000000" class="active-path" data-old_color="#000000" fill="#B52182"/><path d="m28 41c0 1.07-.117 2.066-.303 3h3.841c.299-.948.462-1.955.462-3s-.163-2.052-.461-3h-3.841c.185.934.302 1.93.302 3z" data-original="#000000" class="active-path" data-old_color="#000000" fill="#B52182"/><path d="m34 22c0-1.103-.897-2-2-2s-2 .897-2 2c0 .355.097.698.271 1h3.457c.175-.302.272-.645.272-1z" data-original="#000000" class="active-path" data-old_color="#000000" fill="#B52182"/><path d="m58.198 5.08-1.967-.492c.12 2.247-.535 4.482-1.905 6.31l-1.028 1.369-5.463-2.731.427-1.711c.397-1.59.368-3.24-.035-4.82-2.588.027-5.057.845-7.147 2.379l-24.025 17.616h11.088c-.084-.325-.143-.658-.143-1 0-2.206 1.794-4 4-4s4 1.794 4 4c0 .342-.059.675-.143 1h.143c1.9 0 3.488 1.334 3.893 3.114l10.943-7.958.287 3.157 6.073-4.795c2.418-1.909 3.804-4.769 3.804-7.849 0-1.701-1.152-3.177-2.802-3.589zm-16.198 15.92c-2.206 0-4-1.794-4-4s1.794-4 4-4 4 1.794 4 4-1.794 4-4 4z" data-original="#000000" class="active-path" data-old_color="#000000" fill="#B52182"/><path d="m36 25h-30c-1.125 0-2.164-.373-3-1.002v35.002c0 1.103.897 2 2 2h31c1.103 0 2-.897 2-2v-32c0-1.103-.897-2-2-2zm-2 34h-4v-2h4zm0-4h-6v-2h6zm-12-2c-.734 0-1.462-.083-2.178-.215l-4.822 3.444-5.532-3.951c-1.546-1.104-2.468-2.897-2.468-4.797 0-1.167.342-2.297.99-3.269l.24-.36c.461-.692 1.109-1.212 1.851-1.523-.049-.441-.081-.884-.081-1.329 0-6.617 5.383-12 12-12s12 5.383 12 12-5.383 12-12 12z" data-original="#000000" class="active-path" data-old_color="#000000" fill="#B52182"/><path d="m24.649 31.368c.875 1.128 1.846 2.677 2.518 4.632h3.48c-1.302-2.242-3.445-3.929-5.998-4.632z" data-original="#000000" class="active-path" data-old_color="#000000" fill="#B52182"/></g></g> </svg>
