<?xml version="1.0" standalone="no"?>
<!DOCTYPE svg PUBLIC "-//W3C//DTD SVG 20010904//EN"
 "http://www.w3.org/TR/2001/REC-SVG-20010904/DTD/svg10.dtd">
<svg version="1.0" xmlns="http://www.w3.org/2000/svg"
 width="1280.000000pt" height="960.000000pt" viewBox="0 0 1280.000000 960.000000"
 preserveAspectRatio="xMidYMid meet">
<metadata>
Created by potrace 1.15, written by Peter Selinger 2001-2017
</metadata>
<g transform="translate(0.000000,960.000000) scale(0.100000,-0.100000)"
fill="#000000" stroke="none">
<path d="M0 9007 l0 -592 25 -28 c30 -32 29 -32 61 -11 30 20 96 23 118 5 9
-7 16 -24 16 -38 0 -13 11 -34 24 -46 33 -30 25 -66 -26 -116 -36 -37 -63 -50
-129 -65 -30 -7 -47 -49 -29 -71 6 -8 10 -22 8 -32 -3 -19 -5 -19 77 1 43 12
53 11 72 -3 40 -30 52 -81 18 -81 -7 0 -24 -22 -38 -50 -28 -55 -27 -60 2 -29
11 12 22 16 25 11 4 -7 25 -5 57 3 29 8 82 13 118 13 36 -1 75 3 86 9 22 12
155 5 155 -7 0 -5 36 -11 80 -15 44 -4 80 -11 80 -15 0 -5 45 -7 101 -7 98 2
101 1 124 -25 24 -28 55 -38 55 -18 0 6 9 10 20 10 11 0 20 -6 20 -13 0 -18
182 -40 342 -42 78 -1 122 -6 133 -15 13 -11 15 -8 15 19 0 30 1 31 43 31 57
0 77 21 77 83 l0 47 135 0 135 0 0 40 0 40 120 0 120 0 0 40 0 40 40 0 40 0 0
-40 0 -40 40 0 c29 0 40 -4 40 -15 0 -11 11 -15 40 -15 38 0 40 2 40 30 l0 30
80 0 c64 0 80 -3 80 -15 0 -12 20 -15 120 -15 100 0 120 3 120 15 0 11 11 15
40 15 29 0 40 -4 40 -15 0 -13 24 -15 160 -15 136 0 160 2 160 15 0 13 20 15
120 15 l120 0 0 -55 0 -55 40 0 40 0 0 40 0 40 40 0 c29 0 40 4 40 15 0 11 11
15 40 15 l40 0 0 -55 0 -55 80 0 c64 0 80 3 80 15 0 12 16 15 80 15 64 0 80
-3 80 -15 0 -12 20 -15 120 -15 l120 0 0 -40 0 -40 40 0 c29 0 40 -4 40 -15 0
-11 11 -15 40 -15 38 0 40 2 40 30 l0 30 80 0 c47 0 80 4 80 10 0 6 18 10 40
10 29 0 40 4 40 15 0 11 -11 15 -40 15 -29 0 -40 4 -40 15 0 12 16 15 80 15
l80 0 0 -30 c0 -28 2 -30 40 -30 36 0 40 -2 40 -25 0 -22 4 -25 40 -25 29 0
40 -4 40 -15 0 -11 12 -15 50 -15 38 0 50 4 50 15 0 11 12 15 45 15 l45 0 0
49 c0 48 13 75 23 49 3 -7 6 -3 6 10 1 25 21 31 21 6 0 -8 4 -13 10 -9 5 3 7
12 3 20 -4 11 3 15 26 15 17 0 31 -4 31 -10 0 -5 -4 -10 -10 -10 -5 0 -10 -4
-10 -10 0 -5 6 -10 14 -10 7 0 16 -9 19 -20 4 -15 14 -20 36 -20 18 0 31 -5
31 -12 0 -9 2 -10 8 -2 4 6 17 14 30 18 20 7 22 4 22 -28 0 -42 -3 -43 -37
-16 -14 11 -36 20 -49 20 -12 0 -26 5 -29 10 -4 6 -11 8 -16 4 -5 -3 -7 -10
-4 -15 4 -5 -1 -12 -9 -15 -8 -3 -20 -20 -26 -37 -12 -38 -7 -160 9 -200 6
-16 11 -38 11 -51 0 -12 9 -39 19 -60 14 -27 17 -44 11 -60 -4 -13 -18 -70
-30 -127 -12 -57 -26 -106 -31 -110 -5 -3 -8 -34 -8 -70 0 -35 -4 -77 -10 -92
-7 -19 -8 -34 -1 -45 7 -13 9 -14 10 -3 0 11 4 9 15 -5 18 -24 19 -40 1 -25
-12 10 -15 1 -18 -55 -2 -55 0 -69 15 -78 12 -8 17 -24 17 -59 0 -27 16 -101
35 -164 19 -64 33 -118 31 -120 -2 -2 -31 -5 -65 -7 -43 -2 -67 -8 -82 -22
-12 -10 -23 -18 -25 -16 -11 7 -24 0 -24 -13 0 -8 -9 -15 -19 -15 -32 0 -48
-25 -56 -84 -3 -31 -11 -56 -16 -56 -14 0 -11 -27 5 -43 11 -11 12 -25 4 -67
-5 -29 -6 -56 -1 -59 5 -3 10 -18 11 -33 1 -23 -2 -28 -21 -28 -17 0 -28 -11
-45 -45 -28 -58 -28 -65 3 -65 34 0 34 -35 0 -44 -22 -6 -25 -12 -25 -51 0
-43 -1 -45 -29 -45 -24 0 -29 -5 -35 -31 -3 -17 -3 -35 0 -40 2 -5 -1 -27 -7
-49 -10 -33 -16 -40 -31 -36 -35 9 -15 -26 22 -40 19 -7 31 -13 25 -13 -5 -1
-3 -5 5 -11 16 -10 15 -11 -53 -29 -33 -8 -38 -8 -35 7 2 9 14 19 28 23 l25 7
-25 1 c-33 1 -44 -9 -48 -39 -1 -17 5 -30 19 -38 12 -8 18 -9 14 -3 -11 19 37
12 51 -6 7 -10 14 -30 14 -44 0 -23 -5 -27 -35 -31 -19 -2 -35 0 -35 6 0 19
-15 -6 -16 -27 -5 -80 -8 -96 -20 -86 -7 6 -10 22 -8 37 3 21 2 23 -6 12 -5
-8 -10 -28 -11 -45 0 -26 -2 -27 -9 -10 -7 19 -8 19 -15 2 -6 -14 -15 -18 -35
-14 -15 3 -32 1 -39 -6 -18 -18 -14 11 6 41 10 15 24 36 31 47 16 25 52 104
52 114 0 4 -201 13 -447 19 -247 7 -578 19 -738 27 -159 8 -391 19 -515 25
-348 16 -893 52 -1295 84 -99 8 -272 22 -385 31 -113 9 -209 18 -215 20 -42
15 426 -7 725 -35 160 -15 715 -48 890 -54 l155 -5 -200 14 c-110 8 -330 24
-490 36 -159 11 -335 24 -390 29 -55 4 -224 18 -375 30 -151 12 -284 25 -295
30 -55 24 465 3 855 -35 240 -22 500 -35 665 -33 83 2 231 0 330 -3 210 -8
141 -2 -380 31 -176 12 -444 32 -595 46 -567 51 -807 74 -885 83 -44 6 -120
15 -170 20 -49 6 -135 15 -190 22 -190 21 -451 60 -609 91 -146 28 -160 29
-171 14 -17 -22 -28 -20 -20 4 4 11 2 20 -4 20 -8 0 -11 -126 -11 -410 0 -350
2 -410 14 -410 8 0 18 -5 22 -12 5 -8 0 -9 -14 -6 l-22 6 0 -855 c0 -570 3
-861 10 -874 7 -13 7 -19 1 -19 -7 0 -11 -257 -11 -769 l0 -770 22 1 c26 1
147 33 318 84 202 60 255 77 265 84 6 4 28 10 50 13 22 3 84 13 138 23 89 16
115 16 280 5 226 -16 255 -19 277 -31 10 -6 29 -10 43 -10 13 0 26 -3 30 -6 3
-4 63 -6 133 -6 98 1 130 -2 141 -13 9 -9 34 -15 63 -15 27 0 50 -5 52 -11 5
-14 68 -2 68 12 0 5 10 9 23 9 12 0 32 1 44 1 13 0 23 4 23 9 0 5 -22 9 -49 8
-28 0 -55 3 -61 7 -20 12 -62 16 -74 6 -9 -8 -13 -6 -13 4 0 20 16 19 219 -9
95 -14 198 -28 228 -32 89 -11 101 -21 25 -21 -46 1 -80 -5 -100 -15 -22 -12
-26 -18 -15 -21 67 -23 249 -43 316 -36 55 6 49 10 -21 13 -16 1 -40 7 -52 14
-17 9 -22 9 -26 -1 -4 -7 -6 -8 -6 -1 -1 8 -18 10 -48 8 -36 -3 -43 -2 -28 5
11 5 32 10 48 10 28 1 36 15 15 25 -7 3 -4 5 7 3 11 -1 20 -9 20 -17 0 -9 11
-16 30 -17 l30 -3 -25 12 -25 12 30 4 c17 2 100 -3 185 -12 385 -40 622 -59
890 -70 308 -13 399 -17 470 -22 237 -14 805 -23 1595 -26 l620 -3 48 -23 c26
-13 47 -28 47 -33 0 -6 6 -7 13 -2 6 4 25 8 40 9 139 8 216 17 211 26 -7 11
240 3 259 -9 5 -3 50 -5 98 -4 61 1 89 -2 89 -10 0 -8 5 -7 16 2 12 10 67 14
212 15 109 2 249 6 312 9 63 4 196 7 295 7 99 1 185 4 190 8 16 12 218 31 227
22 5 -5 54 -7 110 -4 86 4 102 2 110 -12 5 -9 17 -16 26 -16 10 0 29 -11 44
-25 15 -14 31 -25 37 -25 5 0 19 -11 32 -25 13 -13 32 -25 42 -25 9 0 17 -4
17 -10 0 -5 21 -25 48 -44 26 -20 54 -42 62 -49 8 -8 47 -38 85 -68 39 -30 81
-64 95 -76 14 -13 30 -23 37 -23 7 0 16 -6 20 -13 12 -20 63 -51 63 -39 0 6
-13 19 -29 28 -32 19 -32 34 0 34 10 0 19 5 19 11 0 7 -10 9 -26 5 -17 -5 -23
-3 -19 4 3 5 -1 10 -9 10 -9 0 -16 5 -16 11 0 5 -4 7 -10 4 -11 -7 -50 12 -50
24 0 4 24 7 53 6 60 -2 165 37 117 43 -33 5 -51 22 -23 22 12 0 25 4 28 10 3
5 2 10 -4 10 -6 0 -7 22 -4 56 5 48 3 58 -13 67 -18 10 -18 10 1 17 18 6 17 7
-4 26 -12 10 -36 33 -53 49 l-31 30 29 6 c20 5 23 7 9 8 -14 2 -9 7 18 18 29
12 41 13 50 4 9 -9 8 -14 -3 -22 -11 -8 -6 -9 20 -6 19 2 50 -2 69 -10 18 -8
45 -12 58 -8 16 4 22 2 18 -5 -4 -6 10 -17 31 -26 42 -17 166 -46 172 -39 3 2
1 12 -3 22 -5 10 -8 21 -7 25 1 3 -18 9 -41 13 -150 23 -318 65 -341 86 -5 4
-2 23 8 43 16 34 16 37 -2 73 -11 21 -25 56 -32 78 -7 22 -24 67 -37 99 -19
45 -25 80 -26 142 -1 45 -5 77 -8 72 -4 -7 -9 -6 -13 1 -4 6 -5 15 -2 19 3 5
0 9 -7 9 -7 1 -55 24 -107 52 -52 28 -98 51 -102 51 -4 0 -8 5 -8 11 0 6 -7 8
-17 5 -10 -4 -14 -4 -11 0 4 3 -44 32 -105 64 l-112 58 -13 -24 c-7 -13 -15
-24 -18 -24 -9 0 9 75 23 97 8 12 13 28 10 35 -4 8 -6 6 -6 -4 -1 -10 -8 -18
-16 -18 -18 0 -19 12 -4 27 8 8 6 19 -7 41 -15 26 -15 33 -5 46 8 10 9 16 3
16 -6 0 -12 -5 -14 -12 -5 -13 -28 -2 -28 13 0 6 5 7 12 3 7 -4 8 -3 4 5 -4 6
-12 9 -17 6 -5 -4 -9 -1 -9 4 0 6 6 11 13 12 6 0 1 5 -12 10 -16 6 -28 6 -37
-2 -11 -9 -14 -8 -14 4 0 8 -2 22 -5 30 -5 10 1 13 26 9 22 -3 30 -1 25 7 -4
6 -15 11 -25 11 -10 0 -24 7 -31 15 -10 12 -10 15 3 15 9 0 19 -4 22 -10 3 -5
15 -10 27 -10 16 0 19 -5 16 -25 -6 -30 7 -34 15 -4 3 12 10 18 17 14 6 -4 8
-16 4 -27 -4 -14 -2 -19 7 -16 17 6 42 -18 34 -32 -4 -6 -3 -10 2 -9 18 3 28
-2 17 -9 -6 -4 -15 -18 -19 -32 -7 -23 -7 -23 9 -7 21 21 40 22 33 3 -4 -10
-1 -13 9 -9 18 7 18 10 -6 35 -11 12 -20 28 -20 35 0 7 -4 13 -10 13 -5 0 -10
8 -10 17 0 14 4 13 24 -6 15 -14 22 -29 19 -39 -5 -11 -2 -14 10 -9 11 4 14 2
11 -7 -3 -8 -1 -17 5 -21 13 -8 15 -26 2 -23 -8 3 -65 -52 -59 -56 6 -5 49 22
49 30 -1 5 5 9 12 9 49 0 12 81 -87 186 -39 41 -93 110 -119 153 -44 71 -48
83 -48 143 l-1 64 -18 -33 -18 -33 -93 2 c-105 3 -127 14 -89 44 21 17 22 19
3 10 -30 -15 -32 -14 -26 9 7 25 21 27 149 16 l82 -6 -2 83 c-1 78 1 88 39
165 29 61 47 85 70 97 28 14 31 13 48 -6 9 -12 20 -39 23 -60 7 -41 18 -50 28
-23 10 27 -24 103 -53 119 l-26 14 32 1 c22 0 36 -6 43 -20 6 -11 8 -20 5 -20
-3 0 1 -10 9 -22 27 -43 25 -165 -4 -198 -16 -19 -21 -20 -26 -7 -3 8 0 25 6
37 11 21 7 40 -6 27 -6 -5 -47 -198 -60 -282 -4 -23 6 -48 46 -115 28 -46 54
-87 58 -90 4 -3 23 -25 42 -50 42 -54 144 -151 171 -164 10 -5 19 -15 19 -23
0 -16 -5 -16 -31 -3 -15 9 -19 7 -19 -6 0 -10 3 -15 6 -11 4 3 20 -1 35 -9 19
-9 35 -12 45 -6 11 6 22 3 38 -12 11 -12 35 -32 51 -46 17 -14 55 -54 85 -90
81 -95 80 -94 80 -76 0 8 -6 19 -13 23 -6 4 -31 34 -55 65 -24 31 -58 68 -75
82 -123 97 -127 109 -52 164 42 30 83 44 70 22 -3 -5 1 -10 9 -10 31 0 146
-95 146 -120 0 -5 7 -7 15 -4 11 4 13 2 10 -9 -5 -12 18 -32 28 -24 1 1 11 -5
21 -13 55 -45 66 -61 67 -92 0 -18 3 -55 5 -83 3 -27 8 -158 12 -290 7 -238 7
-239 30 -245 22 -5 56 -55 47 -69 -2 -4 16 -24 40 -44 47 -39 46 -39 154 -21
40 6 43 6 37 -13 -10 -32 8 -41 176 -79 67 -15 83 -16 131 -4 31 7 62 10 71 7
9 -4 16 -1 16 6 0 7 -23 23 -51 37 -50 24 -109 75 -109 93 0 11 41 -1 61 -19
8 -8 19 -10 25 -5 17 15 144 51 179 51 19 0 35 5 35 10 0 7 28 10 73 9 68 -2
176 16 187 31 5 8 89 21 155 24 22 1 47 5 55 8 8 4 32 9 53 13 21 3 35 10 32
16 -4 5 -17 6 -31 3 -13 -3 -24 -2 -24 4 0 12 34 22 75 22 23 0 27 -3 15 -10
-12 -8 -10 -10 8 -10 13 0 32 10 41 22 14 17 29 21 72 22 30 0 63 -3 74 -8 16
-6 17 -6 5 3 -13 10 -13 12 0 21 8 5 20 8 27 5 6 -2 17 3 23 11 11 12 3 14
-51 15 l-64 1 65 17 c116 32 333 113 391 147 47 28 65 33 103 30 26 -2 49 1
52 6 3 5 38 7 77 4 197 -14 291 -18 286 -12 -3 3 -75 11 -159 16 -199 14 -204
15 -196 51 6 31 -8 40 -18 13 -4 -9 -9 -14 -13 -11 -3 4 0 13 7 22 8 10 11 33
8 67 -5 47 -2 55 28 95 18 24 37 50 41 58 5 8 30 15 63 18 l55 3 -57 2 c-55 2
-58 3 -58 27 0 15 -6 38 -14 53 -15 29 -149 162 -181 180 -11 6 -18 13 -15 15
3 3 95 10 205 17 110 6 250 15 311 20 60 6 141 11 180 11 38 1 56 4 39 6 -28
5 -306 -7 -620 -26 -144 -9 -139 -10 -220 66 -55 50 -139 119 -180 146 -22 15
-33 27 -24 27 8 0 19 -4 25 -10 12 -12 49 -14 84 -6 20 5 21 5 5 -2 -14 -6 15
-11 90 -14 61 -3 112 -1 113 3 2 5 11 9 20 9 14 0 15 -2 2 -10 -8 -5 -12 -12
-8 -15 3 -4 73 -9 155 -11 81 -2 168 -9 193 -14 25 -6 59 -9 75 -8 17 2 65 -1
108 -5 75 -8 78 -10 62 -27 -15 -17 -14 -19 18 -39 19 -11 45 -21 58 -20 23 1
23 1 -3 11 -16 5 -28 17 -29 26 0 10 -3 39 -5 66 l-6 49 39 -7 c37 -6 37 -6
16 10 -26 19 -31 62 -8 70 8 4 15 14 15 24 0 11 4 22 10 25 6 3 11 43 12 88 1
45 3 64 5 42 5 -56 11 -71 24 -58 7 7 12 76 13 180 2 138 5 168 17 168 14 0
14 -6 6 -85 -3 -25 2 -41 17 -58 19 -22 20 -23 2 -53 -18 -31 -15 -79 5 -79 6
0 8 -4 4 -10 -3 -5 -3 -21 1 -35 4 -18 13 -25 30 -25 14 0 27 6 29 13 3 6 2
121 -3 255 -4 133 -4 242 0 242 4 0 9 -15 11 -32 2 -20 4 -10 5 25 1 35 -2 56
-8 52 -5 -3 -7 -13 -4 -23 5 -15 4 -14 -6 1 -7 10 -13 39 -13 64 -2 40 1 47
22 54 21 8 22 8 10 -7 -11 -13 -11 -17 3 -25 13 -7 15 -23 11 -96 -2 -48 -9
-93 -15 -100 -6 -8 -8 -16 -4 -20 3 -3 6 0 6 8 0 12 2 12 9 0 5 -7 9 -75 10
-150 1 -75 4 -157 7 -183 l6 -46 42 2 41 3 -2 121 c-1 72 2 122 7 122 6 0 10
-10 10 -22 2 -64 11 -207 16 -236 5 -34 13 -39 32 -20 16 16 24 5 24 -36 0
-19 6 -40 14 -47 8 -6 14 -20 14 -30 0 -10 9 -23 21 -30 16 -8 20 -17 16 -39
-5 -22 -2 -29 13 -33 15 -4 20 -14 20 -37 0 -30 1 -31 33 -25 24 5 37 2 46 -9
12 -14 8 -16 -32 -16 -41 0 -45 -2 -40 -21 5 -18 11 -20 45 -15 34 6 203 -3
196 -10 -2 -1 -68 -5 -148 -9 -80 -4 -149 -10 -153 -14 -4 -4 5 -6 20 -5 39 5
289 14 341 14 l42 -1 0 350 c0 270 -3 350 -12 354 -10 4 -10 6 0 6 17 1 17
177 -1 185 -9 5 -9 7 1 12 9 4 12 151 12 684 0 534 -3 679 -12 683 -10 3 -10
9 0 26 17 29 17 528 -1 550 -9 11 -9 13 0 8 9 -6 12 114 12 520 1 509 0 527
-17 501 -12 -18 -22 -24 -31 -19 -11 7 -11 13 -1 32 7 13 16 26 20 29 4 3 2
11 -6 17 -8 8 -15 9 -19 3 -3 -6 -1 -10 6 -10 7 0 0 -10 -14 -23 -27 -23 -37
-57 -16 -57 5 0 7 -5 4 -10 -4 -7 -13 -6 -27 1 -21 12 -38 -1 -38 -28 0 -18
10 -16 27 5 13 15 14 14 9 -17 -5 -29 -4 -32 9 -21 22 18 18 3 -6 -28 -27 -34
-88 -42 -96 -11 -4 14 -11 18 -24 14 -13 -4 -19 -1 -19 9 0 16 -13 20 -62 16
-16 -1 -28 4 -28 10 0 7 7 10 15 7 17 -7 30 9 15 18 -15 9 -62 -3 -55 -15 11
-18 -12 -18 -25 1 -8 10 -22 19 -32 19 -9 0 -20 5 -24 12 -5 8 0 9 14 6 12 -4
22 -2 22 3 0 5 5 9 10 9 6 0 10 -9 10 -20 0 -24 13 -26 30 -5 8 10 9 15 2 15
-7 0 -9 7 -5 17 5 12 2 15 -10 10 -8 -3 -18 -1 -21 6 -5 9 -7 9 -12 0 -3 -7
-12 -13 -21 -13 -8 0 -20 -6 -26 -12 -17 -18 -17 -48 -1 -48 7 0 11 -6 8 -14
-5 -12 17 -29 41 -31 14 -1 66 -41 67 -52 0 -4 4 -7 9 -5 5 1 9 -2 9 -8 0 -16
-15 -12 -35 10 -10 11 -23 19 -29 17 -5 -2 -18 5 -28 15 -21 21 -49 21 -56 -1
-3 -10 0 -12 12 -8 14 6 16 3 11 -13 -5 -14 -2 -20 9 -20 21 0 21 -16 0 -24
-8 -3 -13 -10 -10 -15 6 -10 -18 -34 -26 -26 -3 3 -13 -4 -23 -15 -12 -13 -14
-20 -5 -20 10 0 10 -3 0 -15 -7 -8 -16 -12 -21 -9 -5 3 -9 -5 -9 -17 0 -17 3
-19 14 -10 11 9 16 9 21 0 8 -11 -11 -29 -31 -29 -7 0 -14 7 -18 15 -3 8 -13
15 -21 15 -9 0 -14 4 -11 9 3 4 -5 6 -18 4 -19 -4 -26 2 -37 26 -8 17 -18 31
-23 31 -5 0 -15 8 -22 17 -12 16 -15 16 -25 3 -9 -12 -10 -11 -6 7 4 17 1 20
-12 16 -31 -11 -35 -17 -15 -24 17 -7 15 -9 -13 -20 -18 -8 -33 -17 -33 -22 0
-4 9 -3 19 3 30 16 36 12 16 -10 -10 -11 -13 -20 -7 -20 7 0 12 -9 12 -21 0
-13 4 -18 13 -13 9 5 9 4 0 -6 -6 -7 -22 -14 -35 -15 -13 -1 -29 -3 -35 -4 -7
0 -13 -5 -13 -11 0 -5 8 -6 17 -3 13 5 15 2 10 -11 -4 -10 -7 -21 -7 -26 0 -4
-16 -3 -35 3 -26 7 -32 13 -23 20 9 6 7 7 -5 3 -11 -3 -30 -9 -43 -12 -13 -3
-24 -10 -24 -16 0 -5 4 -7 9 -4 5 3 14 0 20 -8 9 -11 9 -15 -1 -19 -11 -5 -11
-7 0 -15 13 -9 6 -42 -9 -42 -11 0 -12 17 -1 23 4 2 1 2 -6 0 -8 -1 -22 -3
-33 -3 -21 0 -24 -8 -8 -30 6 -9 12 -11 15 -4 2 6 18 9 34 6 16 -2 27 -9 24
-14 -3 -5 -13 -7 -23 -4 -9 4 -5 -3 9 -14 l25 -21 -30 7 c-16 4 -36 12 -44 18
-11 9 -13 7 -7 -12 5 -13 3 -22 -3 -22 -19 0 -12 -30 7 -30 16 -1 16 -2 -1
-14 -11 -9 -14 -17 -8 -21 14 -8 -9 -45 -28 -45 -12 0 -12 -3 -3 -12 18 -18
15 -32 -12 -63 -23 -26 -25 -27 -47 -11 -30 20 -41 20 -67 -2 l-21 -18 21 -13
c18 -11 20 -11 15 3 -4 9 -2 16 3 16 6 0 10 -4 10 -10 0 -5 8 -10 18 -11 11 0
7 -4 -10 -11 -16 -5 -28 -17 -27 -26 0 -11 2 -12 6 -4 2 6 10 12 16 12 6 0 -1
-13 -16 -28 -29 -30 -37 -53 -12 -32 13 11 19 7 16 -12 0 -3 11 -5 25 -3 23 2
23 1 9 -15 -20 -22 -19 -31 3 -23 13 5 11 0 -7 -20 -14 -15 -22 -29 -19 -33 3
-3 12 1 19 9 10 10 18 11 29 4 11 -6 76 -2 201 12 265 30 388 35 514 22 61 -7
121 -14 135 -17 24 -5 24 -6 6 -20 -17 -12 -21 -11 -32 4 -13 16 -13 16 -14 0
0 -15 -9 -17 -65 -13 -36 3 -94 7 -130 10 -36 2 -65 1 -65 -4 0 -12 63 -21
147 -21 39 0 74 -4 77 -8 3 -5 -52 -8 -122 -6 -95 2 -114 1 -77 -6 28 -4 71
-9 98 -9 42 -1 47 -4 48 -23 l0 -23 9 23 c11 26 28 28 56 7 18 -15 18 -15 -7
-9 -20 4 -30 0 -41 -15 -8 -12 -17 -19 -19 -17 -10 11 -209 16 -209 6 0 -5 10
-10 23 -10 16 0 23 -6 24 -21 2 -17 -1 -18 -12 -9 -8 7 -21 10 -29 7 -8 -3
-16 -1 -18 5 -3 7 -12 6 -28 -3 -14 -8 -38 -14 -55 -15 -16 0 -91 -8 -165 -17
-74 -9 -187 -21 -250 -27 -63 -6 -297 -28 -520 -50 -404 -39 -973 -91 -1190
-110 -63 -5 -194 -16 -290 -24 -423 -37 -1040 -70 -1675 -91 -88 -3 -275 -10
-415 -15 -140 -6 -457 -13 -705 -16 -405 -5 -451 -8 -457 -23 -5 -13 -7 -11
-7 6 -1 23 12 30 74 35 19 2 30 9 30 18 0 13 -30 22 -137 39 -4 1 -3 15 2 32
11 36 4 59 -19 60 -9 1 8 5 38 9 51 8 79 26 63 42 -4 4 -51 18 -106 32 -54 14
-100 27 -103 30 -8 7 17 76 28 76 5 0 9 19 9 42 0 41 0 42 -16 20 -8 -12 -12
-27 -8 -34 5 -8 2 -9 -10 -5 -10 4 -27 7 -39 7 -20 1 -20 2 -4 11 9 5 17 19
17 29 0 15 7 20 28 20 15 0 38 7 50 16 24 16 30 59 10 67 -10 4 -9 8 2 16 9 6
13 23 12 45 l-3 35 93 4 c51 2 109 7 128 9 19 3 58 9 85 12 28 4 61 13 74 19
23 11 23 14 18 99 -7 104 -19 132 -52 124 -13 -3 -27 -1 -30 5 -4 6 -13 8 -21
5 -7 -3 -16 -1 -19 4 -4 6 -22 10 -41 10 -19 0 -34 4 -34 8 0 13 -97 31 -182
34 l-78 3 0 90 c0 50 4 105 10 124 5 19 11 64 12 101 2 53 -1 72 -15 87 -12
14 -17 37 -17 80 0 56 3 64 30 86 29 25 30 28 30 111 0 69 3 86 15 86 20 0 48
45 41 67 -6 19 5 155 23 281 l11 73 -42 82 c-22 45 -54 101 -70 125 -16 24
-27 50 -24 58 3 9 2 12 -5 9 -12 -8 -51 24 -44 36 3 4 0 11 -6 15 -8 4 -9 3
-5 -4 7 -12 -16 -20 -64 -23 -47 -4 -55 1 -72 44 -24 56 -23 75 5 98 l22 19
-26 23 c-16 14 -31 44 -42 84 -24 88 -48 113 -109 113 -40 0 -53 -5 -73 -26
-14 -15 -25 -30 -25 -35 0 -4 -3 -16 -6 -26 -7 -19 -6 -19 46 47 15 20 19 21
20 8 0 -9 -5 -20 -10 -23 -22 -14 -8 -24 32 -22 40 2 44 -1 60 -32 9 -19 15
-37 13 -41 -5 -9 -96 7 -134 22 -14 6 -29 12 -33 12 -4 1 -13 7 -20 15 -11 12
-11 13 1 6 11 -6 13 -4 8 9 -4 10 -7 20 -7 22 0 15 -19 -1 -29 -23 -15 -38 0
-98 33 -132 14 -15 26 -35 26 -44 0 -9 5 -17 10 -17 6 0 10 5 10 10 0 15 21
12 41 -6 14 -12 22 -13 38 -4 12 6 19 15 15 21 -4 6 -11 6 -19 -1 -19 -16 -40
-3 -25 15 9 11 7 14 -12 13 -13 -1 -29 -6 -35 -11 -9 -6 -13 -6 -13 2 0 6 5
11 11 11 6 0 8 9 4 20 -4 11 -3 19 2 18 4 -1 19 2 32 6 14 5 27 4 34 -3 8 -8
7 -11 -3 -11 -8 -1 1 -9 20 -19 24 -12 39 -14 48 -8 18 14 36 -6 27 -32 -3
-12 -11 -21 -16 -21 -5 0 -9 -13 -9 -30 0 -20 5 -30 15 -30 8 0 15 8 15 17 0
14 3 14 12 5 10 -10 10 -15 -1 -22 -12 -7 -12 -11 -2 -24 8 -9 10 -16 7 -16
-4 0 -1 -7 8 -15 8 -8 26 -15 40 -15 24 0 26 -4 27 -42 l1 -43 10 35 c19 70
64 79 97 20 12 -22 25 -40 27 -40 11 0 -9 46 -29 67 -11 13 -18 25 -15 28 10
11 40 -34 98 -149 62 -123 67 -136 50 -136 -5 0 -10 5 -10 11 0 16 -81 161
-87 155 -3 -2 14 -35 36 -73 50 -84 51 -99 10 -107 -39 -8 -56 5 -81 62 -10
23 -23 42 -28 42 -10 0 -1 -40 13 -57 5 -8 6 -13 0 -13 -5 0 -15 6 -22 13 -10
10 -12 -1 -11 -53 2 -86 2 -84 -15 -70 -8 7 -12 16 -9 21 3 5 0 9 -7 9 -7 0
-27 12 -43 28 l-31 27 25 -30 c14 -16 29 -35 35 -40 33 -34 52 -72 44 -92 -6
-18 -3 -23 19 -32 25 -9 26 -9 4 -10 -20 -1 -21 -3 -11 -23 12 -21 12 -21 39
12 19 24 29 29 35 20 4 -7 2 -16 -6 -21 -11 -7 -12 -11 -1 -17 10 -7 9 -12 -4
-23 -16 -12 -17 -12 -11 4 3 9 2 17 -3 17 -6 0 -10 -3 -10 -7 0 -5 -5 -15 -10
-23 -8 -12 -15 -9 -46 20 l-37 35 22 -32 c12 -18 30 -38 39 -45 9 -7 24 -22
32 -33 13 -17 11 -16 -17 3 -18 13 -35 27 -38 32 -4 6 -14 10 -23 9 -11 0 -13
-2 -4 -6 7 -3 24 -15 38 -28 21 -19 25 -35 31 -106 3 -46 9 -93 13 -104 5 -12
1 -32 -8 -50 -13 -24 -17 -26 -20 -12 -4 21 -18 22 -26 1 -5 -12 -10 -14 -20
-5 -7 6 -16 8 -19 4 -4 -3 -16 6 -28 21 -12 15 -24 24 -27 21 -4 -4 -12 20
-19 52 -27 131 -35 153 -53 143 -24 -13 -32 -48 -12 -46 11 1 18 -11 23 -39 4
-22 3 -41 -1 -43 -5 -2 -2 -24 6 -50 17 -57 17 -59 3 -45 -5 5 -19 43 -29 84
l-19 74 5 -60 c3 -33 7 -80 10 -105 4 -44 4 -44 -12 -22 -19 25 -34 29 -34 7
0 -20 -44 -20 -61 1 -12 14 -14 14 -21 -3 -5 -12 -7 -5 -6 22 1 22 6 46 11 53
6 7 10 50 11 95 l1 82 75 6 c48 4 90 14 115 28 42 22 41 22 -60 0 -27 -5 -71
-13 -97 -15 -41 -5 -47 -3 -42 10 3 9 10 16 14 16 4 0 11 16 14 35 6 28 11 35
31 35 31 0 41 16 14 23 -14 4 -18 10 -13 18 16 27 12 60 -11 85 -14 15 -22 30
-20 35 3 4 1 10 -5 14 -14 8 -13 45 1 45 7 0 5 9 -4 24 l-16 24 42 -20 c23
-12 69 -47 102 -79 42 -40 65 -55 74 -50 11 7 9 10 -6 15 -10 3 -39 27 -62 51
-24 25 -58 53 -75 62 -56 28 -85 63 -51 63 8 0 19 -8 24 -19 6 -10 18 -22 28
-25 15 -6 15 -4 -3 16 -35 40 -53 75 -44 84 14 14 19 57 8 71 -5 6 -10 22 -12
35 -1 13 -8 32 -14 43 -11 17 -12 14 -8 -22 5 -37 2 -45 -27 -70 -18 -16 -38
-36 -45 -45 -21 -26 -48 -150 -64 -293 -1 -6 1 -22 5 -35 4 -16 0 -33 -12 -48
l-17 -24 -37 21 c-20 11 -43 18 -50 15 -12 -4 -28 3 -94 41 -2 1 -11 45 -22
98 l-19 96 35 93 c31 83 48 111 74 120 4 2 15 20 24 41 13 31 13 37 1 37 -8 0
-17 -11 -20 -25 -4 -14 -13 -25 -21 -25 -8 0 -15 -4 -15 -10 0 -5 -4 -10 -10
-10 -5 0 -10 9 -10 19 0 19 37 51 74 65 13 4 16 10 9 17 -13 13 151 457 178
482 11 10 16 23 13 29 -4 6 -13 0 -21 -16 -7 -14 -18 -26 -23 -26 -6 0 -10 -5
-10 -11 0 -11 -156 -435 -167 -452 -3 -5 -10 -3 -15 7 -13 23 -20 21 -71 -18
-25 -19 -49 -31 -53 -28 -4 4 -4 1 0 -6 8 -14 -18 -62 -34 -62 -5 0 -9 67 -9
149 l-1 149 30 -11 c23 -9 33 -8 42 1 9 9 6 12 -14 12 -15 0 -30 5 -33 10 -4
6 -11 8 -16 5 -8 -5 -10 3 -9 43 0 4 8 7 18 7 20 1 72 33 89 55 6 8 14 12 17
9 8 -7 -13 -69 -23 -69 -14 0 -31 -49 -20 -56 6 -3 8 -12 5 -20 -3 -9 1 -14
12 -14 15 -1 15 -2 -2 -15 -13 -10 -17 -18 -10 -25 7 -7 24 3 52 30 55 53 79
100 52 100 -5 0 -10 -6 -10 -14 0 -8 -9 -24 -19 -37 l-19 -24 5 27 c4 20 1 30
-11 34 -9 3 -13 10 -10 15 3 5 10 7 15 4 5 -3 6 1 3 9 -3 9 -2 16 4 16 6 0 13
-6 15 -12 4 -10 6 -10 6 0 1 6 9 12 19 12 11 0 37 20 60 45 60 66 61 68 12 60
l-42 -7 7 43 c4 24 13 65 20 91 12 47 12 47 -14 52 -14 3 -47 7 -73 8 -27 1
-48 5 -48 10 0 10 -8 9 210 13 149 3 487 22 745 41 239 18 976 89 1025 99 14
3 99 15 190 26 91 11 197 24 235 29 151 19 969 141 1070 160 62 11 93 12 80 2
-5 -4 -15 -15 -20 -25 -15 -28 -83 -49 -119 -37 -36 13 -45 12 -26 0 11 -7 1
-10 -35 -11 -40 -1 -44 -3 -21 -8 26 -5 28 -7 13 -20 -10 -7 -17 -18 -17 -23
0 -5 7 -2 16 6 8 9 18 16 22 16 4 0 -5 -12 -20 -25 -16 -13 -28 -29 -28 -35 0
-5 -5 -10 -11 -10 -6 0 -20 -11 -31 -25 -10 -13 -36 -30 -56 -36 -36 -10 -38
-13 -34 -46 3 -25 7 -31 13 -22 7 11 9 10 9 -3 0 -9 -5 -20 -10 -23 -5 -3 -10
-24 -10 -46 0 -27 -4 -39 -14 -39 -8 0 -16 7 -18 17 -3 15 -4 15 -17 0 -12
-15 -11 -17 3 -17 10 0 16 -9 16 -25 0 -22 -4 -25 -40 -25 -38 0 -40 -2 -40
-30 0 -29 -2 -30 -45 -30 -53 0 -85 -25 -85 -67 0 -23 2 -25 11 -13 8 12 9 7
6 -17 -3 -27 0 -33 15 -33 14 0 18 8 18 40 l0 40 40 0 c29 0 40 -4 40 -15 0
-11 11 -15 40 -15 22 0 40 5 40 10 0 6 18 10 40 10 28 0 40 4 40 14 0 8 14 28
31 45 30 30 33 31 120 31 72 0 89 3 89 15 0 11 11 15 40 15 22 0 40 5 40 10 0
6 18 10 40 10 29 0 40 4 40 15 0 11 11 15 40 15 36 0 40 3 40 25 0 22 4 25 39
25 23 0 41 -5 44 -12 3 -9 10 -8 26 6 28 25 27 36 -4 36 -16 0 -25 6 -25 15 0
12 16 15 80 15 47 0 80 4 80 10 0 6 18 10 40 10 29 0 40 4 40 15 0 11 11 15
40 15 36 0 40 3 40 25 0 23 4 25 40 25 29 0 40 4 40 15 0 11 11 15 40 15 29 0
40 -4 40 -15 0 -22 162 -22 180 0 11 13 5 15 -44 15 -43 0 -56 3 -56 15 0 13
24 15 160 15 100 0 160 4 160 10 0 6 33 10 80 10 64 0 80 3 80 15 0 11 -11 15
-40 15 -29 0 -40 4 -40 15 0 12 16 15 80 15 47 0 80 4 80 10 0 6 47 10 120 10
100 0 120 3 120 15 0 11 -11 15 -40 15 -29 0 -40 4 -40 15 0 13 20 15 120 15
73 0 120 4 120 10 0 6 33 10 80 10 79 0 80 0 80 -25 0 -22 4 -25 40 -25 l40 0
0 55 0 55 80 0 c64 0 80 -3 80 -15 0 -11 -11 -15 -40 -15 l-40 0 0 -55 0 -55
40 0 c29 0 40 4 40 15 0 11 11 15 40 15 29 0 40 4 40 15 0 12 16 15 80 15 l80
0 0 -55 0 -55 120 0 c100 0 120 3 120 15 0 11 11 15 40 15 29 0 40 -4 40 -15
0 -12 16 -15 80 -15 64 0 80 -3 80 -15 0 -12 16 -15 80 -15 64 0 80 3 80 15 0
12 16 15 80 15 64 0 80 3 80 15 0 13 24 15 160 15 l160 0 0 25 c0 23 4 25 40
25 l40 0 0 320 0 320 -320 0 c-207 0 -320 -4 -320 -10 0 -5 -5 -10 -11 -10 -5
0 -8 4 -4 10 3 6 -403 9 -1100 10 -608 0 -1105 -3 -1105 -8 0 -5 -18 -19 -41
-31 -37 -21 -39 -24 -22 -36 17 -13 17 -15 -7 -32 -14 -10 -28 -17 -32 -15 -5
1 -8 -2 -8 -6 0 -5 -9 -19 -19 -31 -14 -16 -18 -32 -14 -59 6 -46 -9 -60 -90
-87 -31 -10 -62 -24 -68 -32 -6 -7 -17 -13 -24 -13 -16 0 -27 -27 -15 -35 5
-3 25 -3 45 1 39 7 46 -4 14 -24 -15 -10 -24 -11 -32 -3 -15 15 -103 14 -130
-1 -12 -6 -32 -20 -43 -32 -12 -12 -34 -32 -49 -46 -27 -24 -27 -24 -6 -32 63
-24 67 -26 46 -27 -11 0 -76 -11 -145 -25 -145 -29 -620 -106 -830 -136 -181
-25 -192 -27 -315 -45 -55 -9 -152 -22 -215 -30 -63 -7 -203 -25 -310 -39
-717 -92 -1874 -166 -1965 -124 -20 9 -31 8 -50 -2 -14 -7 -25 -19 -25 -27 0
-7 -4 -13 -10 -13 -5 0 -7 7 -4 15 4 8 1 15 -5 15 -6 0 -11 17 -11 40 0 22 5
40 10 40 6 0 10 -4 10 -8 0 -5 6 -9 13 -9 7 0 14 14 15 31 2 17 8 33 14 37 6
4 8 14 5 22 -3 8 -1 19 4 24 5 5 5 23 -1 43 -14 48 -13 97 3 103 8 3 6 7 -7
12 -11 5 -21 3 -26 -5 -9 -15 -107 -7 -124 10 -8 8 8 9 57 4 47 -5 67 -3 67 5
0 6 7 11 15 11 8 0 20 9 27 20 7 11 20 20 28 21 10 0 8 5 -7 16 -24 16 -30 47
-12 58 6 4 9 28 8 53 -3 37 0 47 16 54 16 6 14 7 -7 3 -17 -3 -32 1 -42 11
-19 18 -21 45 -3 41 6 -1 12 4 11 11 -1 6 -2 21 -2 31 -1 11 -10 27 -19 36 -9
10 -17 25 -18 35 -2 27 -24 50 -49 50 -12 0 -27 10 -35 22 -12 19 -11 23 3 33
10 8 14 19 9 30 -5 15 -2 17 15 13 27 -7 35 3 26 37 l-6 25 -414 0 -414 0 0
-25 c0 -14 8 -29 20 -35 11 -6 18 -16 14 -21 -3 -6 3 -24 15 -40 11 -15 21
-37 21 -49 0 -11 5 -20 10 -20 6 0 10 -16 10 -35 0 -24 -6 -37 -20 -45 -20
-11 -28 -50 -10 -50 6 0 10 -8 10 -17 -1 -16 -2 -16 -15 1 -8 11 -15 30 -15
43 0 13 -4 23 -10 23 -5 0 -10 7 -10 15 0 17 -14 19 -40 5 -13 -7 -21 -7 -25
0 -3 5 3 10 14 10 28 0 26 12 -5 41 -32 29 -74 93 -74 112 0 20 -55 57 -85 57
-16 0 -25 6 -25 15 0 13 -257 15 -2255 15 l-2255 0 0 -593z m4745 273 c4 -16
11 -32 16 -35 5 -4 9 -19 9 -35 0 -19 10 -38 27 -54 15 -14 24 -28 20 -32 -3
-4 -2 -15 3 -25 20 -36 -32 -42 -102 -11 -43 18 -43 18 -23 115 9 40 18 82 21
95 6 29 21 20 29 -18z m763 -593 c-5 -11 -7 -29 -4 -40 3 -12 6 -82 7 -154 l2
-133 36 -5 c20 -4 44 -8 54 -10 9 -2 17 0 17 5 0 4 -22 10 -50 14 -27 4 -50
12 -50 17 0 6 7 8 16 5 9 -3 34 -6 55 -6 38 0 40 -2 37 -27 -2 -22 -9 -29 -30
-31 -16 -2 -28 -9 -28 -18 0 -22 -16 -17 -34 12 -18 27 -43 28 -38 0 2 -9 -2
-16 -8 -16 -5 0 -10 9 -10 20 0 11 -2 20 -4 20 -2 0 -12 3 -22 7 -14 5 -16 2
-11 -17 4 -16 0 -31 -10 -42 -8 -9 -17 -36 -18 -60 -3 -28 -1 -37 6 -28 5 8 9
12 9 8 0 -3 3 -14 7 -24 5 -12 3 -15 -6 -9 -7 4 -16 4 -20 -1 -3 -5 -28 -15
-56 -22 -65 -17 -77 -30 -73 -80 3 -40 3 -40 25 -23 l22 18 -21 22 c-11 12
-18 23 -17 24 2 1 14 8 26 15 34 18 76 15 101 -8 27 -25 28 -40 5 -40 -14 0
-15 -2 -5 -9 12 -7 11 -25 -5 -84 -3 -11 -11 -16 -19 -13 -8 3 -14 2 -14 -2 0
-5 -6 -17 -14 -27 -13 -18 -14 -18 -10 10 l4 30 -12 -25 c-6 -14 -13 -26 -14
-28 0 -1 -11 1 -24 6 -25 9 -49 77 -50 139 0 17 -4 35 -10 38 -5 3 -43 7 -82
9 -42 1 -85 8 -101 17 l-28 15 38 18 c22 9 43 16 49 15 5 -1 16 1 24 4 8 3 26
7 40 9 20 2 25 9 26 36 1 17 -2 32 -6 32 -5 0 -25 23 -45 51 -33 47 -35 53
-23 79 9 22 15 26 25 18 10 -8 13 -6 13 6 0 10 -5 14 -11 11 -6 -4 -9 3 -7 20
2 20 -2 28 -15 30 -9 2 -15 -1 -11 -6 3 -5 -2 -9 -10 -9 -13 0 -14 5 -6 26 6
14 8 30 4 35 -3 5 0 9 6 9 7 0 10 7 6 15 -3 8 -2 15 2 15 5 0 19 -33 31 -72
29 -93 57 -147 90 -175 24 -20 25 -22 10 -40 -9 -10 -14 -24 -12 -32 4 -9 0
-11 -16 -6 -12 4 -21 2 -21 -4 0 -6 4 -11 9 -11 5 0 23 -13 40 -29 38 -35 61
-44 81 -31 12 8 9 10 -12 10 -16 0 -28 5 -28 10 0 6 13 10 29 10 17 0 32 4 35
9 3 5 3 37 -1 71 -6 59 -7 62 -31 57 -18 -3 -26 0 -29 14 -4 14 -11 17 -37 12
-21 -4 -28 -2 -21 4 14 14 94 23 101 12 3 -5 -1 -9 -8 -10 -10 0 -10 -2 -1 -6
14 -5 36 13 46 40 3 9 11 17 17 17 6 0 8 -5 5 -11 -7 -11 22 -49 37 -49 13 0
9 37 -6 52 -7 8 -16 27 -19 43 -3 17 -8 41 -11 55 -5 21 -5 22 3 5 9 -19 10
-19 10 2 1 12 -3 24 -9 28 -6 4 -6 15 0 31 12 31 13 44 1 26 -7 -11 -9 -11
-14 2 -4 10 -1 16 9 16 9 0 14 6 11 13 -2 6 -11 11 -18 10 -9 -2 -15 5 -15 17
0 11 4 20 8 20 4 0 8 -4 8 -10 0 -5 5 -10 10 -10 6 0 10 7 10 15 0 19 29 34
61 32 23 -2 25 -5 17 -20z m-186 -835 c-9 -6 -3 -14 22 -27 28 -15 32 -21 23
-36 -8 -13 -7 -27 6 -56 24 -55 24 -74 2 -87 -10 -6 -26 -20 -35 -30 -22 -25
-40 -13 -41 27 0 34 -17 84 -19 57 0 -10 -6 -7 -20 10 -26 33 -27 64 -1 34 17
-22 18 -21 17 39 -1 41 3 62 11 62 6 0 15 3 19 8 4 4 12 7 18 7 6 0 6 -4 -2
-8z m114 -369 c33 -16 35 -20 30 -53 -2 -19 -8 -100 -12 -180 -7 -155 -23
-212 -64 -225 -11 -3 -20 -13 -20 -20 0 -8 -9 -19 -20 -25 -16 -9 -20 -8 -20
5 0 8 -4 15 -9 15 -4 0 -6 -12 -3 -26 7 -38 -20 -26 -29 12 -4 16 -16 48 -28
71 -15 30 -21 59 -20 100 1 32 4 47 6 33 10 -57 21 -36 28 57 6 92 10 115 35
213 10 38 13 40 50 40 22 0 56 -8 76 -17z m532 -95 c-6 -18 -19 -42 -29 -54
-11 -11 -16 -24 -12 -28 4 -4 9 -26 10 -49 1 -23 5 -60 9 -83 3 -22 1 -58 -5
-78 -10 -38 -7 -52 24 -106 l15 -25 0 33 c0 30 2 32 38 32 20 0 42 -4 48 -8
13 -9 11 -50 -5 -80 -7 -13 -13 -46 -14 -73 -1 -47 -9 -61 -22 -39 -8 14 -58
13 -73 -2 -8 -8 -8 -17 -1 -30 6 -12 9 -67 7 -134 -1 -63 0 -114 3 -114 11 0
20 103 18 192 -2 81 -1 83 21 80 42 -5 53 -22 46 -72 -4 -25 -11 -77 -16 -117
-10 -83 -33 -135 -55 -127 -8 4 -17 -1 -21 -10 -3 -9 -11 -16 -17 -16 -5 0 -3
8 6 18 11 12 13 22 7 32 -8 13 -10 13 -10 -1 0 -15 -50 -43 -95 -52 -11 -3 -3
-5 17 -6 20 0 40 -5 43 -11 8 -13 -145 -13 -165 0 -12 7 -8 10 15 10 l30 0
-31 19 c-69 42 -78 67 -90 252 -5 91 -5 97 15 102 24 6 25 47 1 47 -12 0 -13
2 -1 9 7 5 11 13 7 19 -3 5 1 15 9 22 8 7 15 29 15 48 0 28 -3 33 -12 24 -16
-16 -29 -15 -27 1 3 25 -3 72 -8 55 -3 -11 -10 -15 -21 -11 -14 6 -15 4 -4 -9
7 -9 12 -20 10 -24 -1 -5 2 -24 6 -42 6 -26 4 -38 -9 -52 -10 -11 -21 -18 -25
-15 -8 5 -34 266 -35 349 0 33 5 61 11 63 10 3 33 -90 37 -149 1 -16 7 -27 12
-25 11 2 11 23 0 85 -5 27 -4 42 3 42 6 0 16 -33 22 -72 13 -74 39 -165 40
-139 0 8 -4 28 -9 45 -6 17 -17 78 -26 136 -9 58 -19 113 -22 123 -4 16 -2 17
16 5 12 -7 21 -17 21 -23 1 -5 9 -20 20 -33 19 -23 22 -23 77 -11 70 14 134
49 157 84 23 36 37 32 24 -7z m247 -378 c15 0 31 -78 27 -136 -2 -27 2 -47 12
-56 17 -18 40 -207 31 -260 -7 -41 -44 -79 -79 -81 -14 -1 -26 -4 -26 -8 0 -9
-74 -7 -94 3 -14 8 -17 7 -11 -2 5 -8 3 -11 -6 -8 -18 6 -14 85 12 196 11 46
17 88 13 93 -3 6 0 16 6 24 10 12 10 25 1 61 -10 38 -9 56 4 100 9 31 24 58
35 64 10 5 22 20 26 32 l7 23 15 -23 c8 -12 20 -22 27 -22z m-871 -166 c3 -9
6 -39 6 -68 0 -81 21 -218 37 -242 18 -29 -2 -44 -22 -18 -11 15 -15 16 -15 4
-1 -8 -10 17 -20 55 -10 39 -25 96 -34 128 -19 70 -21 143 -3 150 24 10 45 7
51 -9z m176 -172 l0 -169 -25 -11 c-22 -10 -29 -7 -66 29 l-42 40 -5 140 -5
139 72 0 71 0 0 -168z m90 78 c0 -28 20 -45 20 -17 1 35 18 -26 25 -87 7 -67
34 -133 61 -149 26 -15 4 -34 -41 -34 -42 0 -45 2 -45 26 0 14 -11 60 -24 101
-50 159 -50 158 -36 175 21 25 40 18 40 -15z m224 -629 c44 -31 66 -66 49 -81
-4 -4 -48 -10 -98 -13 -102 -7 -121 1 -131 51 -4 21 -1 38 12 57 17 24 24 26
71 21 36 -3 66 -14 97 -35z m36 24 c0 -10 10 -15 34 -15 19 0 47 -5 63 -12 15
-6 35 -10 45 -9 9 1 19 -3 23 -9 11 -18 23 -11 18 10 -8 31 11 47 51 42 43 -5
53 -28 26 -57 -15 -16 -31 -22 -58 -20 -52 3 -54 4 -47 15 3 6 -1 10 -9 10 -8
0 -17 -8 -19 -17 -4 -15 -6 -15 -12 5 -11 34 -22 26 -21 -15 1 -30 -4 -40 -21
-48 -33 -14 -29 -33 5 -27 15 2 32 9 38 13 7 6 17 2 26 -9 24 -28 29 -52 12
-59 -8 -3 -14 -15 -12 -27 3 -20 0 -21 -94 -18 -112 3 -131 -12 -30 -24 37 -4
59 -9 50 -11 -11 -3 -18 -14 -18 -29 0 -13 -4 -25 -10 -25 -5 -1 -16 -2 -22
-3 -8 0 -15 -21 -18 -51 -6 -58 -13 -71 -39 -78 -15 -3 -21 2 -27 22 -4 14 -6
31 -5 38 1 6 -3 14 -9 18 -5 3 -10 10 -10 14 0 11 50 44 65 44 7 0 10 11 7 24
-5 25 -22 32 -22 8 0 -21 -32 -35 -94 -39 -31 -3 -60 -7 -64 -10 -5 -3 -24 -7
-43 -10 l-34 -4 4 45 c2 34 8 47 22 50 33 9 20 23 -21 23 -29 0 -40 4 -40 15
0 19 46 38 77 32 16 -3 23 2 27 19 8 30 37 45 73 38 22 -4 28 -11 30 -32 2
-37 -14 -62 -40 -62 -20 -1 -20 -2 -4 -11 31 -18 49 -6 63 41 10 34 10 46 1
52 -7 4 5 8 28 8 64 0 84 9 87 39 5 39 -13 78 -39 90 -13 6 -21 16 -18 21 9
15 25 12 25 -5z m-302 -264 c7 -4 12 -23 11 -42 -1 -19 1 -44 5 -55 4 -14 1
-27 -9 -38 -11 -11 -12 -16 -4 -16 7 0 10 -2 7 -5 -3 -3 -18 -1 -33 5 -22 8
-30 8 -37 -2 -6 -10 -10 -7 -14 10 -7 23 -19 29 -29 12 -11 -19 -23 -10 -35
25 -8 26 -8 39 1 56 l12 23 18 -23 c18 -22 19 -23 19 -3 0 12 -10 28 -21 36
-21 14 -21 15 12 19 61 7 84 7 97 -2z m-102 -166 c4 -8 16 -15 29 -15 29 0 47
-22 43 -52 -3 -25 -11 -26 -85 -13 -50 9 -61 -9 -13 -20 17 -4 30 -13 30 -21
0 -19 -4 -18 -50 11 -44 28 -55 21 -15 -9 14 -10 25 -27 25 -38 0 -10 7 -21
16 -25 32 -12 -16 -25 -112 -30 -107 -5 -124 2 -124 51 0 58 42 89 98 74 38
-11 70 5 43 21 -20 13 -4 51 22 51 12 0 31 7 41 15 25 19 45 19 52 0z m578
-55 c7 -7 6 -10 -2 -10 -7 0 -27 -16 -46 -36 -18 -19 -44 -36 -57 -38 -14 -1
-30 -6 -37 -10 -7 -4 -30 -8 -52 -8 -26 0 -39 -5 -37 -12 2 -6 17 -11 33 -11
16 0 35 -4 42 -8 6 -5 12 -4 12 1 0 14 202 32 220 20 11 -7 10 -8 -7 -5 -27 6
-29 1 -8 -19 21 -22 19 -52 -6 -59 -11 -4 -42 -4 -70 0 -36 5 -49 11 -49 23
-1 15 -2 15 -14 -1 -8 -11 -22 -16 -37 -13 -13 3 -27 5 -31 5 -5 1 -8 7 -8 15
0 16 -21 26 -55 26 -28 0 -33 13 -29 69 3 45 7 53 27 57 7 2 32 10 57 18 48
15 137 13 154 -4z m-271 -13 c11 -1 15 -6 11 -17 -3 -8 -8 -29 -11 -47 -7 -39
-36 -48 -120 -38 -56 6 -117 39 -110 60 2 5 19 21 38 34 31 21 41 22 104 16
39 -4 78 -7 88 -8z m528 -115 c4 -4 9 -16 11 -27 2 -14 -2 -20 -14 -19 -10 1
-18 -3 -18 -8 0 -7 -17 -9 -42 -5 -24 3 -51 2 -61 -2 -34 -13 3 -28 77 -33 71
-4 101 -23 94 -58 -4 -16 -61 -18 -138 -7 -19 3 -43 6 -53 6 -14 1 -16 6 -11
29 4 15 12 30 18 34 8 5 7 8 -1 8 -7 0 -13 10 -13 23 0 13 -5 28 -12 35 -9 9
-8 12 6 12 9 0 15 4 12 9 -4 5 0 12 6 15 17 7 131 -3 139 -12z m-886 -52 c3
-5 14 -10 24 -10 10 0 28 -11 41 -25 38 -41 19 -58 -80 -72 -99 -14 -112 -10
-104 26 11 43 24 61 44 61 11 0 20 6 20 13 0 8 4 7 10 -3 8 -13 10 -12 10 3 0
18 25 24 35 7z m379 -59 c12 -13 15 -27 11 -41 -7 -21 -11 -22 -145 -18 l-137
3 15 -23 c18 -28 6 -44 -14 -18 -10 14 -14 16 -14 5 -1 -11 -4 -10 -14 4 -12
15 -11 23 5 55 23 44 40 49 180 51 83 1 98 -2 113 -18z m-16 -103 c30 -25 5
-47 -78 -68 l-73 -19 -39 32 c-39 31 -38 48 1 27 18 -9 21 -8 21 8 0 35 21 43
90 36 36 -3 71 -11 78 -16z m-227 -47 c23 -22 20 -44 -11 -84 -18 -23 -24 -24
-54 -16 -19 5 -59 7 -88 5 -78 -6 -88 4 -43 45 20 19 44 37 53 41 32 13 70 8
76 -9 5 -13 9 -14 19 -3 9 10 9 14 -2 17 -11 5 -11 7 0 14 20 13 28 11 50 -10z
m4149 -15 c0 -19 -23 -33 -28 -18 -2 8 -9 9 -22 2 -10 -5 -26 -7 -34 -4 -9 3
-16 2 -16 -4 0 -6 5 -12 12 -14 6 -2 8 -10 4 -17 -5 -7 -14 -10 -22 -7 -8 3
-14 -1 -14 -9 0 -7 -8 -16 -17 -18 -12 -3 -7 -7 16 -12 l34 -8 -24 -18 c-20
-15 -43 -19 -138 -19 -63 0 -111 -3 -107 -7 4 -4 24 -8 44 -8 20 -1 60 -3 87
-4 l50 -3 -55 -9 c-52 -8 -198 -4 -209 6 -2 3 7 5 20 5 13 0 31 5 39 10 10 7
-9 10 -63 10 -78 0 -78 0 -98 34 -17 29 -26 34 -71 39 -36 5 -54 3 -60 -6 -4
-6 -8 -8 -8 -3 0 5 -7 3 -15 -4 -9 -7 -15 -8 -15 -2 0 6 -13 7 -35 2 -19 -4
-37 -4 -40 1 -11 16 -31 -2 -45 -39 -13 -36 -14 -36 -20 -12 l-7 25 -8 -27
c-6 -22 -13 -28 -36 -28 -32 0 -35 6 -15 32 9 13 16 14 24 6 6 -6 15 -8 19 -3
5 4 2 10 -4 12 -20 7 -16 18 21 59 l34 38 189 9 c103 4 256 11 338 16 257 13
295 13 295 -3z m-3374 -8 c10 -11 11 -69 1 -75 -5 -3 -13 1 -18 8 -7 12 -10
12 -18 1 -4 -8 -27 -16 -50 -19 -60 -8 -50 -23 15 -23 61 0 65 -14 7 -25 -21
-4 -44 -12 -51 -17 -21 -18 -43 20 -39 67 2 22 0 52 -4 68 l-8 27 79 -3 c44
-2 82 -6 86 -9z m1124 -49 c14 -4 20 -7 13 -8 -7 -1 -10 -7 -7 -14 2 -7 -4
-24 -16 -37 -22 -26 -27 -76 -7 -83 6 -2 -3 -11 -20 -21 -29 -14 -56 -16 -230
-10 -109 4 -207 7 -218 7 -11 1 -29 -2 -40 -6 -19 -6 -20 -3 -17 31 2 23 -3
44 -12 57 -15 19 -16 18 -6 -9 6 -16 9 -35 6 -43 -8 -21 -47 -16 -53 7 -3 11
-10 20 -15 20 -5 0 -6 5 -2 12 4 6 -1 17 -10 24 -10 7 -17 16 -17 21 1 4 -9 8
-21 8 -30 0 -26 -28 8 -62 13 -13 22 -28 19 -33 -4 -6 -90 -7 -113 -1 -2 1 8
12 22 25 15 13 26 32 26 42 -1 15 -4 14 -15 -7 -20 -37 -40 -42 -53 -14 -8 18
-8 26 4 35 8 7 14 18 14 24 0 7 38 11 120 12 71 0 128 5 142 12 34 17 445 27
498 11z m-2875 -43 c-5 -28 -3 -46 4 -50 16 -10 14 -26 -4 -26 -8 0 -22 -12
-31 -27 -10 -16 -28 -44 -41 -64 -13 -20 -21 -42 -18 -51 3 -8 -8 -27 -30 -46
-39 -36 -40 -36 -23 5 6 15 10 34 9 41 -1 8 7 16 17 19 24 6 34 37 19 52 -8 8
-7 11 5 11 45 0 43 62 -3 85 -38 20 -125 20 -133 0 -7 -20 -46 -19 -46 1 0 10
-7 14 -22 12 -22 -3 -23 -8 -26 -106 l-3 -103 -36 3 -36 3 3 85 c1 47 3 95 3
108 1 17 6 22 19 19 10 -3 24 2 31 13 12 17 17 20 37 20 6 0 10 5 10 10 0 6
-9 10 -19 10 -11 0 -23 5 -26 10 -4 7 55 10 170 10 l176 0 -6 -44z m2929 -12
l-7 -36 26 17 c38 25 145 24 188 -1 33 -20 34 -21 35 -90 l0 -69 -3 68 c-2 40
-8 65 -13 62 -6 -4 -10 -99 -10 -231 0 -138 -4 -223 -9 -219 -6 3 -13 26 -17
51 -4 28 -13 48 -25 54 -16 9 -20 5 -29 -31 -7 -26 -18 -43 -30 -46 -11 -3
-22 -14 -26 -25 -8 -25 16 -85 27 -67 5 9 10 4 14 -14 8 -32 -2 -68 -14 -49
-12 19 -47 -21 -55 -62 -17 -91 -23 -20 -25 287 -1 204 -6 336 -12 342 -7 7
-9 -78 -8 -253 1 -144 -1 -265 -5 -269 -6 -6 -7 43 -8 350 l-1 149 -25 -7
c-24 -6 -25 -5 -18 35 6 41 33 89 49 90 4 0 5 -16 1 -36z m-2777 -60 c13 -4
20 -10 17 -15 -3 -5 2 -9 12 -9 12 0 15 -6 10 -22 -3 -13 -6 -29 -6 -35 0 -7
-5 -13 -10 -13 -6 0 -21 -9 -33 -21 -14 -13 -31 -19 -46 -16 -13 3 -37 1 -52
-3 -16 -5 -41 -5 -56 0 -24 7 -15 15 11 11 4 -1 17 1 27 4 15 5 18 12 14 28
-4 14 -3 17 2 10 12 -17 109 -31 99 -15 -4 7 -16 12 -27 12 -13 0 -18 4 -13
12 4 7 3 8 -4 4 -6 -4 -23 -4 -37 0 -21 5 -24 11 -19 28 4 11 11 27 16 34 11
13 58 16 95 6z m7217 -9 c-3 -7 -1 -16 5 -20 12 -7 14 -47 5 -81 -4 -16 -11
-19 -35 -16 -20 3 -28 9 -25 18 3 7 1 16 -5 19 -5 4 -12 -1 -15 -9 -5 -14 -62
-16 -505 -16 l-499 0 0 38 0 39 113 7 c128 8 881 8 903 -1 9 -3 14 2 14 15 0
14 7 20 24 20 16 0 23 -5 20 -13z m-5666 -27 c37 -1 45 -2 22 -5 -57 -6 -81
-13 -75 -22 3 -5 1 -20 -4 -33 l-10 -23 -2 25 c-1 14 -2 30 -2 37 0 6 -6 9
-13 6 -9 -3 -12 -15 -9 -32 5 -22 4 -23 -4 -6 -9 18 -10 18 -10 -7 -1 -21 -7
-28 -28 -32 -69 -13 -111 -15 -143 -8 -29 6 -36 13 -38 36 -2 17 0 26 7 22 5
-4 8 -13 4 -21 -3 -8 0 -15 7 -15 8 0 10 8 6 23 -5 21 -1 25 33 35 47 15 91
15 125 2 22 -8 28 -6 39 10 6 11 18 18 25 15 8 -3 39 -6 70 -7z m859 -95 c31
-32 52 -104 40 -136 -5 -13 -65 -34 -123 -44 -27 -4 -43 16 -49 62 -3 20 -7
41 -10 45 -2 4 2 15 9 25 12 17 14 17 34 -3 11 -11 17 -24 14 -28 -4 -4 -1 -4
6 0 11 6 7 15 -14 37 -30 32 -44 36 -44 15 0 -7 -6 -19 -14 -25 -8 -7 -13 -21
-11 -32 4 -21 -10 -26 -18 -6 -9 24 4 66 19 60 8 -3 14 -1 14 4 0 12 35 53 44
53 4 0 4 -4 1 -10 -3 -5 1 -10 9 -10 10 0 13 6 10 15 -12 29 49 14 83 -22z
m-3697 -667 c0 -349 2 -641 6 -649 6 -17 -23 -23 -163 -33 l-92 -7 -3 94 c-6
174 13 1074 22 1083 7 7 10 -54 10 -165 0 -118 3 -169 10 -159 6 9 10 91 9
192 0 97 3 184 8 192 12 22 102 78 114 71 6 -4 7 -225 5 -578 -3 -315 -1 -554
3 -532 l8 40 2 -40 c2 -35 4 -37 10 -15 4 14 11 272 14 573 4 302 9 553 13
558 21 35 24 -40 24 -625z m4722 405 c-1 -27 1 -31 7 -16 6 15 10 1 16 -50 4
-38 10 -64 12 -57 7 18 62 15 70 -4 3 -9 0 -20 -8 -25 -10 -6 -10 -9 -1 -9 7
0 12 -14 12 -34 0 -42 9 -68 21 -60 6 3 9 -19 7 -55 -2 -35 1 -63 7 -65 5 -2
2 -5 -7 -5 -12 -1 -18 -9 -17 -23 1 -17 2 -19 6 -5 10 37 19 13 22 -58 1 -48
-1 -75 -8 -75 -6 0 -11 14 -11 30 0 41 -20 38 -21 -2 -1 -20 -3 -25 -6 -13 -2
11 -11 47 -19 81 -16 67 -17 80 -7 71 11 -12 31 13 26 33 -3 12 1 22 11 26 9
3 16 13 16 20 0 12 -5 11 -27 -3 -15 -10 -24 -13 -20 -6 5 7 -1 21 -13 33 -16
16 -19 25 -11 34 8 10 6 20 -9 37 -12 15 -19 19 -20 10 0 -11 -5 -10 -20 4
-14 13 -20 31 -20 64 0 25 -4 62 -9 81 -5 19 -12 60 -16 90 l-6 55 22 -34 c15
-21 22 -47 21 -70z m3656 -33 c3 -73 2 -78 -18 -78 -22 0 -23 -1 -14 -24 3 -9
10 -13 15 -10 13 8 11 -10 -3 -24 -7 -7 -9 -12 -4 -12 12 0 -17 -23 -52 -42
-34 -18 -53 -8 -32 17 10 12 9 15 -4 15 -8 0 -23 12 -33 28 -9 15 -19 29 -21
32 -2 3 -10 -4 -18 -14 -8 -11 -14 -15 -14 -9 0 7 5 15 10 18 21 13 8 20 -29
17 -32 -3 -40 0 -46 17 -7 23 -26 31 -81 33 -22 1 -42 6 -46 12 -5 8 -8 7 -8
-1 0 -10 -44 -13 -184 -13 -153 0 -185 2 -190 15 -3 9 -12 12 -22 8 -12 -4
-15 -3 -10 5 4 7 18 12 32 12 36 0 29 20 -8 22 -61 3 -93 5 -100 8 -5 1 -12 3
-16 4 -10 1 -42 32 -42 40 0 4 210 5 468 4 l467 -3 3 -77z m-6145 15 c-4 -10
-14 -24 -22 -31 -9 -8 -10 -10 -3 -7 7 4 21 -3 33 -16 22 -26 24 -39 6 -39 -7
0 -17 -8 -24 -18 -9 -15 -26 -19 -104 -21 l-94 -2 -17 32 c-24 42 -23 47 15
63 31 14 31 14 7 17 -14 1 0 5 30 9 34 4 60 3 68 -3 10 -8 16 -7 23 4 7 11 9
11 9 -3 0 -25 23 -22 50 7 28 30 32 31 23 8z m-981 -76 c-21 -9 -23 -17 -20
-60 l3 -48 -32 6 c-17 3 -34 1 -38 -5 -3 -5 0 -10 7 -11 7 -1 -3 -5 -22 -10
-45 -12 -100 -3 -100 16 0 21 -13 18 -28 -5 -14 -24 -62 -28 -62 -5 0 8 -5 15
-11 15 -5 0 -8 -4 -5 -9 10 -15 -25 -22 -42 -9 -8 7 -18 13 -21 13 -3 0 -6 20
-6 44 0 39 3 45 23 46 17 1 21 -2 17 -13 -3 -9 0 -19 7 -23 9 -6 9 -11 -1 -23
-21 -25 -3 -19 27 9 15 14 35 24 44 21 11 -2 20 4 24 17 6 18 7 19 16 3 5 -9
6 -26 3 -39 -5 -16 -4 -18 4 -8 8 12 12 10 22 -12 14 -31 39 -36 39 -8 0 20
-23 45 -33 34 -4 -3 -10 2 -13 11 -4 11 0 24 10 34 15 15 16 15 16 -6 0 -22
10 -28 24 -14 4 4 13 7 19 7 18 0 19 23 0 28 -10 2 -4 3 13 2 17 -2 46 0 65 5
19 4 43 8 54 8 18 1 18 -1 -3 -11z m3317 -32 c7 -15 14 -42 15 -59 0 -17 7
-38 15 -46 9 -10 10 -15 2 -18 -6 -2 -11 -8 -11 -13 0 -17 21 -9 45 19 l24 27
-9 -34 c-5 -18 -18 -40 -29 -48 -22 -15 -18 -43 5 -43 18 0 18 -8 -1 -26 -8
-9 -15 -20 -15 -25 0 -14 28 -11 33 4 3 8 6 8 9 -3 63 -197 77 -233 76 -195
-1 22 -7 45 -13 50 -10 8 -22 44 -62 179 -5 15 -2 17 14 12 21 -7 24 0 23 64
-1 19 -6 40 -12 47 -5 7 -8 20 -4 28 3 8 1 15 -5 15 -6 0 -7 5 -4 10 9 15 25
2 25 -21 0 -10 5 -18 12 -16 12 2 14 -4 17 -44 0 -11 6 -17 11 -14 6 3 10 -3
10 -14 0 -11 5 -23 10 -26 6 -4 8 -11 4 -16 -3 -6 2 -75 12 -154 l18 -144 -22
-19 c-12 -11 -22 -23 -22 -28 0 -5 -20 -9 -44 -9 -25 0 -42 4 -39 9 4 5 -1 7
-10 3 -10 -3 -17 -2 -17 4 0 5 -12 7 -27 4 -16 -3 -44 -8 -64 -10 -52 -6 -63
-9 -70 -19 -4 -5 -12 -7 -18 -5 -7 3 2 20 20 42 22 27 26 37 15 37 -9 0 -16
-4 -16 -10 0 -5 -5 -10 -11 -10 -6 0 -1 14 11 30 12 17 17 30 12 30 -6 0 -12
-6 -15 -12 -3 -8 -16 0 -35 21 l-30 35 1 -27 c1 -15 6 -27 10 -27 5 0 5 -5 1
-11 -5 -8 -9 -7 -15 4 -8 13 -14 13 -42 4 -17 -7 -42 -22 -53 -34 l-22 -22 -5
25 c-5 26 8 43 16 22 3 -10 10 -8 25 5 11 11 24 17 29 14 4 -2 18 16 29 40 22
45 9 56 -13 12 -7 -13 -13 -18 -13 -11 0 6 -6 11 -12 10 -10 -2 -14 22 -16 92
-1 61 1 90 7 81 8 -12 12 -13 25 -2 9 8 15 21 14 30 -2 10 5 17 19 19 20 3 21
8 17 50 -9 81 -9 85 2 89 6 2 14 -5 17 -17 3 -13 10 -18 21 -14 9 3 16 2 16
-4 0 -6 8 -8 19 -5 10 3 22 0 25 -6 12 -19 33 -1 30 27 -2 15 -1 19 2 10 3
-10 12 -18 20 -18 11 0 10 10 -6 53 -24 62 -23 60 -7 55 6 -3 18 -17 26 -33z
m3184 -37 c4 -10 8 -9 16 2 8 12 14 13 30 3 12 -8 22 -9 26 -3 3 5 22 0 43
-11 49 -27 65 -43 30 -30 -17 6 -29 7 -33 1 -4 -6 0 -10 8 -10 8 0 22 -9 32
-20 10 -11 13 -20 7 -20 -6 0 -13 4 -16 9 -3 4 -23 6 -43 2 -63 -11 -118 -7
-115 7 3 16 -4 15 -39 -5 -44 -26 -46 -8 -5 42 39 47 51 54 59 33z m-5509 -42
c9 -19 16 -39 16 -45 0 -15 -33 -27 -98 -34 -48 -6 -54 -4 -62 16 -5 12 -9 16
-9 9 -1 -7 -5 -10 -11 -7 -5 3 -10 1 -10 -5 0 -7 9 -14 20 -17 28 -7 25 -23
-5 -23 -21 0 -25 5 -25 29 0 17 -4 32 -10 36 -15 9 11 55 34 60 12 3 37 6 56
8 86 9 87 9 104 -27z m-2886 -88 c1 -56 4 -104 7 -106 7 -7 86 -6 138 2 37 6
48 11 46 24 -1 9 3 31 10 47 11 27 14 29 25 13 14 -19 32 -25 21 -8 -3 6 -1
10 4 10 16 0 13 -16 -4 -34 -8 -8 -15 -30 -15 -48 0 -39 -13 -63 -29 -54 -7 5
-11 -4 -11 -23 0 -17 5 -31 10 -31 6 0 16 -12 23 -26 l12 -27 5 23 6 23 15
-24 c14 -22 13 -26 -8 -46 -21 -20 -23 -20 -23 -4 0 10 -9 26 -20 36 -11 10
-20 24 -20 31 0 13 -37 44 -53 44 -12 0 8 -32 44 -68 17 -18 29 -35 26 -38 -3
-3 -26 14 -50 39 -25 24 -57 47 -71 51 -31 8 -35 -8 -6 -26 11 -7 20 -18 20
-25 0 -7 5 -13 12 -13 6 0 27 -10 45 -22 27 -19 33 -29 33 -60 0 -31 -4 -38
-22 -42 -59 -13 -72 -11 -85 14 -7 14 -16 25 -20 26 -4 0 -16 4 -25 8 -23 10
-38 0 -38 -26 0 -14 -5 -18 -15 -14 -9 3 -15 0 -15 -9 0 -9 -10 -15 -25 -15
-14 0 -28 -7 -31 -15 -4 -9 -19 -15 -40 -15 -24 0 -34 -5 -34 -15 0 -8 -9 -15
-20 -15 -17 0 -19 5 -15 28 4 15 8 37 11 48 2 14 -2 24 -12 28 -30 12 0 100
39 116 23 9 23 8 -29 25 -12 4 -14 12 -9 28 4 12 6 32 6 45 0 12 4 22 9 22 6
0 10 -5 10 -12 0 -9 3 -9 12 0 16 16 45 15 52 0 5 -10 7 -10 12 0 3 6 19 12
34 12 36 0 40 7 31 50 -5 27 -16 40 -44 55 -38 21 -51 40 -19 31 9 -3 30 -8
45 -12 l28 -6 -5 51 c-3 36 -1 51 8 51 9 0 13 -29 14 -102z m8128 37 c-3 -10
-12 -15 -20 -12 -28 11 -26 -8 6 -40 17 -18 28 -33 24 -33 -4 0 -14 7 -22 15
-9 8 -27 15 -42 15 l-27 0 30 -25 30 -24 -41 -1 c-22 0 -49 -7 -60 -16 -18
-15 -18 -15 6 -10 70 17 80 18 80 7 0 -6 11 -11 25 -11 30 0 33 -15 5 -30 -20
-11 -45 -48 -37 -56 2 -2 15 5 30 16 14 11 27 20 29 20 1 0 4 -25 5 -55 2 -49
0 -57 -22 -71 -27 -18 -34 -40 -10 -30 21 8 19 -11 -2 -23 -16 -9 -14 -10 8
-11 22 0 27 -5 27 -25 0 -14 -6 -25 -14 -25 -7 0 -15 -4 -18 -9 -4 -5 4 -7 16
-4 21 4 22 3 6 -10 -20 -16 -24 -37 -8 -37 6 0 10 -4 10 -10 0 -5 -11 -10 -24
-10 -19 0 -23 -4 -19 -19 2 -10 10 -18 16 -17 7 0 14 -3 17 -9 3 -6 -27 -11
-77 -13 l-83 -3 -1 118 c-1 65 -2 195 -3 288 l-1 170 49 3 c27 2 59 10 70 18
18 12 22 12 35 0 7 -8 11 -22 7 -31z m-196 -255 l0 -220 -175 0 c-133 0 -175
3 -175 13 0 6 -15 21 -33 32 l-32 20 70 2 c39 2 84 5 100 8 l30 5 -3 166 c-2
91 -1 172 2 180 4 11 30 14 111 14 l105 0 0 -220z m-6721 174 c9 -3 10 -8 3
-17 -7 -8 -6 -17 2 -30 17 -22 26 -22 26 3 0 20 24 28 34 11 4 -5 28 -12 54
-16 45 -6 49 -8 44 -31 -2 -13 -9 -27 -15 -31 -6 -4 -8 3 -3 21 3 14 3 26 -2
26 -17 0 -21 -12 -11 -36 6 -18 5 -31 -6 -48 -8 -12 -12 -26 -8 -29 12 -13 9
-57 -4 -57 -7 0 -13 10 -13 22 0 19 -2 20 -14 8 -8 -8 -17 -25 -20 -36 -6 -18
-3 -21 17 -17 30 6 55 -38 31 -57 -10 -9 -14 -9 -14 -1 0 6 -9 20 -21 32 -17
17 -23 18 -36 7 -15 -12 -15 -11 -5 9 7 12 12 24 12 26 0 6 -97 -17 -132 -32
-32 -12 -58 -5 -58 16 0 10 6 13 17 9 15 -6 14 -4 -2 14 -27 30 -26 46 2 61
18 10 29 10 43 2 19 -12 30 -8 30 13 0 7 -8 10 -20 7 -15 -4 -20 0 -20 16 0
12 6 21 15 21 8 0 15 5 15 10 0 6 -11 10 -25 10 -14 0 -24 5 -22 11 1 6 -4 14
-11 16 -8 3 -12 -1 -10 -12 2 -11 -6 -21 -20 -26 -21 -8 -22 -7 -10 12 64 105
64 105 105 101 21 -2 44 -5 52 -8z m1770 -106 c11 -11 30 -17 52 -16 42 1 81
-10 74 -23 -4 -5 3 -9 14 -9 14 0 19 -6 18 -20 -1 -11 -4 -20 -8 -20 -4 0 -15
-8 -25 -17 -18 -19 -121 -31 -151 -18 -10 5 -23 7 -30 6 -14 -2 -26 17 -31 47
-2 16 5 25 24 34 24 11 26 16 21 62 -4 49 -4 49 11 21 8 -16 22 -37 31 -47z
m651 59 c0 -4 5 -5 10 -2 6 3 19 3 30 0 21 -7 25 -30 11 -67 -5 -13 -9 -27 -9
-32 -1 -24 -71 -37 -73 -13 0 10 -2 10 -6 0 -2 -7 -9 -13 -14 -13 -6 0 -8 4
-5 9 3 5 -11 9 -32 9 -111 1 -162 12 -162 34 0 15 39 61 63 75 24 14 187 14
187 0z m3380 -15 c100 -120 104 -129 70 -172 -11 -14 -20 -31 -20 -37 0 -28
-19 -11 -26 22 -4 23 -17 43 -35 56 -37 26 -41 82 -7 100 20 11 20 13 5 24 -9
7 -17 15 -17 19 0 12 16 6 30 -12z m-7578 -30 l-22 -19 22 -16 c22 -14 21 -15
-24 -10 -26 3 -55 2 -65 -2 -16 -6 -15 -8 8 -20 21 -11 33 -12 57 -3 54 21
109 -37 67 -72 -8 -7 -15 -18 -15 -25 0 -8 -6 -16 -12 -19 -7 -4 -3 -4 10 -2
14 3 22 -1 22 -10 0 -8 -4 -14 -10 -14 -5 0 -24 -30 -41 -66 -28 -57 -34 -64
-44 -50 -7 9 -20 16 -29 16 -9 0 -16 6 -16 13 0 35 -131 57 -151 25 -9 -15
-19 -7 -23 19 -3 13 -10 17 -30 15 -16 -2 -29 3 -32 13 -4 9 -19 15 -40 15
-19 0 -34 5 -34 11 0 6 -9 9 -20 6 -24 -6 -25 5 -5 36 8 13 15 44 16 70 2 39
6 47 21 47 11 0 17 4 13 10 -3 5 -12 7 -20 3 -8 -3 -15 0 -15 5 0 13 36 25 50
17 5 -3 10 -2 10 4 0 11 46 14 245 19 128 3 129 3 107 -16z m-941 -2 c11 -1
15 -8 12 -21 -7 -26 16 -24 26 3 l8 22 5 -22 c4 -12 0 -26 -8 -33 -7 -6 -13
-22 -12 -35 2 -21 4 -22 19 -8 15 14 18 13 33 -7 15 -22 13 -39 -5 -39 -5 0
-9 7 -9 15 0 8 -4 15 -10 15 -5 0 -10 -4 -10 -9 0 -6 5 -13 10 -16 15 -9 12
-25 -5 -25 -8 0 -15 -4 -15 -9 0 -5 8 -8 17 -7 12 1 17 -7 18 -24 0 -22 -4
-25 -30 -22 -29 3 -61 22 -38 22 12 0 11 66 -1 77 -8 8 -58 -18 -69 -34 -11
-17 -32 -16 -47 2 -10 12 -16 13 -27 4 -10 -9 -20 -9 -41 1 -15 8 -31 13 -36
11 -5 -1 -15 8 -24 20 -11 17 -16 18 -23 8 -12 -19 -11 -1 2 60 10 48 12 50
47 54 31 4 153 2 213 -3z m-790 -10 c8 0 7 -146 0 -167 -1 -2 -26 -3 -56 -3
-42 0 -60 5 -75 20 -20 20 -20 20 -36 -5 -19 -29 -64 -34 -88 -9 -33 32 -11
106 33 111 9 0 53 4 99 8 79 8 82 9 82 33 0 18 4 23 16 18 9 -3 20 -6 25 -6z
m223 -22 c7 -18 16 -53 20 -78 5 -37 4 -41 -5 -25 -7 11 -12 21 -13 22 -1 1
-13 4 -27 8 -21 5 -27 2 -32 -14 -8 -32 -24 -25 -31 13 -5 28 -11 34 -30 32
-21 -1 -23 -5 -19 -33 4 -21 1 -33 -6 -33 -7 0 -11 24 -11 68 l0 67 70 3 71 3
13 -33z m4246 -339 c13 -24 14 -70 1 -50 -20 31 -24 -40 -6 -105 10 -36 15
-67 12 -71 -3 -3 0 -12 8 -20 8 -8 15 -23 15 -34 0 -38 147 -199 182 -199 7 0
23 22 36 49 29 65 28 76 -3 24 -17 -28 -31 -40 -40 -36 -19 7 -19 8 1 59 9 23
26 46 37 52 18 9 19 11 5 11 -24 1 -12 29 24 59 16 14 28 34 28 47 0 32 16 40
29 16 14 -24 -3 -76 -21 -65 -7 5 -8 3 -3 -5 4 -8 -1 -18 -14 -27 -12 -8 -21
-20 -21 -27 0 -8 3 -8 12 1 7 7 16 12 20 12 16 0 7 -67 -16 -117 l-24 -51 29
-28 c16 -15 29 -24 29 -20 0 4 4 4 10 1 10 -6 -10 -36 -20 -30 -3 2 -11 -4
-18 -11 -12 -13 -4 -14 53 -11 74 5 70 4 79 35 6 19 4 22 -18 22 -14 0 -28 -4
-31 -10 -3 -5 1 -10 9 -10 9 0 16 -4 16 -10 0 -5 -4 -10 -9 -10 -11 0 -36 30
-25 30 5 0 2 5 -6 10 -12 8 -11 13 8 33 15 16 22 36 22 65 0 23 3 43 8 43 37
7 52 5 52 -7 0 -8 7 -14 15 -14 8 0 15 -9 15 -20 0 -25 -8 -25 -33 -2 -19 16
-20 16 -14 -1 4 -11 1 -20 -8 -23 -9 -4 -14 -18 -14 -38 2 -30 2 -30 6 -3 2
15 9 25 14 21 5 -3 8 0 7 8 -2 7 4 13 12 13 10 0 15 -10 15 -30 1 -25 5 -30
35 -36 86 -18 120 -20 120 -8 0 18 -54 130 -84 174 -14 21 -31 55 -38 76 -6
21 -21 45 -33 53 -38 25 -55 47 -55 71 0 16 6 24 18 23 9 0 35 6 57 14 45 17
65 14 65 -10 0 -21 35 -116 54 -145 8 -12 14 -33 14 -47 0 -14 14 -64 31 -111
26 -71 39 -92 76 -124 25 -21 45 -46 45 -56 0 -11 5 -19 10 -19 7 0 7 -6 0
-20 -6 -11 -17 -20 -24 -20 -8 0 -19 -7 -26 -15 -25 -31 -22 -5 3 29 22 28 24
35 11 40 -8 3 -13 9 -10 14 7 12 -131 51 -211 58 -76 7 -84 3 -64 -35 13 -23
1 -39 -33 -45 -39 -7 -42 -12 -11 -20 14 -4 23 -11 20 -16 -4 -6 -10 -8 -15
-5 -5 3 -11 1 -15 -5 -4 -6 4 -10 19 -10 13 0 27 -6 29 -12 4 -9 8 -10 14 -2
4 6 29 16 55 22 57 15 61 15 53 2 -3 -5 5 -15 19 -22 14 -6 26 -15 26 -20 0
-5 8 -4 19 1 20 11 31 5 31 -16 0 -8 -11 -13 -27 -12 -16 0 -56 -5 -90 -12
-49 -10 -68 -10 -89 -1 -14 7 -30 10 -35 6 -5 -3 -9 -2 -8 3 7 38 0 42 -41 26
-37 -15 -54 -33 -30 -33 6 0 10 5 10 10 0 6 5 10 11 10 6 0 9 -7 5 -15 -3 -8
-1 -15 4 -15 18 0 11 -51 -10 -78 -19 -24 -77 -51 -109 -52 -11 0 -11 3 -1 15
10 12 10 15 -3 15 -11 0 -13 10 -9 46 5 45 3 49 -34 80 -21 19 -44 35 -51 35
-7 1 -17 2 -22 3 -14 2 -54 56 -47 63 4 4 21 2 39 -4 42 -14 178 -16 157 -3
-8 5 -27 10 -42 10 -17 0 -31 8 -38 19 -14 27 -13 34 4 28 9 -4 12 0 9 12 -3
12 5 26 21 38 l26 21 -25 0 c-18 0 -27 -7 -31 -24 -7 -29 -8 -29 -35 -6 -129
103 -158 134 -165 167 -3 19 -10 35 -15 35 -17 0 -37 64 -26 84 8 16 6 18 -8
13 -9 -4 -33 -7 -52 -7 -31 0 -34 -2 -22 -16 9 -11 9 -18 2 -22 -10 -6 -10
-33 0 -102 2 -15 16 -46 30 -71 15 -25 27 -54 27 -63 0 -12 5 -16 15 -13 21 9
31 -14 10 -25 -13 -8 -14 -12 -5 -18 7 -4 10 -14 8 -21 -3 -8 -14 5 -28 31
-12 25 -26 47 -29 50 -13 9 -61 98 -61 112 0 7 -7 26 -16 43 -15 28 -12 74 5
85 5 3 12 16 16 28 7 23 7 24 -19 6 -37 -24 -41 -13 -11 31 14 21 25 41 25 45
0 4 13 7 30 8 16 0 29 -2 28 -6 -2 -13 22 -62 30 -62 5 0 1 35 -9 78 -24 100
-23 115 3 145 24 27 43 25 58 -4z m329 -24 c13 -28 23 -62 23 -77 0 -17 5 -28
13 -28 7 0 16 -8 20 -17 18 -47 32 -117 28 -146 -3 -18 -5 -38 -6 -44 -1 -25
-17 -13 -19 15 -1 15 -3 36 -4 47 -1 11 -2 28 -3 38 -1 10 -5 16 -10 13 -9 -6
-38 53 -33 67 1 5 -2 6 -7 3 -12 -8 -41 38 -41 64 0 11 -4 20 -10 20 -5 0 -10
23 -10 51 0 43 3 50 17 47 10 -2 29 -26 42 -53z m3857 -47 c74 -83 86 -131 41
-163 -25 -17 -17 -30 12 -20 19 6 27 23 21 50 -1 6 15 -6 34 -24 20 -19 36
-39 36 -44 0 -5 8 -21 18 -35 18 -26 74 -172 85 -221 4 -14 1 -31 -6 -39 -9
-11 -4 -21 26 -49 21 -18 35 -38 32 -43 -3 -5 4 -11 15 -15 11 -3 19 -10 17
-14 -1 -5 10 -22 25 -39 14 -17 25 -33 22 -36 -2 -3 -2 -4 1 -3 3 2 20 -10 39
-27 l33 -31 -28 -29 c-25 -26 -30 -28 -47 -15 -11 8 -47 33 -80 56 -61 43
-162 148 -162 169 0 6 -7 18 -17 25 -15 13 -16 11 -9 -14 6 -24 4 -28 -11 -23
-45 13 -116 18 -109 8 3 -6 36 -14 72 -18 43 -4 72 -13 83 -24 9 -9 31 -33 49
-53 18 -20 69 -64 115 -98 45 -34 88 -69 95 -78 12 -14 12 -12 7 12 -5 17 -3
27 4 27 6 0 11 -5 11 -12 0 -16 31 -48 47 -48 20 0 16 28 -7 47 -22 19 -26 38
-10 48 6 3 14 -5 19 -19 6 -13 19 -27 30 -31 26 -8 26 -20 3 -43 -15 -15 -30
-18 -78 -14 -48 3 -57 2 -46 -9 15 -16 16 -43 2 -34 -6 4 -33 1 -60 -6 -45
-12 -52 -11 -96 12 -28 14 -51 34 -57 50 -8 20 -23 29 -75 44 -74 21 -140 25
-156 10 -46 -45 -127 -62 -140 -30 -3 8 -11 15 -18 15 -15 0 -48 35 -48 49 0
5 -5 11 -12 13 -26 9 -42 102 -43 258 -1 162 -7 193 -52 284 -32 63 -37 115
-16 163 20 46 30 23 14 -33 -7 -27 -7 -42 1 -51 11 -14 29 -18 26 -5 -1 4 1
17 6 30 8 23 26 31 26 10 0 -6 3 -8 6 -5 4 4 -1 18 -10 33 -27 40 -12 39 46
-4 72 -53 99 -59 136 -27 37 31 40 31 40 0 0 -14 7 -34 17 -45 16 -18 16 -20
-16 -39 -19 -12 -29 -21 -24 -21 23 0 76 41 73 57 -2 10 2 18 9 18 17 0 28 15
12 16 -8 1 -19 1 -24 0 -6 0 -19 14 -29 33 -20 37 -14 81 9 72 11 -4 12 0 6
17 -8 25 -4 57 9 57 4 0 29 -24 56 -52z m-3356 -268 c0 -5 -8 -10 -17 -10 -14
0 -15 -2 -4 -12 10 -11 16 -8 29 10 16 20 23 22 60 16 32 -5 47 -14 58 -33 11
-21 14 -22 12 -6 -2 15 2 19 17 17 11 -2 22 -7 25 -11 6 -8 58 -41 65 -41 3 0
5 8 5 19 0 12 9 20 25 23 14 3 25 1 25 -3 0 -5 -5 -9 -11 -9 -5 0 -7 -4 -4
-10 3 -5 -1 -23 -10 -40 -13 -26 -21 -30 -55 -30 -22 0 -40 4 -40 9 0 16 -44
18 -74 3 -30 -14 -45 -6 -46 26 0 11 -13 16 -33 13 -5 -1 -6 3 -2 9 3 5 13 10
21 10 8 0 14 5 14 10 0 17 -39 11 -56 -9 -15 -17 -18 -18 -44 -3 l-28 16 24
23 c27 24 44 30 44 13z m-2065 -170 c0 -46 -37 -59 -281 -96 -330 -49 -487
-64 -677 -65 -93 -1 -170 1 -173 4 -3 2 -6 18 -9 35 -4 36 -1 38 95 47 36 3
117 12 180 20 196 24 837 84 855 80 6 -1 10 -12 10 -25z m5892 -85 c92 -14
204 -32 248 -40 44 -8 107 -19 140 -25 130 -21 428 -102 499 -134 l28 -14 -48
-15 c-91 -28 -96 -28 -320 28 -121 31 -247 58 -281 62 -35 3 -63 10 -63 14 0
5 5 8 12 7 6 -2 14 5 16 15 2 9 -1 17 -7 17 -6 0 -11 -4 -11 -10 0 -5 -5 -10
-11 -10 -5 0 -8 4 -5 9 4 5 -5 4 -19 -2 -14 -7 -25 -15 -25 -19 0 -4 -14 -3
-31 2 -17 5 -75 12 -129 16 l-98 7 -58 58 c-71 71 -78 70 163 34z m-6000 -21
c-3 -4 4 -15 16 -26 21 -18 21 -19 2 -15 -27 5 -75 -20 -75 -38 0 -8 -7 -15
-15 -15 -8 0 -19 -9 -24 -19 -6 -11 -31 -24 -61 -32 -68 -17 -68 -41 0 -64 28
-9 50 -20 50 -24 0 -5 -29 -16 -64 -25 -63 -17 -78 -28 -103 -73 -16 -27 -18
-56 -3 -33 7 10 10 11 10 2 0 -7 13 0 30 15 23 20 27 29 19 40 -6 7 -8 13 -3
13 5 0 43 9 84 20 65 18 75 18 83 5 4 -8 18 -15 30 -15 13 0 27 -4 33 -9 5 -5
20 -11 34 -13 13 -2 30 -13 36 -26 8 -17 13 -20 17 -10 4 10 8 10 16 -2 6 -8
11 -19 11 -23 0 -13 -73 4 -93 21 -16 14 -20 14 -40 -6 l-21 -22 41 0 c26 0
43 -5 46 -14 7 -17 67 -19 67 -2 0 7 19 11 53 10 44 -2 52 -5 55 -23 3 -18 -2
-21 -30 -22 -18 -1 -41 -1 -50 0 -10 1 -18 -3 -18 -9 0 -6 -4 -9 -9 -6 -5 3
-11 -9 -15 -27 -4 -19 -2 -33 4 -35 16 -6 12 -29 -6 -36 -27 -10 -90 -7 -130
8 -94 34 -99 37 -84 47 10 6 12 11 4 17 -6 4 -14 14 -18 22 -3 9 -4 6 -2 -7 2
-12 -2 -27 -9 -33 -10 -8 -15 -4 -23 17 -10 27 -11 27 -17 6 -4 -13 -12 -23
-18 -23 -12 0 0 -14 14 -16 5 -1 13 -2 18 -3 5 0 11 -7 14 -15 5 -12 -20 -15
-151 -16 -86 -1 -161 -2 -167 -1 -5 1 -75 3 -154 6 -78 3 -146 7 -150 9 -3 2
-60 8 -126 12 -103 6 -150 10 -150 13 0 1 -54 4 -120 6 -65 3 -121 8 -123 10
-6 6 76 45 158 76 49 18 66 28 49 29 -29 0 -84 45 -74 60 3 6 0 10 -7 10 -30
1 19 20 52 21 68 1 73 7 72 88 l0 72 31 -6 c39 -8 72 -19 160 -57 90 -39 99
-28 13 14 -103 51 -106 52 -106 59 0 10 67 19 140 19 97 0 303 26 635 80 120
19 172 24 162 14z m516 -80 c16 -13 26 -24 22 -24 -4 0 1 -7 9 -16 9 -8 16
-20 16 -25 0 -13 -18 -11 -23 4 -3 6 -6 3 -6 -8 -2 -48 -53 -59 -110 -24 -27
16 -31 23 -20 30 11 7 11 9 0 9 -10 0 -12 9 -6 37 4 21 9 41 12 46 8 14 77 -5
106 -29z m2000 -42 c20 4 22 1 19 -34 l-4 -38 -78 0 c-55 0 -81 4 -90 14 -6 8
-18 12 -26 9 -8 -3 -14 0 -14 7 0 7 -7 10 -15 6 -9 -3 -15 0 -15 8 0 9 18 16
50 20 31 4 49 11 47 19 -1 7 10 13 26 15 15 2 27 -1 27 -7 0 -19 30 -12 31 7
0 12 3 11 10 -7 7 -17 15 -22 32 -19z m3602 8 c26 -6 44 -5 52 2 23 19 26 -19
4 -41 -12 -12 -21 -27 -21 -35 0 -8 -3 -23 -6 -33 -3 -10 7 4 23 31 21 37 35
50 53 52 25 2 190 -42 355 -94 l90 -28 -55 -16 c-80 -23 -547 -98 -555 -90 -2
3 0 13 6 23 12 24 1 90 -15 87 -6 -2 -11 0 -11 4 0 4 -25 33 -56 65 -98 102
-98 97 6 89 50 -4 108 -11 130 -16z m-5004 -73 c4 -5 11 -7 17 -3 6 3 14 2 17
-4 4 -6 -6 -15 -22 -20 -15 -6 -36 -24 -45 -40 -19 -33 -42 -39 -52 -15 -4 12
-11 13 -23 7 -10 -5 -22 -8 -28 -7 -5 2 -22 6 -37 9 -18 4 -28 13 -28 24 0 22
54 64 73 57 7 -3 24 -1 38 4 27 11 80 4 90 -12z m-3363 -247 c24 0 53 -6 65
-12 12 -7 40 -13 62 -13 43 -1 212 -21 258 -31 28 -6 38 -24 12 -24 -8 0 -15
-6 -15 -12 0 -10 -2 -10 -8 0 -11 16 -106 32 -124 21 -21 -14 -48 -10 -48 6 0
11 -12 15 -44 15 -24 0 -52 3 -61 6 -15 6 -15 4 -3 -15 8 -13 20 -20 30 -17
10 2 21 0 24 -5 3 -5 18 -9 34 -9 37 0 45 -24 14 -40 -13 -8 -24 -17 -24 -22
0 -15 -19 -8 -43 16 -21 21 -31 24 -68 19 -26 -3 -40 -2 -36 3 5 5 14 9 20 9
7 0 13 9 15 20 4 17 0 16 -27 -9 -38 -36 -53 -27 -23 14 31 41 27 59 -5 29
-16 -14 -40 -33 -54 -41 -14 -9 -32 -30 -39 -47 -7 -17 -18 -31 -25 -31 -7 0
-24 -9 -39 -21 -26 -21 -36 -14 -13 10 9 11 9 14 0 18 -10 3 -10 9 0 24 15 24
31 25 23 2 -4 -13 0 -11 14 6 11 13 20 32 20 43 0 10 4 17 9 13 5 -3 13 -1 16
5 4 6 15 8 25 5 10 -3 21 -1 25 5 3 5 0 10 -7 10 -10 0 -10 2 1 9 22 14 3 31
-36 31 -28 0 -33 3 -24 13 6 8 8 17 4 21 -4 4 6 0 22 -8 17 -9 49 -16 73 -16z
m3106 6 c-3 -8 5 -21 18 -30 21 -15 21 -16 3 -18 -11 0 -32 0 -47 1 -35 3 -36
-7 -2 -19 17 -7 45 -7 78 -1 34 6 55 6 64 -1 15 -13 132 -4 141 11 6 9 209 6
219 -4 2 -2 -13 -6 -34 -10 -22 -3 -55 -10 -75 -15 -20 -6 -47 -10 -60 -10
-17 0 -20 -3 -11 -12 9 -9 29 -8 84 2 54 11 73 11 76 2 2 -6 19 -14 38 -18 18
-3 31 -10 28 -15 -3 -6 -118 -7 -287 -3 -155 4 -303 7 -329 7 -27 -1 -48 3
-48 8 0 5 -12 4 -27 -2 -19 -7 -34 -7 -48 0 -11 6 -33 12 -50 13 -26 3 -30 8
-33 36 -4 37 7 44 70 45 85 1 100 -2 95 -18 -8 -20 9 -28 25 -12 7 8 18 12 23
10 6 -2 25 13 44 32 34 36 54 46 45 21z m886 -83 c0 -7 -5 -24 -12 -38 l-11
-25 -126 2 c-113 3 -126 5 -129 21 -2 10 4 27 14 38 16 17 29 19 141 17 88 -2
123 -6 123 -15z m-3683 -40 c2 -6 -7 -23 -22 -38 -29 -32 -31 -41 -10 -49 8
-3 15 -15 15 -26 0 -23 0 -23 34 -10 17 6 26 6 26 0 0 -6 -4 -10 -9 -10 -5 0
-7 -8 -4 -18 2 -10 -3 -24 -11 -31 -9 -8 -16 -19 -16 -25 0 -6 5 -4 10 4 6 9
10 10 10 3 0 -6 -5 -15 -10 -18 -6 -4 -8 -10 -5 -15 7 -11 -14 -86 -31 -115
-7 -11 -9 -29 -4 -40 5 -13 2 -25 -10 -35 -23 -21 -30 -46 -17 -60 10 -10 -1
-11 -48 -5 -33 3 -78 8 -100 11 -82 9 -96 14 -90 35 6 17 2 18 -27 12 -18 -3
-35 -8 -37 -10 -3 -2 -11 7 -18 19 l-12 23 -1 -22 c0 -14 -6 -23 -16 -23 -8 0
-12 5 -9 10 3 6 -1 10 -9 10 -8 0 -18 -5 -21 -10 -4 -6 -16 -8 -28 -4 -12 4
-33 7 -47 8 -14 1 -24 6 -23 12 1 7 -10 15 -25 19 -15 4 -29 10 -32 14 -3 4
-17 11 -32 15 -26 6 -33 0 -30 -25 1 -3 -12 -6 -29 -7 -17 0 -27 4 -23 9 3 5
0 16 -6 24 -10 12 -10 15 0 15 10 0 10 3 0 15 -7 8 -10 21 -7 29 4 10 1 13 -9
9 -7 -3 -14 -1 -14 5 0 13 20 20 43 14 14 -3 15 -7 6 -18 -17 -20 12 -19 37 2
16 13 16 15 2 10 -11 -3 -18 0 -18 8 0 8 9 16 20 19 11 3 20 2 20 -3 0 -4 11
-6 25 -5 14 2 25 -1 25 -6 0 -5 -8 -9 -19 -9 -10 0 -21 -9 -24 -20 -3 -11 -1
-20 4 -20 5 0 9 -6 9 -14 0 -8 13 -24 29 -36 l30 -21 56 37 c31 19 59 33 62
30 4 -3 1 -6 -5 -6 -14 0 -15 -10 -3 -28 9 -15 35 -5 75 31 11 9 25 17 32 17
7 0 21 3 31 7 17 6 17 6 -1 -15 -10 -11 -28 -22 -40 -24 -40 -6 -15 -23 29
-20 41 2 62 -11 33 -20 -15 -5 -1 -28 18 -28 8 0 13 6 12 13 -2 7 7 12 21 12
14 0 26 6 29 14 3 9 -2 11 -18 6 -16 -5 -21 -4 -18 6 3 8 20 15 39 17 19 2 38
8 44 13 5 5 19 9 31 9 12 0 28 8 35 18 13 15 12 16 -3 4 -13 -10 -22 -11 -37
-2 -28 14 -27 28 2 27 29 -1 50 6 60 18 4 6 11 5 16 -5 6 -8 14 -11 18 -6 4 5
3 10 -3 13 -10 3 -5 58 12 126 5 23 3 29 -14 34 -13 3 -19 10 -15 19 3 8 2 22
-2 32 -7 15 -9 14 -15 -8 -8 -25 -8 -25 -9 -2 -1 13 -5 20 -11 17 -6 -3 -7 1
-3 10 3 9 9 13 12 8 18 -24 72 -2 63 26 -3 8 1 12 9 9 7 -2 14 -9 16 -15z
m7900 5 c4 -7 8 -44 9 -81 0 -40 5 -72 12 -76 37 -23 53 -151 63 -508 1 -35 5
-43 20 -43 11 0 19 -4 19 -9 0 -5 9 -11 20 -13 16 -2 12 -8 -22 -27 -35 -20
-40 -21 -34 -6 5 13 2 16 -10 11 -11 -4 -15 -2 -11 8 8 20 -25 26 -48 10 -33
-24 -48 -18 -29 11 14 22 15 30 4 53 -12 26 -13 26 -21 7 l-9 -20 2 20 c3 39
-68 295 -72 260 -1 -5 -8 8 -17 30 -9 23 -16 80 -18 137 -2 53 -6 102 -10 108
-4 6 -23 10 -42 8 -44 -3 -63 18 -46 55 9 19 29 29 100 50 101 29 129 32 140
15z m-3051 -69 c4 -8 -35 -14 -60 -10 -21 4 -66 -12 -66 -23 0 -7 20 -24 45
-37 30 -16 41 -27 34 -34 -7 -7 -13 -5 -19 5 -5 8 -12 12 -15 8 -8 -7 -55 35
-55 50 0 18 -53 25 -66 8 -9 -13 -13 -14 -22 -3 -7 8 -33 12 -69 12 -52 0 -58
-2 -61 -21 -3 -19 3 -23 50 -30 29 -4 64 -8 77 -9 26 -2 43 -25 19 -25 -7 0
-31 -16 -52 -36 -36 -32 -40 -34 -50 -17 -5 10 -16 23 -24 29 -18 13 0 29 23
20 8 -3 17 -1 20 3 2 5 -11 11 -30 13 -35 4 -65 -17 -65 -47 0 -19 17 -28 24
-13 5 10 7 10 12 1 3 -7 12 -13 20 -13 15 0 19 -12 7 -23 -3 -4 -12 -2 -20 4
-9 9 -13 8 -13 0 0 -6 -9 -11 -20 -11 -13 0 -20 7 -20 19 0 21 -61 66 -105 77
-27 7 -29 6 -16 -9 7 -10 19 -17 25 -17 6 0 17 -4 25 -9 12 -8 12 -12 2 -24
-10 -13 -8 -16 8 -22 12 -3 25 -4 30 0 5 3 12 1 15 -4 8 -13 -23 -17 -69 -10
-22 3 -31 7 -20 8 12 2 15 5 7 8 -10 4 -10 8 -1 19 16 20 3 30 -17 13 -15 -12
-16 -11 -10 9 6 18 4 22 -12 22 -15 0 -21 -9 -25 -32 -6 -40 -2 -45 18 -28 9
7 18 11 20 8 11 -11 -25 -29 -45 -23 -15 5 -20 15 -20 41 0 28 -4 34 -21 34
-40 0 -12 25 34 30 64 8 75 21 48 57 -23 28 -13 45 13 24 9 -8 22 -8 40 -1 18
6 26 6 26 -1 0 -6 7 -8 16 -5 9 3 12 2 9 -5 -4 -6 -13 -8 -21 -5 -22 8 -44 -4
-44 -25 0 -18 54 -79 70 -79 12 0 40 48 40 69 0 11 -6 26 -14 34 -13 13 -9 14
32 13 26 -1 52 1 57 5 21 15 292 23 301 8z m2095 -29 c62 -36 68 -43 74 -81 4
-22 13 -53 21 -67 8 -15 14 -33 14 -40 0 -7 4 -11 9 -8 5 4 7 -3 4 -13 -3 -12
3 -26 15 -36 11 -10 17 -25 15 -35 -3 -10 2 -31 11 -48 8 -16 12 -32 9 -36 -4
-3 -1 -6 5 -6 6 0 11 -8 11 -17 -1 -75 25 -174 50 -193 37 -27 56 -105 24 -93
-16 6 -17 5 -3 -12 14 -17 14 -18 -9 -5 -16 8 -42 10 -74 6 -45 -5 -48 -4 -31
9 10 8 14 15 8 15 -6 0 -9 12 -6 28 3 21 -8 47 -41 98 -24 38 -55 89 -68 114
-13 25 -27 47 -30 50 -3 3 -15 32 -28 65 -12 33 -29 75 -37 94 -20 45 -27 103
-14 111 6 4 1 29 -14 68 -23 59 -22 69 8 71 6 1 40 -17 77 -39z m-2943 -100
c6 0 12 -4 12 -10 0 -5 -7 -10 -15 -10 -21 0 -19 -11 14 -74 28 -55 30 -76 4
-54 -11 9 -18 7 -31 -6 -16 -17 -16 -18 6 -11 28 8 40 -17 21 -43 -13 -15 -12
-16 3 -4 9 8 22 11 28 7 18 -11 10 -23 -20 -27 -24 -4 -30 -1 -30 14 0 10 -5
18 -11 18 -7 0 -8 -11 -4 -31 5 -22 4 -29 -4 -25 -6 4 -11 1 -11 -7 0 -21 -30
-30 -48 -15 -13 11 -15 10 -9 -5 4 -10 7 -33 7 -50 0 -21 3 -28 9 -19 6 10 10
8 14 -10 4 -12 3 -24 -1 -26 -5 -1 -7 -15 -4 -31 3 -22 8 -28 22 -24 14 4 18
0 16 -14 -2 -10 -1 -13 1 -6 2 7 10 10 18 7 7 -3 16 1 21 8 4 7 4 10 -1 6 -4
-4 -22 0 -39 9 -25 14 -27 18 -13 21 10 2 25 -2 34 -10 10 -8 14 -8 10 -1 -4
6 -4 14 1 17 5 3 17 -9 28 -27 17 -29 19 -30 22 -11 2 16 10 21 28 20 21 -1
24 -5 19 -23 -3 -13 -1 -23 5 -23 5 0 10 8 10 18 0 9 3 26 5 37 3 11 1 27 -5
35 -9 13 -11 13 -20 0 -8 -13 -10 -12 -10 3 0 9 7 17 15 17 9 0 15 9 15 25 0
14 -4 25 -10 25 -5 0 -10 7 -10 15 0 14 3 13 25 -1 20 -13 31 -14 56 -5 39 14
36 14 43 -5 4 -12 1 -14 -13 -9 -11 3 -22 1 -26 -5 -3 -5 -15 -10 -26 -10 -14
0 -19 -7 -19 -30 0 -16 5 -30 10 -30 6 0 10 5 10 12 0 6 7 3 16 -8 12 -15 15
-15 10 -2 -8 27 20 28 55 2 19 -13 39 -22 46 -20 7 3 13 -2 13 -10 0 -10 -8
-14 -24 -12 -29 3 -76 -20 -76 -39 0 -17 17 -17 23 0 3 9 7 9 20 -2 11 -9 17
-10 17 -2 0 6 -5 11 -12 11 -9 0 -9 3 0 12 10 10 14 10 21 0 4 -7 15 -10 23
-7 9 4 19 2 23 -4 3 -6 15 -11 26 -11 11 0 17 5 14 10 -4 6 -10 8 -15 5 -4 -3
-10 1 -13 8 -4 10 4 13 28 12 18 -1 38 -6 45 -10 7 -4 15 -3 19 2 9 14 79 24
87 12 3 -6 0 -10 -7 -8 -28 3 -38 -1 -33 -16 5 -11 10 -13 19 -5 6 5 15 7 19
3 3 -4 16 4 27 16 12 12 28 20 36 17 8 -3 11 -2 8 3 -3 5 -2 12 3 15 4 2 18
-9 31 -25 19 -24 26 -27 43 -18 11 6 18 7 15 2 -4 -6 8 -10 26 -10 18 -1 26 1
20 4 -18 7 -16 23 2 23 9 0 19 -8 22 -17 4 -10 11 -21 17 -25 6 -4 -5 -8 -24
-8 -301 -5 -405 -14 -396 -36 3 -9 -5 -7 -26 6 -21 13 -36 16 -44 10 -13 -12
-104 -1 -104 12 0 5 -9 4 -21 -2 -11 -6 -41 -10 -66 -9 -26 2 -48 -1 -50 -6
-3 -11 -195 -10 -230 0 -15 5 -23 3 -23 -4 0 -8 -6 -9 -18 -2 -22 12 -164 2
-173 -11 -3 -5 -9 0 -12 11 -5 21 -37 30 -37 11 0 -6 -10 -15 -22 -21 l-23
-10 23 5 c15 3 22 0 19 -7 -2 -8 -37 -13 -99 -15 -89 -2 -96 -1 -101 18 -3 14
0 20 10 20 13 0 13 3 3 15 -7 9 -10 19 -6 23 4 4 16 -4 27 -18 20 -24 20 -24
14 -2 -5 16 -2 22 8 22 9 0 17 5 19 11 6 17 48 1 48 -18 0 -14 3 -13 21 3 16
14 22 15 28 5 15 -24 53 -8 74 32 18 35 21 37 35 23 14 -14 18 -12 38 11 17
19 20 31 13 39 -7 9 -4 19 10 33 12 12 20 24 20 27 -2 10 71 94 81 94 6 0 10
-19 10 -42 0 -63 14 -77 28 -30 7 22 12 51 12 65 0 21 15 36 40 41 3 1 10 5
17 9 6 4 15 2 18 -4 4 -6 -2 -13 -14 -16 -23 -6 -27 -18 -10 -28 5 -4 19 1 29
10 22 20 47 11 29 -11 -9 -11 -8 -14 6 -14 11 0 15 -5 11 -15 -3 -8 -1 -15 4
-15 6 0 10 6 10 14 0 7 3 28 7 46 5 28 4 32 -10 27 -9 -3 -19 -3 -21 2 -7 10
40 51 49 43 3 -4 3 2 -1 12 -5 14 -4 17 4 12 7 -4 12 -5 12 -2 0 14 -45 96
-53 96 -4 0 -5 5 -1 11 3 6 16 8 28 5 11 -3 27 -6 34 -6z m-2070 -53 c6 3 12
-2 12 -11 0 -9 5 -16 10 -16 6 0 10 -5 10 -11 0 -6 -7 -9 -15 -5 -27 10 -15
-9 20 -31 38 -24 56 -16 25 12 -11 10 -20 25 -20 34 0 10 5 8 17 -9 9 -14 19
-27 23 -30 11 -10 31 -63 25 -69 -4 -3 -13 3 -21 13 -8 11 -14 16 -14 11 0 -4
-9 2 -19 14 -11 13 -25 20 -32 16 -6 -4 -15 -1 -20 6 -7 11 -11 11 -21 1 -10
-10 -10 -14 0 -21 10 -6 11 -13 1 -34 -7 -15 -16 -27 -21 -27 -4 0 -8 -13 -8
-29 0 -17 -4 -33 -10 -36 -13 -8 -35 5 -23 14 6 3 17 27 25 52 l16 47 -28 5
c-21 5 -27 12 -27 32 0 14 2 25 6 25 3 0 17 16 30 36 20 29 27 33 35 22 6 -8
17 -13 24 -11z m3286 -183 c4 -13 13 -24 21 -24 8 0 15 -7 15 -15 0 -45 95
-43 143 3 l32 31 42 -44 c24 -24 45 -39 49 -34 3 5 21 9 40 9 21 0 33 -4 29
-10 -4 -6 -11 -8 -16 -5 -5 4 -17 0 -28 -7 -23 -16 -11 -58 17 -58 27 0 44 20
30 37 -8 11 -7 12 6 7 25 -9 21 -54 -5 -54 -14 0 -19 -5 -17 -17 3 -14 14 -18
46 -19 73 -1 59 -14 -16 -14 -57 0 -72 3 -72 15 0 10 -12 16 -37 17 -21 1 -45
2 -53 4 -8 1 -21 2 -27 3 -18 1 -16 21 2 21 9 0 12 6 9 15 -5 12 -10 13 -20 4
-11 -9 -14 -9 -14 0 0 35 -61 54 -91 29 -18 -14 -59 -84 -59 -99 0 -5 11 -9
25 -9 14 0 25 5 25 11 0 8 4 9 13 0 18 -14 30 -2 16 16 -9 10 -6 13 14 11 14
-1 23 -7 20 -14 -2 -6 5 -14 16 -17 12 -3 21 -1 21 4 0 4 6 6 14 3 8 -3 23 -1
33 3 21 11 75 3 80 -12 2 -6 -33 -11 -90 -12 -50 -1 -121 -4 -157 -7 -42 -4
-60 -3 -51 3 12 8 13 12 1 26 -7 9 -19 14 -27 11 -7 -3 -13 1 -13 9 0 8 -7 15
-15 15 -8 0 -15 -4 -15 -10 0 -5 5 -10 11 -10 6 0 9 -6 6 -12 -2 -7 -13 -11
-23 -10 -25 5 -6 -14 21 -21 11 -3 4 -5 -17 -6 -28 -1 -38 3 -38 14 0 8 -7 15
-15 15 -8 0 -12 -6 -9 -14 7 -18 -15 -21 -173 -24 -95 -2 -133 0 -133 9 0 7 9
9 24 5 33 -8 56 2 49 21 -5 12 1 14 28 12 31 -3 72 4 109 18 33 13 57 17 98
17 25 0 42 5 42 12 0 23 -30 82 -45 87 -8 4 -15 13 -15 22 0 14 11 19 38 16 6
-1 12 3 12 9 0 7 8 9 20 5 16 -5 20 -2 20 18 0 20 4 23 24 20 15 -3 27 -14 30
-29z m-4213 -9 c3 -28 4 -33 11 -41 4 -4 3 -13 -3 -21 -10 -11 -15 -11 -27 -1
-13 11 -15 10 -9 -4 4 -13 -2 -23 -21 -35 -39 -25 -56 -53 -31 -53 6 0 13 9
16 19 5 19 5 19 24 0 36 -36 27 -37 -123 -26 -38 3 -72 8 -76 11 -5 3 -42 6
-83 7 -41 1 -80 7 -86 12 -7 5 -19 7 -27 4 -8 -3 -20 1 -28 10 -11 14 -10 16
15 11 15 -3 27 -1 27 3 0 5 7 6 15 3 10 -4 15 0 15 13 0 10 9 24 20 31 22 14
27 3 8 -17 -11 -11 -10 -14 0 -18 7 -3 18 -11 26 -18 7 -8 16 -11 20 -8 3 3
12 0 21 -7 12 -10 19 -10 38 2 16 11 29 13 46 6 15 -5 35 -5 52 1 15 5 31 6
35 3 4 -4 4 -1 0 6 -5 7 14 32 50 67 61 58 73 64 75 40z m550 -10 c5 4 9 1 9
-4 0 -6 7 -11 15 -11 8 0 25 -11 37 -25 12 -14 28 -23 35 -21 7 3 13 -1 13 -8
0 -8 -9 -16 -20 -19 -11 -3 -20 -9 -20 -14 0 -14 43 -9 48 5 2 7 10 12 17 12
8 0 21 7 30 16 28 28 29 6 1 -30 -14 -19 -26 -41 -26 -48 0 -8 -5 -19 -12 -26
-9 -9 -8 -12 5 -12 9 0 17 5 17 10 0 6 7 10 15 10 8 0 15 -6 15 -12 0 -10 3
-9 9 1 6 9 11 10 15 2 10 -15 26 -14 26 3 0 8 9 24 20 37 16 19 19 20 13 5 -5
-15 -3 -17 8 -10 8 4 23 7 34 6 17 -2 18 -1 5 8 -12 8 -9 9 13 4 15 -3 26 -2
25 2 -2 5 0 9 4 9 4 0 13 9 21 19 13 18 14 18 30 -4 14 -20 19 -21 46 -12 26
9 34 8 53 -9 13 -10 32 -25 42 -33 10 -7 16 -18 13 -24 -7 -11 -47 -5 -47 7 0
9 -46 8 -56 -1 -4 -4 -13 -3 -19 2 -9 8 -14 6 -18 -5 -4 -9 -13 -12 -24 -8
-10 3 -15 3 -11 -1 4 -5 37 -10 75 -12 37 -2 84 -6 103 -9 19 -2 42 0 50 6 13
9 12 10 -2 5 -10 -3 -20 -1 -23 3 -2 5 3 11 13 14 9 2 25 8 36 12 16 7 17 5
12 -16 -6 -22 -6 -23 7 -6 15 18 33 24 22 7 -3 -6 1 -7 10 -3 12 4 13 8 5 13
-7 4 -10 12 -6 18 3 6 -2 8 -13 5 -10 -3 -21 2 -24 10 -4 11 3 13 28 11 21 -1
35 3 39 11 3 10 0 12 -12 8 -15 -6 -15 -5 -3 10 12 15 11 17 -9 17 -16 0 -20
-4 -16 -15 3 -8 1 -15 -3 -15 -5 0 -11 7 -14 15 -4 9 4 19 23 28 27 14 29 13
49 -13 20 -28 20 -28 0 -45 -26 -24 -24 -33 6 -31 14 0 25 4 25 9 0 4 9 7 19
7 11 0 23 5 26 10 8 13 -11 13 -36 0 -21 -12 -22 -10 -13 14 7 18 36 21 65 6
14 -8 19 -7 19 2 1 7 10 2 21 -11 10 -13 32 -25 47 -27 24 -3 28 1 28 18 -1
11 5 23 13 26 10 3 13 -2 9 -21 -4 -18 -1 -24 9 -20 7 3 13 1 13 -5 0 -16 -26
-33 -43 -26 -8 3 -18 0 -23 -7 -4 -8 -3 -10 4 -5 7 4 12 3 12 -2 0 -15 61 -7
72 9 7 11 11 11 15 2 7 -18 30 -16 41 4 12 21 62 27 62 7 0 -9 -11 -14 -30
-14 -16 0 -30 -5 -30 -11 0 -6 9 -8 20 -4 11 3 20 2 20 -3 0 -5 19 -9 43 -9
23 -1 63 -4 88 -7 41 -5 47 -3 52 15 3 12 10 18 17 14 6 -4 8 -16 5 -28 -2
-12 -2 -16 1 -9 7 14 54 17 54 2 0 -5 7 -7 16 -3 8 3 13 12 10 19 -3 8 -1 14
4 14 6 0 10 -8 10 -18 0 -19 24 -23 48 -8 7 4 15 1 19 -9 5 -16 7 -16 15 -1
10 17 38 22 38 6 0 -5 -9 -15 -20 -22 -11 -7 -20 -20 -20 -29 0 -22 -29 -29
-129 -29 -83 0 -83 0 -77 24 8 33 -20 43 -36 13 -6 -12 -10 -24 -9 -27 1 -2
-3 -6 -9 -9 -7 -2 -10 3 -8 10 7 21 -38 39 -98 39 -50 0 -76 -12 -54 -25 5 -3
10 -1 10 6 0 7 4 8 13 2 6 -5 30 -11 52 -12 68 -3 52 -11 -25 -11 l-72 0 5 29
6 29 -107 -5 c-131 -6 -147 -10 -107 -29 17 -7 23 -13 15 -13 -44 3 -53 -1
-40 -16 10 -12 9 -15 -6 -15 -11 0 -25 4 -32 9 -10 6 -9 10 7 14 14 3 21 13
21 30 0 28 -15 44 -25 27 -4 -6 -9 -9 -13 -6 -4 2 -99 7 -212 11 -112 3 -207
8 -210 10 -3 2 -104 5 -224 7 -194 2 -219 4 -227 20 -13 24 -11 34 3 20 17
-17 31 -15 24 3 -3 8 -1 15 5 15 6 0 20 11 30 24 19 24 65 40 74 26 6 -10 -39
-40 -60 -40 -8 0 -15 -4 -15 -9 0 -10 34 -5 67 11 12 6 24 21 27 34 4 13 10
23 14 23 19 -3 22 2 8 17 -9 8 -21 12 -28 8 -8 -5 -9 -2 -5 9 3 10 2 17 -4 17
-5 0 -13 -10 -18 -22 -5 -13 -10 -17 -15 -10 -3 6 -2 13 4 17 18 11 11 21 -16
23 -29 2 -44 9 -44 22 0 4 9 6 20 3 13 -3 20 0 21 8 1 8 3 6 6 -4 2 -9 9 -15
14 -12z m5131 -47 c2 -14 10 -23 19 -22 11 1 14 -5 11 -22 -3 -16 0 -24 9 -24
10 0 13 12 11 43 l-3 42 50 2 c27 2 53 -2 56 -7 3 -6 -1 -7 -9 -4 -9 3 -16 2
-16 -4 0 -5 -6 -10 -12 -9 -31 1 -48 -4 -48 -13 0 -5 3 -9 8 -9 18 3 32 -2 32
-12 0 -6 -7 -9 -15 -6 -8 4 -17 2 -20 -3 -12 -20 29 -9 53 13 l24 22 18 -22
c20 -25 87 -32 107 -12 7 7 12 6 16 -5 5 -13 -2 -16 -41 -16 -26 0 -58 -3 -71
-7 -20 -5 -23 -3 -18 10 4 11 1 17 -8 17 -8 0 -12 -6 -9 -14 4 -11 -14 -15
-88 -21 -51 -4 -97 -6 -103 -4 -5 2 -32 0 -60 -4 -27 -3 -104 -9 -170 -12 -66
-3 -136 -9 -155 -12 -19 -4 -39 -5 -45 -3 -12 3 -73 1 -167 -5 -39 -3 -68 -2
-64 2 8 9 33 14 69 14 15 0 27 3 27 7 0 4 32 8 70 8 42 0 70 -4 70 -10 0 -7 3
-8 8 -1 8 12 20 15 71 17 29 1 42 7 50 22 11 21 11 21 7 -1 -2 -13 0 -26 5
-29 5 -3 9 7 9 21 0 16 4 24 11 20 6 -4 8 -13 5 -20 -4 -10 6 -14 35 -13 28 0
39 5 39 15 0 13 3 13 16 2 13 -10 17 -10 24 0 5 9 10 10 14 2 11 -17 23 -13
29 9 3 11 13 20 22 20 13 0 16 -6 12 -21 -4 -16 -3 -18 8 -9 8 7 19 9 25 5 9
-6 14 15 13 53 -1 15 14 16 23 0 4 -6 2 -14 -4 -16 -7 -2 -12 -8 -12 -13 0 -6
5 -7 12 -3 8 5 9 2 5 -9 -7 -19 9 -23 16 -4 4 9 8 8 16 -3 7 -10 13 -12 20 -5
7 7 3 20 -14 39 -14 16 -22 33 -19 37 10 16 23 9 26 -13z"/>
<path d="M5937 8589 c-8 -29 4 -61 19 -55 23 9 72 -45 68 -74 -3 -16 -1 -20 4
-12 7 10 11 10 22 -3 8 -10 29 -15 61 -15 37 0 49 -4 49 -15 0 -11 11 -15 36
-15 27 0 41 -7 61 -30 18 -22 31 -29 44 -25 13 4 19 1 19 -9 0 -9 5 -16 11
-16 7 0 17 -8 24 -17 12 -16 16 -16 67 0 30 9 61 17 69 17 8 0 22 8 31 19 12
15 25 17 67 13 34 -3 51 -1 51 7 0 6 17 11 40 11 29 0 40 4 40 15 0 8 4 15 9
15 15 0 71 60 71 76 0 8 5 14 12 14 9 0 9 3 1 11 -6 6 -39 13 -74 16 -35 2
-71 7 -79 10 -30 12 -36 13 -70 19 -66 10 -81 15 -76 23 3 5 -13 9 -37 9 -23
0 -52 1 -64 1 -60 3 -121 -4 -117 -11 3 -5 -7 -6 -23 -2 -35 9 -42 14 -17 15
15 0 14 2 -6 10 -40 16 -260 21 -260 6 0 -7 -3 -8 -8 -2 -12 17 -40 13 -45 -6z"/>
<path d="M743 7695 c18 -8 7 -10 -50 -13 -57 -2 -73 -6 -73 -18 0 -8 5 -12 10
-9 6 3 10 -1 10 -9 0 -13 14 -16 80 -16 64 0 80 -3 80 -15 0 -11 11 -15 40
-15 29 0 40 4 40 15 0 11 11 15 40 15 36 0 40 -2 40 -25 0 -25 -1 -25 -80 -25
-44 0 -80 -4 -80 -9 0 -10 97 -21 181 -21 l59 0 0 40 0 40 40 0 c36 0 40 3 40
25 0 23 3 24 78 28 53 3 47 3 -20 2 -75 -1 -98 1 -98 11 0 11 -37 13 -180 11
-128 -1 -173 -5 -157 -12z"/>
<path d="M880 6767 c0 -83 -14 -420 -25 -594 -5 -77 -4 -93 8 -93 8 0 18 -10
22 -22 6 -20 8 -21 12 -5 3 10 10 16 16 14 8 -3 11 -30 8 -87 -2 -59 0 -81 8
-76 6 4 11 38 11 82 0 83 -4 80 82 62 l58 -12 30 34 c24 29 29 44 30 90 0 30
5 89 10 130 5 46 5 82 -1 93 -7 12 -5 26 5 45 24 43 36 238 18 285 -18 47 -62
84 -110 93 -20 3 -66 15 -101 25 -35 10 -67 19 -72 19 -5 0 -9 -37 -9 -83z
m174 -72 l39 -6 -7 -90 c-8 -111 -12 -120 -42 -114 -13 3 -36 7 -50 10 l-26 6
3 97 c2 53 4 100 6 104 2 3 11 5 21 3 9 -2 34 -7 56 -10z m-34 -321 c35 -10
38 -18 39 -111 1 -94 -11 -109 -74 -97 -34 6 -35 7 -35 54 0 26 3 75 6 109 6
50 10 61 23 57 9 -2 27 -8 41 -12z"/>
<path d="M1458 6742 c-2 -4 -2 -171 0 -371 2 -352 3 -363 22 -368 18 -5 20
-14 20 -74 0 -43 4 -69 11 -69 7 0 10 20 9 53 -3 75 -2 79 18 73 18 -6 18 9
14 366 -2 205 -7 376 -11 379 -9 10 -80 19 -83 11z"/>
<path d="M1887 6533 c-4 -82 -10 -244 -14 -360 l-6 -213 36 0 37 0 -3 -50 c-2
-35 1 -50 10 -50 9 0 13 15 13 46 l0 46 58 -6 c31 -4 76 -9 98 -12 l42 -6 4
47 c4 56 7 53 -110 69 l-86 11 3 100 c1 55 4 101 5 103 2 1 45 -4 96 -13 52
-8 95 -14 96 -12 1 1 5 23 9 49 l7 46 -101 18 -101 17 0 104 c0 102 0 103 23
98 12 -2 47 -9 77 -14 31 -5 68 -13 83 -16 27 -7 27 -7 27 44 0 28 -1 51 -2
51 -2 0 -61 11 -133 25 -71 14 -137 25 -146 25 -14 0 -17 -20 -22 -147z"/>
<path d="M10116 6670 c-16 -5 -44 -24 -63 -42 -28 -27 -33 -39 -34 -77 0 -26
-4 -68 -8 -96 -10 -56 -19 -40 107 -184 53 -62 62 -77 62 -111 0 -21 -5 -51
-12 -65 -10 -23 -16 -26 -57 -23 -45 3 -46 3 -49 41 -3 36 -5 38 -35 35 -31
-3 -32 -4 -35 -59 -2 -48 1 -61 20 -84 22 -24 30 -27 87 -26 120 1 154 40 168
185 7 77 6 79 -106 204 l-78 87 4 55 c5 64 20 80 75 80 39 0 42 -3 38 -53 -2
-27 -1 -28 37 -21 21 4 39 7 40 8 1 1 4 21 7 46 4 37 1 50 -20 77 -22 29 -30
33 -72 32 -26 0 -60 -5 -76 -9z"/>
<path d="M2454 6409 c15 -460 19 -509 32 -509 7 0 15 -6 18 -12 5 -10 7 -10
12 0 3 6 14 12 24 12 16 0 17 12 14 163 -5 190 -1 189 66 -30 l41 -133 45 0
45 0 -7 228 c-6 232 -18 429 -25 436 -2 2 -21 6 -41 10 l-37 7 6 -173 c3 -95
3 -170 -1 -167 -4 4 -13 29 -21 55 -18 67 -86 288 -89 292 -2 1 -22 5 -46 8
l-43 6 7 -193z"/>
<path d="M9565 6581 c-27 -6 -31 -11 -38 -56 -5 -28 -24 -131 -43 -230 -77
-398 -76 -385 -29 -385 30 0 35 4 41 28 16 72 19 77 57 80 35 3 36 2 42 -35
10 -59 10 -60 50 -55 l37 4 -6 52 c-11 105 -37 355 -49 475 -7 69 -16 125 -22
126 -5 2 -23 0 -40 -4z"/>
<path d="M9073 6533 c-12 -2 -26 -16 -31 -31 -5 -15 -30 -83 -55 -152 -25 -69
-51 -142 -58 -162 -7 -21 -16 -38 -19 -38 -3 0 -12 21 -18 48 -7 26 -32 105
-54 175 l-41 128 -41 -3 -41 -3 -6 -96 c-4 -53 -10 -197 -14 -319 l-7 -221 38
3 39 3 6 180 c4 99 7 181 8 183 9 18 26 -25 67 -163 26 -91 51 -165 54 -165 5
0 109 274 125 328 4 12 11 19 17 16 10 -6 4 -222 -8 -321 l-5 -43 40 0 40 0 5
53 c5 42 26 523 26 590 0 17 -17 20 -67 10z"/>
<path d="M3000 6513 c0 -10 18 -119 40 -243 51 -294 57 -320 63 -326 9 -9 107
7 107 17 0 5 12 113 26 241 36 323 37 302 -8 306 -42 4 -43 1 -52 -103 -11
-116 -28 -210 -36 -194 -4 8 -18 80 -31 161 -20 129 -25 147 -43 152 -41 11
-66 7 -66 -11z"/>
<path d="M3588 6469 c-2 -5 -2 -109 0 -232 l3 -223 42 5 c40 6 42 8 45 44 l3
37 47 -1 c26 0 69 -4 95 -8 l48 -8 -3 46 c-3 45 -4 46 -38 48 -19 2 -63 6 -97
9 l-63 6 0 94 0 95 53 -6 c28 -3 71 -8 95 -11 l42 -5 0 44 0 44 -92 8 c-51 4
-112 10 -135 14 -23 5 -44 4 -45 0z"/>
<path d="M8217 6452 c-3 -4 -15 -77 -26 -162 -66 -488 -65 -470 -13 -462 26 3
30 9 35 44 6 48 13 55 52 60 29 3 30 1 39 -45 9 -48 10 -48 43 -44 19 3 36 7
39 9 2 3 -16 126 -41 274 -25 148 -48 284 -51 302 -4 29 -8 32 -39 32 -19 0
-36 -3 -38 -8z"/>
<path d="M7606 6373 c-12 -90 -26 -557 -18 -565 5 -5 64 -7 133 -6 l124 3 2
37 3 37 -92 3 -93 3 1 140 c1 77 5 197 8 268 l7 127 -35 0 c-33 0 -34 -1 -40
-47z"/>
<path d="M3617 6003 l-28 -4 3 -82 3 -82 35 -3 c34 -3 36 -5 32 -35 -2 -18 1
-48 6 -67 9 -32 10 -30 11 32 l1 67 100 -6 100 -6 -6 34 c-3 19 -7 39 -9 45
-2 6 -34 12 -77 13 -105 3 -108 4 -108 57 0 47 1 46 -63 37z"/>
<path d="M8035 5848 c-8 -27 1 -57 23 -76 19 -17 20 -21 7 -32 -8 -7 -12 -17
-8 -24 3 -6 -3 -2 -15 8 -12 11 -25 16 -29 12 -4 -4 -1 -11 7 -16 13 -8 12
-10 -2 -10 -10 0 -18 4 -18 9 0 12 -39 21 -46 10 -8 -14 -44 -11 -44 4 0 8 -3
7 -9 -3 -6 -8 -7 -18 -5 -22 3 -4 -5 -8 -18 -8 -18 0 -20 -2 -9 -9 8 -5 29 -8
45 -6 17 2 112 6 211 10 99 4 181 8 183 10 2 2 -3 13 -10 24 -11 18 -11 23 2
31 8 5 11 12 8 16 -4 4 -3 14 1 23 6 10 5 23 -4 34 -11 15 -14 15 -25 3 -6 -9
-9 -20 -5 -26 3 -5 2 -10 -4 -10 -5 0 -12 6 -14 13 -3 6 -6 1 -6 -12 -1 -20
-3 -21 -16 -11 -18 15 -19 7 -4 -23 l12 -22 -22 20 c-12 10 -20 27 -18 36 4
14 -3 16 -42 15 -35 -1 -47 -5 -49 -19 -6 -28 -19 -20 -36 23 -16 40 -33 51
-41 28z"/>
<path d="M8405 5840 c-3 -5 -21 -10 -40 -10 -21 0 -35 -6 -39 -16 -9 -22 -8
-24 9 -24 8 0 15 -7 15 -15 0 -9 6 -12 15 -9 8 4 15 4 15 2 0 -9 -35 -45 -50
-51 -8 -3 40 -6 108 -5 67 0 125 4 128 9 3 5 -2 9 -10 9 -14 0 -14 3 -4 21 10
17 10 23 1 26 -21 8 -63 44 -59 51 2 4 -6 7 -17 7 -12 1 -32 4 -44 8 -12 5
-24 3 -28 -3z"/>
<path d="M4608 1853 c-27 -2 -48 -8 -48 -13 0 -5 -9 -7 -20 -5 -11 2 -22 0
-25 -5 -7 -11 497 -10 511 1 6 5 24 5 41 0 44 -13 282 -14 263 -1 -8 5 -49 10
-91 10 -42 0 -79 3 -83 7 -10 10 -276 10 -276 1 0 -5 -19 -7 -42 -7 -41 1 -42
2 -13 10 22 6 15 7 -29 4 -33 -2 -62 -9 -66 -16 -5 -8 -9 -8 -11 0 -5 13 -50
19 -111 14z"/>
<path d="M3365 1779 c-73 -8 -112 -17 -285 -67 -58 -17 -172 -49 -255 -72 -82
-22 -184 -52 -226 -66 -42 -14 -80 -24 -85 -23 -5 1 -20 -3 -34 -8 -14 -6 -94
-25 -177 -42 -84 -17 -189 -43 -235 -56 -102 -31 -209 -57 -353 -86 -60 -12
-150 -34 -200 -49 -49 -15 -137 -40 -195 -54 -163 -40 -391 -106 -435 -126
-11 -5 -49 -21 -85 -34 -99 -38 -203 -82 -293 -125 -108 -51 -203 -86 -367
-136 l-135 -42 -3 -238 c-2 -188 0 -236 10 -232 45 16 255 79 313 92 90 21
177 43 238 62 26 8 87 16 135 18 75 2 104 9 212 49 69 26 218 92 332 146 114
55 213 100 219 100 7 0 49 18 94 39 44 22 124 58 175 81 148 65 155 68 327
151 89 44 164 79 168 79 3 0 62 27 131 60 69 33 128 60 130 60 10 0 289 142
294 150 3 4 15 12 28 19 28 15 28 29 0 33 -41 6 -29 26 29 48 62 24 100 35
263 79 118 33 112 31 234 78 154 59 211 95 189 117 -8 7 -64 6 -158 -5z
m-2075 -1016 c-13 -10 -70 -36 -125 -59 -190 -79 -270 -117 -287 -135 -20 -20
-72 -37 -138 -44 l-45 -5 75 36 c159 78 496 222 520 223 l24 1 -24 -17z"/>
<path d="M9490 1740 c0 -5 5 -10 11 -10 6 0 4 -7 -5 -15 -8 -8 -25 -15 -38
-15 -16 0 -19 -3 -10 -9 7 -4 -11 -6 -41 -3 -30 2 -63 -1 -73 -7 -17 -9 -15
-10 14 -11 17 0 32 -4 32 -9 0 -16 -52 -43 -86 -44 -19 -1 -29 -4 -22 -8 6 -4
27 -5 45 -2 25 4 33 2 31 -8 -2 -7 6 -15 17 -17 11 -2 31 -13 44 -23 13 -11
31 -19 40 -20 10 0 12 -2 4 -6 -27 -10 -11 -23 27 -23 22 0 40 5 40 10 0 6 -6
10 -12 11 -7 0 -3 5 10 11 21 11 28 28 16 41 -4 3 -13 0 -21 -8 -17 -17 -42
-19 -63 -5 -11 8 -8 9 13 4 19 -4 33 -1 45 9 16 15 21 17 41 17 5 0 8 8 7 17
-2 26 65 39 118 23 l41 -13 -30 -13 c-16 -7 -24 -13 -17 -14 6 0 12 -7 12 -15
0 -19 39 -19 64 0 20 15 20 15 0 30 -11 8 -14 15 -6 15 6 0 21 -9 32 -20 18
-18 18 -20 2 -29 -15 -9 -13 -10 8 -10 14 0 33 4 43 8 10 4 49 3 85 -2 37 -4
84 -10 104 -11 20 -2 47 -11 60 -20 l23 -17 -30 6 c-24 5 -27 4 -15 -5 12 -9
11 -10 -8 -5 -13 4 -29 1 -37 -5 -8 -6 -26 -10 -42 -7 l-28 4 31 2 c17 0 39
10 49 21 18 20 8 29 -12 9 -7 -7 -32 -7 -82 0 -55 7 -83 6 -116 -4 -24 -7 -46
-10 -49 -7 -4 3 -6 0 -6 -6 0 -15 11 -20 58 -28 38 -6 40 -5 35 15 -7 27 14
28 42 1 20 -19 33 -20 156 -18 l134 3 -197 113 c-108 61 -201 112 -207 112 -6
0 -11 5 -11 10 0 6 -52 10 -135 10 -83 0 -135 -4 -135 -10z"/>
<path d="M11485 980 l-200 -6 266 -1 c259 -1 309 -6 309 -33 0 -6 8 -10 18
-10 22 0 47 -36 29 -43 -7 -3 7 -3 30 -2 30 3 49 -2 66 -15 13 -10 36 -22 50
-25 33 -9 45 -25 20 -25 -12 -1 -7 -5 12 -14 28 -11 22 -13 -65 -15 -149 -3
-119 -11 43 -11 81 0 147 2 147 4 0 3 -90 50 -200 105 -195 99 -201 101 -262
99 -35 -1 -153 -5 -263 -8z"/>
<path d="M11228 753 c-126 -2 -228 -7 -228 -11 0 -4 103 -6 229 -5 214 3 291
-5 291 -26 0 -4 20 -18 45 -30 26 -13 42 -27 39 -33 -4 -7 -2 -8 5 -4 6 4 18
3 25 -3 7 -6 41 -25 74 -42 43 -21 59 -34 55 -45 -3 -7 -8 -14 -12 -15 -3 0
-67 -7 -141 -14 l-135 -13 202 2 c111 0 199 4 195 8 -8 7 -243 142 -332 191
-30 16 -59 34 -64 38 -6 5 -12 8 -15 7 -4 -2 -108 -4 -233 -5z"/>
</g>
</svg>
