<?xml version="1.0" standalone="no"?>
<!DOCTYPE svg PUBLIC "-//W3C//DTD SVG 20010904//EN"
 "http://www.w3.org/TR/2001/REC-SVG-20010904/DTD/svg10.dtd">
<svg version="1.0" xmlns="http://www.w3.org/2000/svg"
 width="1024.000000pt" height="679.000000pt" viewBox="0 0 1024.000000 679.000000"
 preserveAspectRatio="xMidYMid meet">
<metadata>
Created by potrace 1.15, written by Peter Selinger 2001-2017
</metadata>
<g transform="translate(0.000000,679.000000) scale(0.100000,-0.100000)"
fill="#000000" stroke="none">
<path d="M1 6498 c0 -174 4 -285 9 -273 9 20 9 20 9 -1 1 -11 -5 -26 -11 -32
-10 -10 -10 -15 2 -22 11 -7 12 -10 2 -10 -10 0 -12 -13 -8 -47 2 -27 5 -50 5
-52 1 -2 7 2 15 8 12 10 13 8 9 -9 -3 -13 -11 -19 -19 -16 -8 3 -14 1 -14 -5
0 -7 10 -9 25 -5 19 5 23 3 19 -9 -4 -8 -15 -15 -25 -15 -26 0 -27 -64 -2 -80
16 -10 16 -11 1 -6 -15 4 -16 -8 -16 -124 0 -102 3 -130 14 -134 19 -7 18 -26
-1 -26 -12 0 -15 -12 -13 -59 2 -54 4 -58 26 -58 18 0 23 4 19 18 -3 11 0 19
8 19 12 0 29 -40 20 -49 -3 -2 -13 -5 -23 -6 -50 -6 -50 -6 -51 -182 l-2 -167
28 -23 28 -24 -28 17 -27 16 0 -135 c0 -99 3 -137 13 -140 9 -4 9 -7 -1 -18
-15 -16 -17 -169 -2 -169 6 0 10 -7 10 -15 0 -8 -4 -15 -10 -15 -15 0 -12 -67
2 -73 10 -4 10 -6 1 -6 -10 -1 -13 -36 -13 -140 0 -130 1 -139 18 -134 11 2
25 -4 33 -14 13 -16 12 -17 -2 -5 -14 10 -20 10 -33 -3 -12 -13 -16 -37 -16
-106 0 -82 1 -89 20 -89 11 0 20 -4 20 -10 0 -5 -9 -10 -20 -10 -19 0 -20 -7
-20 -209 0 -191 2 -210 18 -214 16 -4 16 -5 0 -6 -12 -1 -18 -9 -18 -27 0 -23
2 -25 15 -14 9 7 18 10 21 7 3 -3 -3 -10 -14 -16 -20 -10 -21 -21 -21 -260 -1
-192 2 -250 11 -254 10 -4 10 -6 1 -6 -18 -1 -18 -98 0 -104 9 -4 9 -6 0 -6
-17 -1 -18 -81 -1 -81 9 0 9 -3 0 -12 -9 -9 -12 -86 -12 -286 l0 -274 63 6
c34 4 114 8 178 10 64 2 126 9 139 16 14 8 26 8 32 2 12 -12 50 -3 42 9 -3 5
5 9 18 9 13 -1 77 2 143 5 170 8 166 8 172 1 12 -12 -7 -18 -69 -23 -35 -2
-94 -9 -133 -14 -88 -13 -227 -27 -325 -34 -159 -11 -226 -16 -242 -21 -16 -5
-18 -20 -18 -125 l0 -119 38 0 c20 0 77 7 127 16 160 28 187 32 376 55 103 12
194 19 203 16 23 -9 20 -44 -5 -57 -35 -19 -22 -24 104 -37 26 -3 47 -1 47 4
0 9 294 8 309 -2 6 -3 115 -10 243 -16 269 -12 334 -19 330 -37 -1 -9 23 -11
98 -9 55 2 104 -1 109 -6 6 -6 23 -5 43 2 18 6 34 8 36 3 1 -5 21 -6 45 -1 23
4 47 9 52 9 6 1 1 5 -10 10 -14 5 -1 8 40 8 33 0 80 7 104 16 24 9 65 16 92
16 26 0 51 5 55 11 5 9 -11 10 -60 4 -46 -4 -71 -3 -81 5 -8 6 -22 10 -32 9
-34 -5 -173 13 -173 22 0 5 7 9 15 9 8 0 15 5 15 11 0 5 -5 7 -11 3 -12 -7
-29 13 -29 36 0 13 13 14 88 8 48 -3 89 -7 92 -8 3 -1 -15 -7 -39 -13 -60 -16
-69 -39 -9 -25 24 6 47 15 52 19 15 14 26 10 20 -6 -5 -12 0 -14 27 -8 19 3
40 12 47 20 15 14 36 18 28 5 -3 -5 11 -8 32 -7 l37 3 27 133 c15 74 27 135
28 137 0 2 5 0 11 -3 6 -4 8 -14 5 -22 -4 -9 -2 -11 6 -7 6 4 28 10 49 14 32
6 39 4 47 -14 6 -12 11 -15 11 -8 1 6 8 12 16 12 13 0 15 -24 14 -162 0 -90
-4 -172 -9 -183 -7 -16 -9 -17 -9 -3 -1 10 -13 19 -31 23 -36 8 -37 10 -5 38
19 16 22 26 15 37 -8 12 -10 11 -10 -7 0 -18 -7 -23 -37 -28 -62 -10 -122 -29
-117 -36 2 -4 -3 -9 -11 -13 -17 -6 -21 -46 -5 -46 6 0 10 6 10 13 0 9 2 9 9
-1 5 -9 29 -14 67 -14 32 0 83 -7 113 -15 44 -13 90 -14 261 -8 190 7 208 6
214 -10 8 -21 0 -35 -20 -35 -8 0 -14 -4 -14 -10 0 -6 27 -10 60 -10 61 0 76
11 40 30 -36 19 -21 30 43 30 34 0 69 5 77 10 10 7 -7 10 -56 10 -69 0 -72 1
-78 26 -4 14 -4 41 0 60 l6 34 69 0 69 0 0 -37 c0 -58 10 -83 36 -89 36 -9 29
-24 -10 -24 -19 0 -38 -5 -41 -10 -3 -6 -1 -10 4 -10 25 0 9 -20 -16 -21 -16
-1 -2 -6 31 -12 47 -8 60 -7 67 4 7 11 11 12 17 1 5 -8 26 -12 53 -12 62 3
527 -18 689 -30 74 -5 189 -13 255 -16 66 -4 123 -11 127 -17 3 -6 62 -12 130
-13 67 -2 162 -9 209 -15 75 -10 90 -10 119 5 18 9 38 16 45 16 6 0 20 7 31
16 18 15 18 15 -6 11 -14 -3 -36 -1 -50 3 -15 5 14 8 75 8 116 0 225 11 225
23 0 5 -50 6 -110 2 -120 -7 -277 8 -372 34 -32 9 -58 17 -58 17 -7 13 -9 106
-3 106 4 0 64 -7 133 -15 69 -7 206 -19 305 -25 99 -6 196 -16 215 -21 19 -5
51 -9 71 -9 20 0 86 -11 147 -25 61 -14 130 -25 154 -26 24 -1 54 -4 68 -9 24
-7 24 -8 -15 -24 -22 -9 -89 -41 -150 -71 -155 -76 -304 -145 -313 -145 -4 0
-23 -11 -42 -24 -19 -13 -46 -27 -59 -31 -14 -4 -70 -29 -125 -55 -56 -26
-112 -51 -126 -55 -14 -4 -68 -27 -120 -52 -155 -74 -228 -108 -360 -168 -113
-52 -251 -117 -445 -211 -38 -18 -92 -40 -120 -48 -27 -8 -95 -35 -149 -61
-106 -50 -145 -67 -162 -70 -6 -2 -67 -30 -137 -64 -70 -33 -132 -61 -138 -61
-6 0 -70 -25 -142 -56 -221 -94 -218 -93 -387 -172 -47 -22 -123 -56 -170 -77
-47 -20 -109 -50 -139 -66 -30 -16 -60 -29 -67 -29 -7 0 -14 -4 -16 -8 -3 -9
-134 -72 -149 -72 -4 0 -45 -17 -91 -39 -228 -106 -378 -177 -427 -203 l-53
-28 601 0 601 0 48 30 c27 16 54 30 59 30 15 0 141 69 186 101 22 16 44 29 48
29 5 0 30 15 56 34 27 18 68 43 93 54 25 12 72 37 105 57 33 19 107 59 165 90
92 48 164 87 250 136 14 8 34 21 45 30 11 8 40 24 65 34 25 10 52 25 61 32 8
7 21 13 27 13 6 0 23 10 39 23 15 12 44 30 63 40 80 41 99 51 175 97 44 26 90
51 101 54 12 4 29 15 39 26 10 11 24 20 31 20 19 0 113 46 135 66 12 11 37 26
57 34 43 18 80 40 170 97 36 24 71 43 78 43 6 0 17 7 24 15 7 8 23 15 35 15
13 0 25 7 29 15 3 8 12 15 20 15 8 0 21 6 28 13 7 7 49 31 93 54 174 89 301
156 312 165 6 5 47 27 90 48 146 73 293 159 293 172 0 11 92 1 100 -11 3 -4
27 -7 53 -7 71 2 75 -8 15 -43 -29 -18 -129 -81 -223 -141 -93 -59 -213 -134
-265 -166 -52 -31 -155 -95 -228 -141 -74 -47 -143 -85 -155 -86 -11 -1 -34
-16 -51 -33 -17 -17 -98 -73 -181 -124 -82 -51 -184 -114 -225 -141 -41 -27
-129 -81 -195 -120 -401 -240 -628 -381 -663 -412 -10 -9 -22 -17 -26 -17 -14
0 -261 -152 -273 -168 -7 -9 -13 -11 -13 -5 0 6 -25 -5 -56 -25 l-55 -37 420
-3 421 -2 38 25 c67 45 86 58 225 165 76 58 151 114 167 125 16 11 101 74 190
140 153 114 226 166 332 236 25 17 52 44 58 60 8 19 20 29 34 29 35 0 170 94
368 258 222 184 300 247 317 256 30 17 166 123 185 145 19 20 25 21 145 15 69
-4 128 -9 131 -11 3 -3 -5 -13 -18 -23 -12 -10 -53 -45 -90 -78 -37 -33 -107
-94 -157 -138 -49 -43 -120 -105 -156 -138 -133 -123 -220 -196 -236 -196 -13
0 -13 -3 -3 -15 11 -13 10 -15 -1 -10 -8 3 -44 -21 -84 -56 -38 -33 -122 -103
-185 -154 -63 -51 -146 -120 -183 -153 -37 -33 -90 -75 -117 -93 -27 -19 -50
-39 -50 -46 0 -6 -8 -14 -18 -17 -9 -3 -45 -32 -78 -63 -33 -32 -117 -103
-187 -158 l-127 -100 322 -3 323 -2 70 72 c38 40 150 157 250 259 185 191 241
250 430 454 132 143 227 241 241 246 5 2 50 47 98 99 49 52 100 98 115 103 14
4 68 5 120 1 l94 -5 -7 106 c-7 101 -7 106 11 96 50 -29 50 -29 48 -166 -1
-71 -3 -141 -4 -155 -2 -24 -2 -24 -13 -5 -7 11 -17 34 -23 51 l-11 32 -24
-22 c-25 -21 -275 -318 -360 -428 -25 -31 -107 -133 -183 -225 -77 -92 -155
-188 -175 -213 -21 -25 -83 -100 -139 -167 -57 -67 -103 -125 -103 -128 0 -3
99 -5 220 -5 191 0 220 2 220 15 0 9 7 18 15 21 8 4 15 10 15 16 0 5 11 24 25
42 14 18 25 38 25 44 0 7 4 12 8 12 5 0 14 11 20 24 6 13 35 55 64 94 29 38
80 109 113 157 33 48 87 124 120 169 33 45 73 106 89 135 16 29 52 86 80 126
28 40 56 80 61 89 9 14 26 15 132 9 67 -3 127 -9 134 -14 9 -5 -6 -39 -53
-121 -36 -62 -82 -144 -103 -183 -60 -116 -151 -266 -166 -277 -11 -8 -11 -11
-1 -15 10 -4 10 -7 -1 -17 -8 -6 -41 -62 -72 -123 -32 -62 -62 -113 -67 -113
-5 0 -6 -5 -3 -10 3 -6 -3 -22 -14 -36 -12 -15 -21 -31 -21 -35 0 -5 58 -9
129 -9 l130 0 74 148 c41 81 91 190 112 242 21 52 69 154 107 227 l69 133 62
-8 c34 -4 114 -7 178 -7 100 0 120 3 137 19 20 18 28 18 249 2 216 -16 307
-24 503 -46 47 -5 159 -14 250 -20 180 -12 271 -26 282 -44 6 -8 8 -7 8 2 0 7
13 12 32 12 48 0 28 9 -25 11 -27 1 -44 6 -40 12 3 6 34 7 76 3 77 -7 96 -14
76 -27 -10 -6 -10 -9 -2 -9 17 0 37 -42 56 -115 9 -33 23 -87 33 -120 9 -33
16 -68 16 -77 0 -10 3 -20 9 -23 5 -4 9 -17 9 -30 0 -13 5 -27 10 -30 6 -3 10
-15 10 -25 0 -10 8 -26 17 -36 13 -12 14 -19 6 -21 -10 -4 -10 -9 0 -25 9 -16
9 -22 -1 -25 -9 -4 -8 -12 4 -36 9 -18 23 -43 30 -57 l13 -25 172 -3 c131 -2
175 1 181 10 6 10 8 10 8 1 0 -9 57 -12 230 -13 l230 0 0 909 c0 598 -3 912
-10 916 -7 4 -6 13 1 26 13 26 5 36 -14 17 -8 -7 -12 -23 -11 -35 2 -12 -3
-24 -12 -27 -12 -4 -15 -2 -11 9 4 8 2 17 -3 20 -6 4 -10 2 -10 -4 0 -14 -31
-2 -52 20 -17 17 -17 18 0 22 12 2 5 9 -22 20 -51 22 -98 68 -87 85 6 11 11
10 24 -2 8 -9 22 -16 30 -16 9 0 17 -6 20 -12 2 -7 8 -10 12 -6 4 4 2 14 -5
23 -8 9 -8 15 -2 15 6 0 13 -8 17 -19 5 -18 70 -55 113 -64 21 -5 23 -3 21 41
-1 26 -7 53 -13 61 -8 11 -8 13 2 7 9 -5 12 13 12 82 0 97 -7 109 -70 125 -14
4 -41 16 -60 28 -19 13 -45 24 -57 25 -12 1 -30 7 -40 13 -17 10 -17 10 1 11
10 0 25 8 33 18 12 14 14 14 10 1 -5 -14 7 -16 89 -16 52 0 94 5 94 10 0 6
-33 8 -79 5 l-79 -5 20 28 c17 22 20 37 15 73 -6 43 -5 46 18 52 14 3 35 4 46
1 15 -4 19 -2 15 9 -3 8 -1 14 4 14 6 0 10 -4 10 -10 0 -5 5 -10 10 -10 6 0
10 11 10 25 0 14 -4 25 -9 25 -5 0 -12 8 -15 18 -20 51 -87 153 -97 146 -5 -3
-13 5 -18 18 l-8 23 -7 -23 c-5 -13 -5 -26 -2 -29 3 -3 -2 -12 -10 -20 -17
-17 -10 -35 11 -26 9 3 22 0 30 -7 16 -13 21 -2 8 16 -5 5 2 -1 14 -14 19 -19
21 -26 11 -42 -9 -13 -15 -16 -19 -8 -4 7 -5 16 -2 22 3 5 1 6 -5 2 -7 -4 -12
-16 -12 -26 0 -23 -28 -40 -64 -40 -21 0 -26 5 -26 25 0 19 -4 23 -17 18 -16
-6 -16 12 -1 77 1 8 -4 15 -12 15 -8 0 -16 -10 -18 -22 -2 -13 -8 -23 -13 -23
-5 0 -9 -11 -9 -25 0 -14 -4 -25 -10 -25 -5 0 -10 -12 -10 -27 0 -20 10 -36
33 -55 19 -14 34 -33 34 -42 0 -18 -22 -22 -32 -6 -10 16 -72 12 -78 -4 -3 -8
3 -26 14 -39 22 -29 58 -30 89 -2 19 18 20 17 20 -9 0 -15 5 -36 11 -48 14
-26 8 -31 -38 -32 -57 -2 -123 67 -123 128 0 19 -12 31 -56 57 -54 30 -58 31
-70 14 -12 -16 -16 -16 -31 -4 -26 20 -33 32 -28 46 5 16 -29 35 -48 27 -9 -3
-42 5 -75 19 -42 17 -59 20 -55 10 3 -8 -2 -13 -15 -13 -22 0 -32 18 -32 56 0
19 5 24 26 24 24 0 25 2 22 48 -3 43 -5 47 -28 47 -20 0 -25 5 -25 28 -1 22 4
27 22 27 16 0 23 -6 23 -20 0 -11 7 -20 15 -20 14 0 14 3 0 30 -8 16 -15 43
-15 60 0 27 3 30 20 25 10 -3 29 -1 41 5 17 10 20 9 14 -1 -6 -9 -3 -10 11 -5
10 5 24 8 29 8 182 -8 301 -15 303 -17 9 -8 -12 -74 -24 -79 -12 -4 -12 -2 -4
14 7 14 7 20 0 20 -5 0 -10 -4 -10 -10 0 -5 -5 -10 -11 -10 -5 0 -7 6 -3 13 4
6 4 9 0 5 -5 -4 -18 -3 -31 2 -26 10 -77 0 -82 -17 -2 -6 48 -22 119 -39 67
-16 129 -35 138 -44 9 -9 29 -14 51 -12 31 3 102 -11 181 -34 16 -5 18 3 18
79 0 71 -3 85 -16 83 -12 -1 -17 12 -20 61 -5 56 -3 62 12 56 13 -5 16 -3 11
10 -3 9 -2 17 3 17 6 0 10 14 10 31 0 17 -4 28 -10 24 -6 -3 -10 -1 -10 4 0 6
5 11 10 11 7 0 10 156 10 449 l0 449 -22 6 c-25 7 -63 -28 -51 -47 3 -6 1 -7
-5 -3 -6 4 -9 13 -5 21 3 10 -1 15 -12 15 -9 0 -13 -4 -10 -10 3 -5 0 -7 -8
-4 -23 8 -29 -12 -10 -32 17 -17 16 -17 -11 -10 -25 6 -28 5 -22 -11 4 -10 8
-22 9 -28 3 -14 -42 -18 -58 -5 -8 6 -19 9 -25 5 -13 -8 -13 -32 2 -41 7 -4 8
-3 4 4 -4 7 -3 12 2 12 6 0 13 -7 16 -16 10 -27 -22 -54 -63 -54 -48 0 -65 12
-56 39 5 18 2 22 -24 27 -17 4 -31 13 -31 20 0 11 -7 12 -27 7 -16 -4 -37 -6
-48 -5 -23 2 -82 3 -108 2 -10 -1 -21 -8 -24 -16 -3 -8 -11 -14 -19 -14 -8 0
-14 -5 -14 -11 0 -6 -9 -8 -20 -4 -13 4 -22 1 -26 -9 -5 -12 -17 -14 -51 -11
-25 3 -51 9 -57 14 -6 5 -13 43 -15 83 -1 40 -5 76 -7 80 -3 4 0 8 7 8 8 0 8
4 2 13 -6 6 -13 80 -17 162 -3 83 -13 303 -21 490 -48 1090 -56 1307 -51 1313
3 3 6 -21 7 -54 1 -32 4 -70 9 -84 l7 -25 12 30 c9 20 9 31 2 33 -17 6 -13 32
5 32 13 0 15 -7 11 -35 -3 -21 -2 -33 4 -30 5 4 9 2 9 -3 0 -5 19 -12 41 -15
52 -7 78 -29 60 -51 -16 -19 -7 -46 14 -46 8 0 15 -5 15 -11 0 -5 -4 -7 -10
-4 -15 9 -12 -20 7 -60 9 -19 23 -35 30 -35 7 0 13 -7 13 -15 0 -8 4 -15 10
-15 5 0 12 -11 16 -25 5 -21 12 -25 45 -25 49 0 89 -18 89 -42 0 -14 8 -18 38
-19 94 -3 142 -13 142 -30 0 -20 30 -40 49 -34 13 4 26 -2 39 -15 15 -16 28
-20 53 -17 19 2 26 2 17 0 -10 -2 -18 -10 -18 -17 0 -12 78 -26 141 -26 18 0
19 26 19 740 l0 740 -525 0 -524 0 3 -47 c1 -27 -2 -54 -7 -60 -6 -9 -4 -15 7
-19 12 -4 13 -11 6 -24 -5 -10 -8 -85 -7 -169 2 -83 0 -156 -3 -162 -10 -15
-21 91 -22 199 0 48 -1 110 -2 137 -2 28 -4 71 -4 98 l-2 47 -1129 0 c-991 0
-1130 -2 -1141 -15 -7 -8 -16 -15 -21 -15 -5 0 -9 7 -9 15 0 8 -9 15 -20 15
-11 0 -20 -4 -20 -9 0 -5 -11 -8 -25 -8 -14 0 -25 3 -25 8 0 11 -1450 12
-1464 0 -6 -5 -39 -5 -80 1 -37 5 -78 7 -90 5 -11 -2 -2 -5 22 -6 30 -1 42 -5
42 -16 0 -11 11 -15 43 -15 23 0 48 -4 56 -9 18 -11 5 -31 -20 -31 -11 0 -17
-4 -14 -10 3 -5 26 -10 51 -10 32 0 44 -4 44 -15 0 -11 13 -15 54 -15 35 0 60
-5 70 -15 8 -8 17 -15 21 -15 3 0 41 -36 85 -80 l79 -80 75 0 c43 0 78 -5 82
-11 4 -7 22 -9 49 -5 42 7 43 7 59 -33 24 -62 48 -81 101 -81 42 0 45 2 45 26
0 31 23 28 28 -4 3 -21 22 -32 22 -12 0 5 7 7 15 4 8 -4 15 -15 15 -26 0 -19
4 -20 78 -13 42 4 80 11 83 17 3 5 11 2 19 -7 11 -13 9 -15 -14 -15 -26 0 -36
-22 -16 -35 6 -3 10 -1 10 4 0 7 30 11 80 11 47 0 80 4 80 10 0 6 9 10 20 10
11 0 20 -4 20 -9 0 -21 -13 -41 -26 -41 -8 0 -14 -7 -14 -15 0 -22 66 -20 80
3 10 15 11 14 7 -5 -5 -21 -1 -23 34 -23 38 0 39 -1 39 -35 0 -31 3 -35 25
-35 23 0 25 4 25 40 0 57 27 55 33 -2 l4 -43 1 43 c1 30 6 42 17 42 11 0 15
-11 15 -40 0 -57 27 -55 33 3 l4 42 1 -42 2 -43 80 0 c73 0 80 -2 80 -20 0
-19 7 -20 120 -20 l120 0 0 25 c0 14 5 25 11 25 5 0 7 -5 4 -10 -4 -6 10 -26
30 -45 31 -30 43 -35 86 -35 42 0 49 -3 49 -20 0 -11 -4 -20 -10 -20 -5 0 -10
-9 -10 -20 0 -11 5 -20 10 -20 6 0 10 9 10 20 0 18 7 20 70 20 63 0 70 2 70
20 l0 20 20 -20 c24 -24 25 -30 4 -30 -14 0 -14 -3 -4 -15 10 -12 36 -15 116
-15 57 0 104 -4 104 -8 0 -5 38 -13 85 -18 47 -5 85 -6 85 -2 0 5 13 8 29 8
21 0 32 -6 36 -20 6 -18 15 -20 85 -20 59 0 79 -4 83 -15 8 -19 84 -58 89 -44
5 15 58 -10 58 -28 0 -8 11 -13 28 -13 21 0 24 -2 12 -10 -10 -6 -11 -10 -2
-10 6 0 11 -6 10 -12 -2 -7 7 -14 19 -16 17 -3 22 3 25 25 l4 28 8 -30 c9 -39
20 -58 33 -62 7 -3 9 5 6 19 l-5 23 21 -25 22 -25 -7 30 c-4 24 -3 27 6 15 9
-12 11 -9 6 17 -4 26 -3 31 11 26 13 -5 14 -3 3 17 -10 18 -14 20 -21 9 -6
-10 -9 -5 -9 15 l0 29 25 -29 c14 -16 25 -24 25 -18 0 6 -9 21 -20 34 -22 25
-24 30 -12 30 4 0 15 -12 24 -27 11 -17 18 -22 18 -13 0 9 -6 22 -12 30 -11
12 -10 12 4 1 14 -10 18 -9 27 6 20 35 11 6 -18 -53 -15 -32 -36 -84 -46 -114
-37 -115 -131 -260 -157 -244 -6 4 -8 2 -4 -4 3 -6 -27 -41 -70 -79 -42 -37
-93 -93 -114 -123 -21 -30 -54 -72 -74 -94 -21 -21 -59 -72 -87 -112 -53 -79
-85 -107 -168 -149 -44 -22 -58 -25 -77 -16 -26 12 -38 1 -30 -27 11 -33 -7
-45 -53 -32 -46 12 -45 10 -29 44 12 28 41 42 60 30 9 -6 9 -3 -1 9 -28 35
-111 7 -111 -38 0 -22 -11 -20 -160 29 -74 25 -201 66 -282 91 -82 25 -148 50
-148 54 0 9 -145 45 -284 72 -28 5 -60 12 -71 15 -16 4 -17 3 -5 -5 13 -10 13
-11 0 -11 -24 0 -83 19 -89 28 -3 5 -80 28 -171 50 -91 22 -176 44 -189 48
-17 5 -22 4 -17 -4 4 -7 3 -12 -3 -12 -5 0 -14 6 -18 13 -4 7 -33 19 -63 26
-30 8 -113 32 -185 54 -71 22 -150 43 -175 47 -25 3 -58 13 -75 22 -16 8 -52
21 -80 28 -27 7 -92 28 -143 47 -51 18 -97 31 -102 28 -9 -6 -124 28 -150 45
-25 16 -7 19 33 5 34 -12 38 -11 35 3 -2 13 -23 20 -83 30 -351 56 -595 114
-770 183 -273 107 -342 136 -355 149 -3 3 -24 18 -47 33 -24 15 -43 32 -43 38
0 6 -9 8 -22 3 -22 -6 -22 -6 -6 12 16 18 15 20 -7 30 -18 9 -25 9 -29 0 -2
-6 -5 -3 -5 7 -1 19 -21 24 -21 5 0 -6 -10 -22 -21 -35 l-22 -22 -23 22 c-13
12 -24 29 -24 38 0 11 -8 16 -22 15 -16 -1 -22 -7 -21 -21 1 -11 -4 -23 -10
-27 -15 -9 -33 -10 -24 -1 11 10 -13 32 -29 26 -8 -3 -14 -1 -14 5 0 11 18 11
37 -1 6 -4 14 -3 17 2 9 14 -42 23 -65 10 -15 -8 -19 -8 -15 0 4 6 2 11 -4 11
-6 0 -8 4 -5 10 3 6 -1 7 -9 4 -11 -4 -16 0 -16 11 0 11 -5 15 -14 12 -8 -3
-17 -3 -21 1 -4 4 -16 8 -28 9 -45 3 -78 11 -85 18 -4 5 1 5 11 2 18 -7 22 1
9 18 -8 12 -19 12 -46 0 -13 -6 -22 -3 -30 7 -6 8 -17 13 -25 10 -8 -3 -11 0
-7 7 4 6 1 11 -8 11 -10 0 -13 -6 -9 -17 5 -11 3 -14 -6 -8 -8 4 -17 2 -23 -6
-8 -11 -9 -11 -5 2 7 21 -38 66 -48 49 -5 -8 -11 -8 -21 1 -18 15 -18 29 1 29
10 0 14 8 12 22 -5 27 -25 35 -33 14 -3 -9 -17 -16 -31 -16 -20 0 -23 -4 -18
-20 9 -28 -8 -25 -44 9 -40 37 -53 42 -68 22 -18 -24 -16 -41 5 -35 13 5 14 4
3 -4 -8 -6 -10 -15 -6 -23 6 -9 3 -11 -9 -6 -12 5 -16 3 -13 -5 2 -7 11 -13
20 -13 9 0 17 -4 17 -8 0 -4 0 -12 0 -18 0 -6 -7 -3 -16 5 -14 14 -17 14 -30
1 -17 -17 -28 -20 -20 -6 4 5 0 11 -6 14 -10 3 -10 8 2 21 12 16 12 19 -2 27
-9 5 -20 28 -24 52 -8 41 -8 41 -14 12 -3 -16 -3 -32 1 -35 4 -3 11 -18 15
-34 7 -27 6 -28 -29 -23 -19 2 -40 0 -46 -6 -8 -8 -11 -8 -11 0 0 6 8 14 18
18 15 6 14 8 -7 19 -14 8 -19 15 -12 17 9 3 6 12 -8 30 -17 22 -19 32 -11 58
11 38 3 64 -16 57 -8 -3 -21 -9 -29 -12 -18 -7 -19 8 -3 53 10 29 10 36 -2 43
-13 8 -13 10 1 10 10 0 20 11 23 26 7 27 0 64 -13 64 -4 0 -6 45 -3 100 3 62
1 100 -6 100 -12 0 -22 -57 -22 -140 -1 -36 -4 -83 -8 -104 l-7 -39 -14 26
c-18 34 -23 34 -52 -3 -13 -16 -30 -30 -36 -30 -18 0 -16 -17 2 -24 8 -3 15
-1 15 5 0 6 5 7 12 3 6 -4 17 1 24 10 8 12 14 14 19 6 4 -7 -2 -18 -14 -26
-12 -8 -21 -21 -21 -28 0 -7 -18 -27 -40 -45 -22 -17 -40 -38 -40 -46 0 -8 -7
-15 -15 -15 -19 0 -39 -36 -24 -45 6 -4 17 1 24 11 25 33 16 -4 -11 -47 -17
-28 -24 -49 -20 -65 5 -19 0 -26 -25 -40 -24 -12 -29 -18 -18 -25 11 -7 10
-11 -6 -23 -11 -8 -24 -12 -29 -8 -6 3 -5 7 2 10 17 5 15 22 -3 22 -7 0 -18
-8 -24 -17 -5 -10 -11 -16 -13 -13 -2 3 -16 24 -32 47 -28 42 -55 61 -65 45
-8 -12 -51 -22 -51 -12 0 4 7 10 15 14 19 7 19 26 0 26 -8 0 -14 3 -14 8 3 19
-2 26 -10 13 -7 -11 -11 -10 -19 6 -8 15 -6 57 9 159 26 181 39 355 28 374 -5
9 -9 -13 -9 -57 0 -68 -2 -73 -27 -88 -23 -13 -24 -15 -6 -10 20 6 23 3 23
-22 0 -15 -7 -67 -15 -114 -8 -47 -17 -103 -19 -125 -5 -45 -24 -100 -25 -71
-1 13 -8 10 -31 -15 -17 -18 -27 -25 -24 -15 3 9 2 17 -4 17 -6 0 -12 -5 -14
-12 -6 -17 -28 0 -27 20 0 11 3 12 6 5 2 -7 9 -13 14 -13 6 0 7 5 3 11 -4 8 0
9 15 4 22 -7 30 10 9 18 -8 3 -6 6 5 6 21 1 21 6 0 31 -16 18 -18 18 -34 4
-10 -9 -22 -13 -28 -10 -5 4 -12 -3 -16 -13 -6 -19 -7 -19 -25 -4 -22 19 -60
27 -60 13 0 -6 4 -10 8 -10 4 0 8 -8 8 -18 0 -14 -7 -17 -33 -14 -39 5 -55 22
-21 22 l23 0 -25 20 c-27 21 -67 23 -62 2 1 -6 -2 -12 -7 -12 -5 0 -14 21 -20
46 -7 25 -19 57 -27 70 -9 13 -14 30 -11 39 4 8 2 17 -2 19 -26 16 -15 156 12
156 6 0 6 4 0 13 -5 6 -7 23 -3 37 5 20 12 25 33 23 30 -2 34 12 13 40 -11 14
-29 17 -100 17 -47 0 -86 -4 -86 -9 0 -13 28 -22 35 -11 14 23 23 7 13 -22 -9
-26 -8 -33 7 -45 30 -21 38 -15 31 25 -7 47 1 58 26 35 22 -20 24 -37 3 -29
-12 4 -15 -4 -15 -44 0 -28 -4 -50 -10 -50 -5 0 -10 7 -10 15 0 8 -7 15 -15
15 -9 0 -12 -6 -9 -15 4 -8 1 -15 -5 -15 -6 0 -11 5 -11 11 0 6 -9 24 -21 40
-11 16 -25 45 -30 64 l-10 34 -409 0 c-336 0 -409 -3 -414 -14 -3 -10 6 -15
32 -17 35 -3 37 -5 36 -35 -2 -35 5 -40 35 -21 11 7 16 18 13 30 -3 14 -7 16
-18 7 -9 -7 -14 -8 -14 -1 0 13 20 20 42 14 9 -2 14 -10 12 -17 -6 -15 15 -28
58 -39 23 -5 26 -3 23 17 -1 12 -6 31 -11 42 -7 20 -7 20 14 1 12 -11 22 -25
22 -31 0 -7 8 -16 17 -19 15 -6 15 -8 3 -16 -13 -8 -12 -10 3 -10 9 0 17 7 17
15 0 8 5 15 11 15 17 0 4 -24 -20 -36 -17 -9 -19 -13 -8 -22 7 -6 25 -9 39 -7
17 3 28 0 32 -10 8 -21 24 -19 31 5 3 11 13 20 21 20 18 0 18 -2 -7 -44 -11
-19 -17 -41 -13 -47 4 -7 -15 4 -42 25 -31 24 -50 33 -53 25 -2 -7 4 -18 13
-24 22 -17 20 -30 -8 -48 -19 -13 -31 -14 -61 -6 -29 8 -40 8 -46 -3 -6 -10
-11 -10 -21 0 -6 6 -8 12 -3 12 6 0 -6 10 -25 21 -22 14 -36 17 -38 10 -2 -6
-12 -11 -23 -11 -10 0 -18 3 -17 8 4 10 -77 92 -91 92 -20 0 -12 -22 17 -46
33 -29 26 -30 -63 -3 -39 11 -90 26 -115 32 -40 11 -45 15 -48 43 -2 19 3 38
12 47 9 9 16 18 16 20 0 10 -94 -1 -98 -11 -2 -7 -10 -12 -18 -12 -17 0 -18
-12 -2 -28 9 -9 9 -12 1 -12 -7 0 -15 5 -18 10 -4 6 -22 9 -40 8 -19 -1 -37 1
-41 5 -4 4 7 7 25 7 26 0 32 3 27 15 -3 9 1 18 9 21 8 4 15 11 15 16 0 7 -5 6
-13 -1 -10 -8 -17 -7 -25 1 -6 6 -15 8 -19 3 -5 -4 -2 -10 5 -12 6 -3 12 -10
12 -16 -1 -7 -9 -2 -18 9 -17 21 -27 22 -245 23 l-226 2 0 -293z m1672 130
c34 -27 50 -23 45 11 -4 25 -2 28 16 22 11 -4 28 -23 38 -42 l18 -34 -30 -14
c-16 -8 -30 -21 -30 -28 0 -7 -4 -13 -10 -13 -5 0 -10 -7 -10 -15 0 -8 -4 -15
-9 -15 -4 0 -13 -15 -19 -32 -10 -33 -10 -33 -11 16 -1 42 -3 47 -16 36 -8 -7
-15 -23 -15 -35 0 -13 -6 -37 -14 -55 -13 -32 -14 -32 -25 -13 -8 15 -8 30 0
52 20 58 4 68 -18 11 -20 -50 -22 -52 -22 -23 -1 17 -5 35 -11 38 -6 4 -10 -8
-10 -29 0 -33 -18 -53 -21 -23 -8 65 -5 123 6 132 7 6 15 22 17 35 2 15 11 26
23 29 21 4 44 29 45 49 0 7 6 19 13 26 10 11 14 6 20 -28 5 -22 18 -49 30 -58z
m7522 -406 c-3 -20 0 -54 6 -77 7 -22 11 -55 11 -73 -1 -18 3 -44 8 -58 7 -17
7 -23 0 -19 -6 4 -10 -5 -10 -19 0 -14 5 -26 10 -26 6 0 10 -8 9 -17 0 -11 -3
-13 -6 -5 -9 22 -18 13 -17 -18 2 -48 3 -50 19 -50 8 0 15 -4 15 -10 0 -5 -5
-10 -10 -10 -6 0 -5 -8 2 -19 9 -15 9 -26 1 -44 -7 -14 -9 -28 -5 -32 7 -7 9
-26 15 -142 2 -39 1 -72 -2 -71 -19 2 -22 -4 -11 -17 10 -13 9 -15 -9 -15 -17
0 -21 6 -22 38 -1 20 0 42 1 47 7 31 4 86 -5 89 -5 3 0 5 13 5 12 1 22 6 22
12 0 6 -9 9 -19 6 -18 -4 -20 2 -20 132 -2 216 -8 388 -16 401 -9 15 2 43 15
35 5 -3 8 -22 5 -43z m-69 -118 c-14 -82 -59 -355 -101 -607 -42 -253 -74
-461 -71 -464 2 -3 8 17 12 44 6 39 9 44 14 23 6 -24 32 98 75 345 59 338 113
626 114 605 2 -43 -84 -541 -144 -840 -25 -125 -32 -194 -14 -135 10 34 108
530 138 700 19 109 19 110 22 50 1 -33 2 -71 3 -85 1 -14 6 -143 10 -288 5
-144 12 -265 17 -268 5 -3 9 -1 9 4 0 5 11 10 25 10 19 0 25 -6 24 -22 0 -11
-3 -15 -6 -8 -14 36 -36 -3 -23 -45 7 -23 8 -24 9 -6 1 25 16 39 26 23 3 -5 0
-10 -7 -10 -9 0 -9 -3 2 -10 8 -5 11 -10 6 -10 -5 0 -2 -7 5 -16 12 -15 11
-16 -9 -10 -17 6 -21 4 -16 -8 4 -10 1 -16 -9 -16 -12 0 -15 -14 -15 -67 0
-54 2 -63 10 -43 5 14 7 37 4 53 -3 15 -1 27 4 27 6 0 10 -7 10 -15 0 -8 7
-15 14 -15 12 0 15 -18 14 -92 -1 -62 3 -93 10 -96 7 -2 9 -9 6 -14 -11 -18
-12 -99 -1 -168 18 -121 23 -440 6 -450 -6 -4 -13 -31 -16 -60 -4 -45 -3 -52
11 -47 13 5 16 -1 17 -26 0 -18 2 -45 4 -60 2 -18 -1 -30 -11 -34 -8 -3 -14
-9 -14 -15 0 -5 5 -6 10 -3 6 3 10 1 10 -4 0 -6 -4 -11 -9 -11 -14 0 -20 -26
-9 -41 8 -11 9 -11 4 3 -3 10 -1 20 3 22 5 3 7 -5 6 -17 0 -12 3 -31 8 -42 5
-11 -4 -4 -21 15 -17 19 -33 47 -36 63 -8 41 -26 33 -26 -13 0 -22 -4 -40 -10
-40 -5 0 -10 7 -10 16 0 12 -9 15 -42 13 -54 -3 -79 -15 -76 -37 3 -18 -11
-19 -66 -6 -18 4 -27 3 -23 -3 4 -6 -5 -21 -19 -34 l-25 -23 14 29 c54 118 66
147 80 200 31 116 102 560 81 510 -2 -6 -20 -9 -39 -7 -20 2 -32 8 -29 14 4 6
-2 7 -16 3 -28 -9 -132 3 -125 15 3 4 -2 10 -10 14 -8 3 -15 1 -15 -4 0 -6 -8
-10 -17 -10 -15 0 -16 2 -3 10 13 8 13 10 -2 10 -9 0 -19 -6 -21 -12 -4 -9 -6
-8 -6 2 -1 9 -9 16 -18 16 -49 1 -333 50 -438 76 -66 16 -142 34 -170 39 -44
8 -154 39 -432 121 -40 12 -73 26 -73 32 1 17 26 46 40 46 6 0 48 19 91 41 68
35 87 51 127 107 26 36 66 88 90 116 23 28 57 71 75 95 55 77 100 122 113 117
8 -3 13 0 11 7 -1 7 5 11 13 9 8 -2 12 0 8 4 -4 4 27 44 70 89 72 76 152 203
152 242 0 7 5 13 11 13 5 0 8 4 5 9 -6 9 34 114 41 108 2 -2 -3 -19 -11 -38
-15 -35 -11 -103 5 -78 7 11 14 11 41 1 21 -8 34 -9 36 -2 2 5 14 10 26 10 19
0 23 -5 21 -25 -3 -19 1 -25 16 -25 10 0 19 5 19 10 0 6 18 10 40 10 22 0 40
-4 40 -10 0 -5 18 -10 40 -10 38 0 40 2 40 29 0 30 15 50 22 30 2 -6 12 7 22
30 11 22 25 41 33 41 7 0 13 6 13 13 0 8 4 7 10 -3 8 -13 10 -12 11 5 1 14 4
10 9 -10 l8 -30 1 37 c0 20 6 40 12 43 6 4 8 13 5 21 -3 8 -1 24 4 36 l9 23 0
-22 c1 -28 -70 -527 -105 -732 -14 -84 -23 -155 -21 -158 3 -2 8 15 13 39 7
39 8 41 15 18 6 -16 7 -6 4 30 -3 42 -2 49 5 30 7 -19 9 -12 5 30 -2 31 -1 44
3 31 5 -17 18 38 41 175 18 109 46 276 62 369 15 94 33 202 39 240 23 143 42
246 46 242 3 -2 -7 -71 -20 -153z m-6426 -279 c16 -8 35 -25 41 -38 12 -22 12
-22 -10 -3 -16 15 -21 16 -21 5 0 -8 4 -19 10 -25 7 -7 -2 -9 -25 -6 -36 4
-48 -11 -18 -22 15 -6 15 -8 3 -16 -13 -8 -12 -10 3 -10 9 0 17 -4 17 -10 0
-5 -7 -10 -16 -10 -8 0 -13 -4 -10 -9 14 -22 -5 -37 -40 -33 -34 4 -36 6 -30
34 5 24 3 29 -9 24 -10 -3 -15 1 -15 12 -1 16 -2 16 -14 -1 -9 -12 -16 -14
-21 -8 -10 17 -25 13 -19 -4 4 -8 1 -15 -5 -15 -6 0 -11 12 -11 26 0 23 -2 24
-15 10 -8 -8 -15 -23 -15 -33 0 -10 -5 -25 -10 -33 -7 -12 -11 -10 -18 10 -7
20 -5 29 10 42 11 9 17 22 13 27 -3 7 3 11 14 11 12 0 21 7 21 15 0 9 7 18 16
22 8 3 13 12 10 19 -3 9 2 14 14 14 10 0 22 5 25 10 9 15 92 12 125 -5z
m-1910 -280 c0 -8 14 -17 35 -21 20 -3 35 -12 35 -20 0 -8 10 -14 24 -14 13 0
26 -7 30 -15 3 -8 15 -15 27 -15 12 0 19 -3 15 -7 -3 -4 -28 -6 -55 -4 -48 2
-49 2 -47 -24 2 -15 -1 -24 -8 -22 -6 2 -11 21 -12 43 0 21 -4 47 -8 56 -10
21 -28 14 -19 -7 3 -9 -1 -15 -8 -15 -10 0 -10 -3 -1 -12 19 -19 14 -29 -9
-16 -17 11 -22 10 -34 -6 -16 -21 -45 -15 -45 9 0 8 -9 15 -20 15 -12 0 -24 9
-29 23 -5 12 -11 21 -15 20 -14 -6 -27 -2 -21 7 6 10 55 -7 67 -25 4 -5 8 0 8
13 0 13 6 22 16 22 8 0 12 -5 9 -10 -9 -14 14 -42 27 -34 6 4 5 10 -3 15 -12
8 -11 11 1 19 10 6 11 10 3 10 -7 0 -13 7 -13 15 0 9 9 15 25 15 15 0 25 -6
25 -15z m2420 -172 c0 -10 -133 -114 -215 -170 -33 -22 -114 -77 -179 -121
-66 -45 -121 -80 -124 -77 -8 8 21 37 63 64 22 14 67 46 99 71 80 60 339 239
349 240 4 0 7 -3 7 -7z m-576 -351 c-18 -2 -22 -12 -28 -55 -3 -29 -6 -306 -6
-616 0 -310 -2 -562 -5 -559 -3 3 -5 215 -5 472 l0 466 -52 -37 c-29 -20 -76
-54 -105 -75 -55 -40 -86 -54 -37 -16 16 12 31 25 34 28 3 3 40 30 82 60 43
30 78 61 78 69 0 11 -3 11 -19 0 -11 -8 -92 -67 -182 -132 -89 -65 -163 -116
-166 -113 -3 3 295 233 360 277 5 4 8 11 6 17 -2 6 -80 -46 -174 -114 -231
-170 -252 -184 -264 -184 -24 0 -8 19 52 61 34 24 96 68 137 99 95 70 111 82
188 131 34 23 62 47 62 55 0 8 -1 14 -2 14 -2 0 -50 -34 -108 -75 -58 -41
-136 -96 -174 -122 -37 -27 -86 -63 -109 -81 -22 -18 -49 -37 -61 -43 -30 -14
75 78 149 131 35 25 111 80 169 123 58 42 113 77 122 77 12 0 14 12 12 68 -3
73 8 94 46 83 l21 -6 -21 -3z m1526 -531 c0 -5 -6 -12 -12 -14 -7 -3 -3 -6 9
-6 12 -1 24 -7 27 -13 3 -9 8 -8 16 5 12 19 38 22 60 6 13 -9 13 -10 -1 -6
-13 4 -16 0 -15 -19 1 -28 5 -30 20 -9 9 13 11 10 13 -14 2 -28 0 -30 -27 -26
-17 2 -30 0 -30 -5 0 -5 19 -9 43 -8 59 0 60 0 43 -18 -9 -8 -16 -20 -16 -27
0 -6 6 -2 14 9 17 23 25 17 17 -13 -6 -22 -7 -22 -35 -8 -25 13 -27 13 -22 0
4 -10 -2 -19 -17 -25 -12 -5 -17 -9 -12 -10 18 -1 -20 -20 -42 -20 -15 0 -24
9 -32 30 -10 29 -31 42 -31 18 0 -9 -3 -9 -11 -1 -8 8 -20 8 -43 1 -17 -6 -40
-10 -51 -10 l-20 1 20 -12 c11 -7 21 -19 23 -27 1 -10 -2 -9 -13 4 -8 11 -15
16 -15 10 -1 -11 -24 27 -26 44 -1 6 4 12 12 12 17 0 19 17 2 22 -9 3 -8 9 4
21 9 9 19 29 23 45 3 16 13 28 23 29 34 3 47 8 60 26 14 18 42 23 42 8z m-4
-526 c-3 -9 2 -11 15 -8 13 4 18 1 14 -8 -7 -21 -13 -179 -6 -179 3 0 15 7 25
15 28 21 89 19 117 -4 21 -17 24 -28 24 -88 0 -37 -4 -86 -8 -108 -8 -40 -8
-40 7 -13 9 14 27 62 41 106 28 88 39 102 109 133 38 16 60 20 100 16 28 -4
45 -4 39 -1 -23 10 -13 24 16 24 38 0 84 17 77 29 -6 9 51 81 63 81 3 0 7 -21
9 -47 2 -32 -3 -52 -15 -65 -16 -18 -15 -19 4 -33 24 -17 24 -28 -1 -160 -28
-145 -19 -149 60 -30 52 80 55 88 45 117 -16 44 -14 104 4 122 19 19 76 30
109 22 37 -9 61 -68 47 -120 -9 -36 -8 -45 12 -73 12 -18 25 -33 28 -33 24 0
119 148 119 185 0 9 7 18 15 21 10 4 14 14 10 28 -2 11 -2 15 1 9 3 -7 14 -13
24 -13 24 0 34 -16 16 -23 -8 -3 -17 -1 -19 6 -2 7 -5 1 -5 -13 0 -14 -3 -45
-6 -70 -3 -25 -5 -67 -5 -94 -1 -46 -5 -53 -45 -91 l-45 -41 20 -32 c28 -47
24 -53 -6 -10 -14 20 -25 40 -25 44 0 4 20 25 45 48 l45 42 0 89 0 88 -27 -52
c-33 -61 -77 -117 -102 -131 -15 -8 -23 -3 -44 28 -23 33 -25 44 -20 98 5 57
4 62 -20 81 -49 38 -127 9 -127 -46 1 -14 7 -42 14 -62 15 -42 15 -41 -50
-139 -51 -79 -79 -106 -89 -90 -10 16 -7 93 6 160 5 30 13 70 16 88 l5 32 -61
0 c-53 0 -63 -3 -69 -21 -8 -20 -8 -20 -37 3 -53 41 -150 21 -193 -39 -10 -16
-30 -59 -42 -98 -28 -86 -49 -120 -63 -106 -7 7 -8 33 -1 83 12 80 4 136 -21
154 -22 16 -69 10 -110 -14 -31 -19 -32 -19 -43 -1 -17 26 -81 25 -116 -2
l-26 -20 0 20 c0 19 -6 21 -75 21 l-75 0 0 -68 c0 -50 -6 -79 -22 -112 -23
-45 -43 -52 -42 -15 0 11 3 59 8 108 l7 87 -70 0 c-59 0 -71 -3 -71 -16 0 -11
-5 -14 -16 -10 -9 3 -29 6 -45 6 -16 0 -29 5 -29 10 0 6 16 10 36 10 34 0 35
1 20 22 -24 34 -20 56 9 56 15 0 25 -6 25 -14 0 -8 3 -13 8 -12 4 1 17 -4 30
-11 13 -7 35 -11 50 -10 15 2 37 -1 49 -5 12 -4 31 -3 41 3 13 7 22 7 30 -1 7
-7 13 -4 21 11 9 16 16 18 34 12 12 -5 21 -14 20 -20 -2 -6 8 -11 22 -11 13 0
30 -6 37 -13 10 -11 17 -11 43 2 16 9 31 17 33 18 2 0 8 34 14 75 10 71 31
113 50 102 5 -3 7 -12 4 -19z m455 -292 c0 -5 2 -23 4 -41 1 -18 -2 -38 -9
-45 -13 -14 -17 -107 -4 -107 4 0 8 -6 8 -14 0 -26 59 -66 96 -66 67 0 125 50
199 168 21 34 41 62 46 62 4 0 18 -14 30 -31 20 -28 20 -32 6 -40 -61 -35
-125 -127 -111 -163 3 -9 1 -16 -5 -16 -6 0 -11 9 -11 20 0 38 28 89 73 133
41 39 44 45 30 62 -12 17 -15 18 -23 5 -84 -144 -167 -216 -246 -212 -24 1
-44 -3 -44 -8 0 -6 7 -10 16 -10 8 0 13 -4 9 -9 -3 -5 -1 -12 5 -16 5 -3 10 0
10 7 1 23 109 -105 135 -159 14 -28 25 -57 25 -62 0 -6 5 -11 10 -11 6 0 10
-5 10 -10 0 -6 -4 -9 -9 -8 -10 3 -11 -1 -11 -32 0 -23 25 -27 34 -5 3 8 3 22
-1 31 -5 13 5 15 69 13 42 -1 80 1 86 5 7 4 20 2 31 -3 14 -8 20 -8 23 1 6 17
78 1 78 -18 0 -12 -7 -14 -32 -10 -30 5 -31 5 -10 -6 35 -18 26 -23 -43 -24
-49 -1 -65 3 -65 13 0 9 8 11 25 7 16 -4 25 -2 25 6 0 7 -7 10 -15 6 -8 -3
-15 -2 -15 3 0 4 -15 5 -32 3 -18 -3 -28 -7 -21 -9 7 -2 9 -11 6 -19 -3 -8 0
-20 5 -27 6 -7 7 -19 3 -26 -7 -10 -12 -8 -25 10 -10 15 -16 18 -16 9 0 -12
-2 -13 -9 -1 -7 10 -13 11 -29 2 -18 -9 -21 -19 -17 -52 2 -22 -1 -53 -7 -67
-5 -15 -12 -54 -15 -87 -5 -67 -31 -123 -43 -91 -5 15 -7 14 -19 -8 -8 -14
-18 -23 -23 -20 -4 3 -8 -2 -8 -12 0 -9 -7 -22 -17 -29 -19 -14 -10 -35 16
-35 12 0 22 13 30 40 8 28 17 40 31 40 10 0 20 6 23 13 3 6 4 -4 2 -25 -1 -27
1 -35 11 -31 8 3 14 0 14 -6 0 -6 -6 -11 -12 -12 -7 -1 -2 -4 12 -8 43 -12 30
-35 -22 -41 -36 -4 -48 -3 -48 7 0 7 -4 13 -10 13 -9 0 -18 -24 -24 -65 -3
-18 -12 -19 -182 -16 -98 1 -181 5 -184 8 -3 2 -10 18 -16 36 -16 46 -39 49
-30 4 4 -22 2 -38 -5 -42 -12 -8 -163 4 -156 12 3 2 1 18 -5 34 -7 21 -16 29
-33 29 -13 0 -27 5 -30 10 -4 6 33 10 104 10 111 0 111 0 111 24 0 14 5 28 10
31 6 4 10 -7 10 -24 l0 -31 135 -1 c74 -1 140 -2 147 -3 15 -1 31 67 17 72
-23 9 -5 22 31 22 31 0 38 3 34 15 -4 8 -2 15 4 15 5 0 13 7 16 16 5 14 4 15
-9 4 -21 -17 -25 -11 -29 46 -2 26 -9 50 -15 52 -22 7 -10 22 18 22 23 0 31
-6 39 -27 l10 -28 6 30 c4 17 12 47 18 68 10 32 9 40 -3 48 -8 5 -9 9 -3 9 15
0 24 36 13 47 -6 6 -12 32 -16 59 -6 49 -18 76 -60 127 -31 39 -29 56 3 26
l27 -24 -17 33 c-12 22 -24 32 -40 32 -14 0 -30 10 -39 23 -25 39 -80 89 -86
80 -10 -15 -78 -31 -105 -26 -38 8 -32 20 8 15 18 -2 47 3 64 12 29 15 30 16
16 53 -7 21 -13 46 -14 55 0 9 -9 20 -21 23 -43 14 -47 101 -5 130 21 16 76
21 77 8z m-908 -262 c15 -31 31 -75 37 -98 13 -51 32 -59 121 -49 32 3 59 2
59 -2 0 -5 -6 -9 -12 -10 -7 0 -31 -4 -53 -8 -23 -3 -58 -1 -78 4 -38 11 -46
5 -25 -16 7 -7 8 -12 2 -12 -6 0 -10 -13 -9 -30 1 -16 -2 -35 -6 -42 -5 -7 -9
-8 -9 -3 -1 6 -2 34 -4 63 -1 28 -5 54 -8 57 -2 3 -28 6 -57 7 -29 1 -55 7
-58 12 -4 5 19 6 56 2 64 -7 68 -5 52 36 -5 13 -9 26 -9 31 -2 13 -55 110 -79
143 -13 17 -23 37 -23 45 1 24 76 -70 103 -130z m5537 -146 c0 -19 -4 -35 -10
-35 -5 0 -16 -12 -24 -27 -11 -20 -15 -23 -16 -10 0 14 -5 16 -27 11 -26 -7
-27 -6 -13 11 14 17 13 18 -2 12 -13 -4 -18 -1 -18 11 -1 15 -2 15 -15 -2 -10
-14 -11 -24 -4 -38 7 -14 6 -20 -6 -24 -27 -11 -42 3 -49 46 -6 37 -8 40 -22
26 -8 -9 -22 -16 -30 -16 -8 0 -12 -4 -9 -10 3 -5 -1 -10 -9 -10 -9 0 -16 -4
-16 -10 0 -5 6 -10 13 -10 8 0 7 -3 -3 -9 -8 -6 -17 -8 -21 -5 -9 5 -7 44 2
44 4 0 22 14 40 31 29 27 35 29 61 18 26 -11 40 -39 18 -39 -5 0 -10 -4 -10
-10 0 -17 27 0 38 24 10 22 8 24 -21 31 l-32 8 35 7 c19 4 61 8 93 9 l57 1 0
-35z m-442 -114 c23 -7 48 -8 55 -4 8 5 -1 10 -23 14 l-35 6 41 2 c28 1 46 -4
55 -16 12 -15 12 -16 -3 -10 -10 3 -20 2 -23 -2 -7 -12 24 -23 38 -14 12 8 97
11 97 4 0 -3 -7 -12 -15 -21 -13 -15 -9 -19 54 -43 38 -15 74 -27 81 -27 7 0
33 -18 57 -40 24 -23 48 -38 55 -34 7 4 8 3 4 -4 -4 -7 -2 -12 3 -12 7 0 11
-35 10 -97 -1 -54 -4 -89 -6 -78 -7 26 -40 58 -48 45 -3 -6 -4 -14 -1 -19 4
-5 -3 -7 -14 -4 -27 7 -36 23 -19 34 11 6 8 9 -8 9 -18 0 -21 -5 -17 -25 3
-20 0 -25 -16 -25 -23 0 -24 -4 -10 -31 6 -10 20 -19 30 -19 11 0 20 -4 20 -8
0 -5 -12 -8 -27 -7 -16 1 -27 7 -26 13 2 7 -8 14 -22 18 -14 3 -25 12 -25 20
0 9 -11 14 -31 14 -25 0 -29 3 -25 18 5 15 -1 18 -35 19 -26 1 -42 -3 -45 -12
-3 -7 -13 -16 -21 -19 -13 -5 -13 -4 -4 7 9 11 8 17 -4 27 -12 10 -15 9 -15
-6 0 -14 -8 -19 -33 -21 -26 -1 -28 0 -12 7 20 9 20 9 -1 15 -16 5 -20 14 -20
41 1 33 2 34 46 35 111 3 98 17 -17 18 -67 0 -128 4 -137 7 -13 5 -16 22 -16
84 0 54 -4 80 -12 83 -10 3 -10 7 -1 17 6 7 9 19 6 26 -3 8 -3 20 0 28 6 15
19 13 115 -13z m-3178 4 c9 -11 9 -15 1 -15 -7 0 -9 -9 -5 -26 5 -19 4 -25 -5
-20 -6 4 -11 2 -11 -3 0 -6 -21 -11 -50 -11 -51 0 -60 -6 -38 -28 10 -10 13
-75 5 -137 -3 -31 -20 -52 -46 -60 -21 -6 -23 -5 -18 15 4 16 2 20 -9 16 -11
-4 -14 -1 -12 12 2 11 14 18 36 20 35 4 39 16 26 81 -7 32 -30 41 -51 20 -7
-7 -10 -3 -10 14 0 16 8 29 21 35 17 9 18 11 4 11 -23 1 -24 39 -1 48 9 4 43
7 75 7 51 1 57 3 52 18 -7 22 18 24 36 3z m-1876 -77 c-4 -18 -17 -51 -29 -73
-31 -54 -58 -159 -58 -219 1 -66 22 -136 40 -136 11 0 13 7 9 26 -5 17 -3 23
4 19 5 -3 10 -15 10 -26 0 -16 7 -19 55 -19 30 0 55 5 55 10 0 6 9 5 21 -2 18
-11 23 -11 26 0 4 10 8 10 20 1 12 -11 13 -9 8 13 -4 15 -2 29 4 32 7 5 11 -2
12 -16 0 -13 3 -17 6 -10 7 17 23 15 23 -3 0 -8 -7 -15 -17 -15 -9 0 -13 -3
-9 -7 3 -4 50 -8 102 -9 53 -2 99 -5 102 -8 6 -6 -128 -11 -193 -7 -86 5 -244
1 -333 -10 -51 -6 -128 -11 -170 -11 -42 0 -83 -6 -91 -12 -11 -8 -13 -8 -7 2
11 19 -9 14 -28 -7 -25 -27 -50 -16 -75 35 -29 56 -37 109 -21 129 7 8 13 36
14 62 4 99 6 113 15 113 15 0 23 -51 11 -66 -7 -7 -9 -17 -6 -23 3 -5 8 -38
11 -74 4 -50 1 -66 -10 -70 -9 -4 -12 -1 -8 9 3 7 0 14 -6 14 -6 0 -11 -13
-11 -30 0 -16 5 -30 10 -30 6 0 10 -7 10 -15 0 -10 10 -15 34 -15 21 0 36 6
40 15 3 9 18 15 36 15 16 0 30 2 30 4 0 2 3 11 6 20 4 11 1 16 -11 16 -9 0
-13 -4 -10 -10 3 -5 0 -7 -9 -4 -8 3 -17 12 -20 19 -4 11 2 13 23 9 20 -4 30
-1 34 10 4 9 2 16 -2 16 -5 0 -12 -6 -14 -12 -3 -8 -6 -6 -6 4 -1 10 8 22 18
28 27 14 31 13 31 -10 0 -11 5 -20 11 -20 6 0 9 -6 6 -12 -2 -7 -9 -12 -15
-11 -14 3 -27 -37 -15 -47 4 -4 33 -4 63 -1 47 5 55 9 53 26 -1 11 -5 47 -8
80 -12 114 -14 175 -4 180 5 4 10 -2 10 -12 1 -10 3 -29 4 -43 2 -14 6 -73 10
-132 l7 -106 48 2 c27 1 52 4 55 7 3 4 0 19 -6 35 -17 42 -21 197 -5 191 9 -4
13 8 12 39 -1 28 -6 44 -13 44 -17 0 -16 16 3 45 15 23 15 25 0 25 -9 0 -16
-4 -16 -10 0 -5 -4 -10 -10 -10 -5 0 -9 3 -9 8 4 24 -3 42 -16 42 -15 0 -22
-19 -29 -80 -2 -19 -3 -6 -3 30 l0 66 48 1 c62 1 76 -14 61 -64 -18 -59 -5
-51 24 13 24 55 38 73 56 74 4 0 5 -15 2 -32z m6320 -3 c4 -19 13 -41 21 -48
18 -19 23 -203 5 -199 -7 1 -9 -5 -6 -16 5 -15 1 -17 -29 -14 -19 2 -33 8 -30
12 3 5 14 6 25 3 11 -3 20 -1 20 5 0 13 -51 25 -62 14 -15 -15 3 -42 27 -42
13 0 26 -4 29 -9 4 -5 -4 -7 -15 -4 -14 4 -26 0 -34 -11 -8 -10 -19 -14 -29
-10 -15 6 -15 7 0 19 16 11 16 14 -5 44 -25 35 -22 62 6 55 18 -5 19 1 15 91
-3 67 -1 100 8 108 9 9 11 3 9 -28 -4 -61 0 -105 9 -105 5 0 9 15 9 33 2 129
14 174 27 102z m-4208 -82 c2 -75 14 -83 125 -83 57 0 90 -4 96 -12 6 -7 13
-41 16 -75 4 -49 2 -65 -12 -76 -21 -19 -84 -52 -93 -49 -5 1 -8 -2 -8 -7 0
-5 -8 -7 -19 -4 -10 3 -32 -2 -49 -11 -31 -16 -94 -18 -84 -2 3 5 -2 7 -11 3
-10 -4 -17 -2 -17 5 0 7 -4 7 -14 -1 -11 -9 -21 -8 -44 7 -38 22 -29 39 18 35
19 -2 46 -4 60 -6 19 -1 24 2 22 16 -2 10 3 17 13 17 8 0 15 -9 15 -20 0 -24
15 -25 54 -5 23 12 31 13 37 3 6 -9 12 -8 27 5 10 9 22 14 25 10 4 -3 7 3 7
15 0 12 4 22 10 22 5 0 14 9 20 21 10 17 9 20 -7 19 -32 -4 -34 -1 -17 25 9
14 23 25 32 25 23 0 11 8 -23 15 -48 11 -99 6 -111 -10 -12 -16 -25 -20 -23
-7 3 19 -2 33 -11 27 -16 -10 -71 24 -68 43 1 9 -1 23 -6 30 -8 13 21 82 34
82 3 0 6 -26 6 -57z m-4463 -335 c9 -11 17 -29 17 -39 0 -28 -27 -23 -34 6 -7
26 -36 25 -36 -1 0 -8 -3 -14 -7 -14 -5 0 -18 -3 -30 -6 -21 -6 -23 -3 -23 30
0 39 -15 48 -25 16 -4 -11 -15 -20 -26 -20 -11 0 -22 -7 -26 -15 -4 -13 -23
-16 -99 -14 -89 1 -94 3 -94 23 0 28 19 53 44 58 11 1 87 2 170 0 138 -3 153
-5 169 -24z m740 19 c3 -8 0 -33 -6 -57 l-12 -42 -230 7 c-126 5 -242 7 -257
6 -22 -1 -28 3 -28 19 0 12 -5 30 -11 42 -13 24 -7 32 19 24 16 -5 19 -13 15
-36 -3 -23 0 -30 13 -30 11 0 15 6 11 19 -11 43 -1 45 237 42 157 -2 226 1
226 8 0 16 17 14 23 -2z m-1275 -185 c2 -7 -2 -10 -11 -6 -19 7 -28 -8 -16
-26 8 -13 10 -13 19 0 8 12 13 13 30 3 13 -9 62 -13 137 -14 184 0 380 -14
397 -28 9 -7 17 -8 20 -2 3 5 47 8 99 7 50 -2 129 -4 175 -4 75 -2 82 -4 82
-22 0 -24 1 -24 -250 -10 -186 10 -326 17 -480 25 -193 10 -272 18 -258 26 10
7 10 11 0 21 -10 10 -8 16 10 30 25 19 39 19 46 0z m2457 -127 c17 -6 18 -5 5
5 -13 10 -13 11 2 7 13 -5 397 -15 1078 -30 124 -3 156 -9 144 -29 -4 -7 -76
-8 -213 -4 -113 3 -399 11 -636 17 -236 6 -434 15 -439 19 -5 5 -31 6 -57 3
-32 -4 -49 -2 -49 5 0 18 121 24 165 7z m6551 -198 c6 2 29 -16 51 -39 38 -41
51 -47 99 -50 16 0 22 -7 22 -25 0 -13 8 -31 18 -39 18 -15 18 -15 1 -10 -10
3 -21 6 -23 6 -2 0 -4 9 -4 20 0 18 -3 19 -22 9 -18 -9 -20 -9 -15 4 5 13 -11
28 -34 31 -4 1 -16 12 -28 26 -11 14 -20 20 -21 15 0 -6 6 -17 13 -24 10 -12
8 -13 -8 -7 -18 5 -18 4 2 -13 14 -11 31 -17 43 -14 11 3 20 0 20 -6 0 -6 -7
-11 -15 -11 -8 0 -15 -8 -16 -17 0 -14 -2 -13 -9 5 -11 27 -24 29 -15 2 5 -15
3 -18 -9 -14 -9 3 -16 11 -16 18 0 17 -38 38 -42 24 -3 -8 -16 -2 -34 15 -16
15 -32 27 -36 27 -20 0 -5 32 20 41 15 7 22 13 14 16 -6 3 -10 9 -6 14 3 5 12
5 22 0 9 -4 22 -7 28 -4z m-8342 -9 c-5 -8 -2 -9 12 -3 52 21 65 15 19 -10
-35 -19 -65 -27 -100 -27 -45 -1 -47 -2 -20 -9 17 -5 49 -6 73 -3 36 5 41 4
36 -9 -5 -13 2 -15 43 -13 27 2 63 11 80 20 18 9 45 16 60 15 25 0 24 -2 -12
-13 l-40 -13 63 -7 c83 -11 79 -26 -5 -21 -210 12 -523 15 -523 5 0 -5 -11
-10 -25 -10 -14 0 -25 5 -25 10 0 6 -15 10 -34 10 -49 0 -66 9 -66 35 0 21 6
23 93 34 50 6 132 11 180 10 49 -1 90 1 92 3 2 2 27 5 55 6 37 1 49 -1 44 -10z
m3089 -54 c7 -7 -11 -52 -30 -75 -7 -8 -14 -38 -15 -65 l-3 -49 -40 2 c-22 1
-123 6 -225 12 -102 6 -265 14 -363 17 -97 4 -175 9 -172 12 3 3 22 8 42 12
35 7 36 8 8 9 -17 0 -46 -4 -65 -9 -47 -14 -308 -14 -342 -1 -18 7 -26 16 -22
25 3 8 1 17 -5 21 -6 3 -11 17 -11 29 0 21 6 24 53 30 54 7 314 1 547 -13 74
-4 216 -8 315 -9 99 -1 205 -5 236 -8 l56 -6 7 36 c7 34 15 43 29 30z m-1497
-20 c19 -5 20 -10 13 -47 -5 -29 -3 -44 4 -49 8 -5 6 -8 -6 -8 -10 0 -15 -4
-12 -10 9 -15 -40 -12 -120 6 -141 31 -142 31 -149 65 -13 65 -19 62 122 55
70 -4 136 -10 148 -12z m709 -194 c83 -5 238 -14 345 -20 327 -17 390 -22 390
-31 0 -8 -134 -4 -250 8 -36 4 -90 8 -120 9 -45 1 -627 32 -638 34 -2 0 0 5 3
10 4 7 29 9 63 6 32 -3 125 -10 207 -16z m3400 -196 c8 -4 15 -12 15 -19 0 -7
14 -18 30 -25 33 -14 40 -30 13 -30 -17 -1 -17 -1 0 -11 10 -6 25 -8 34 -5 12
5 13 4 5 -7 -7 -8 -9 -17 -5 -20 3 -4 1 -7 -5 -7 -7 0 -12 4 -12 9 0 13 -114
34 -118 21 -2 -6 -8 -8 -12 -5 -5 3 -11 1 -15 -5 -3 -6 4 -10 17 -10 28 0 43
-10 43 -30 0 -24 79 -35 117 -16 40 21 45 20 24 -3 -12 -13 -38 -21 -84 -27
-57 -6 -62 -9 -37 -15 28 -6 27 -7 -12 -8 -23 0 -45 -5 -48 -11 -8 -12 -117
-13 -130 -1 -6 5 -27 12 -48 15 -37 7 -38 6 -27 -15 12 -20 11 -21 -16 -15
-16 4 -32 13 -36 19 -12 19 -9 65 6 79 7 8 21 28 30 46 17 33 89 88 134 103
26 8 108 4 137 -7z"/>
</g>
</svg>
